  0
SECTION
  2
HEADER
  9
$ACADVER
  1
AC1009
  9
$FILLMODE
 70
 0
  9
$SPLFRAME
 70
 1
  9
$EXTMIN
 10
0
 20
0
 30
0.0
  9
$EXTMAX
 10
1058.33
 20
1058.33
 30
0.0
  0
ENDSEC
  0
SECTION
  2
TABLES
  0
TABLE
  2
LAYER
 70
1
  0
LAYER
  2
0
 70
     0
 62
     7
  6
CONTINUOUS
  0
ENDTAB
  0
ENDSEC
  0
SECTION
  2
ENTITIES
  0
POLYLINE
  8
0
 62
     0
 66
     1
 10
0
 20
0
 30
0.0
 70
     1
 40
0.141732
 41
0.141732
  0
VERTEX
  8
0
 10
14.0505
 20
10.0004
 30
0.0
 40
0.0499999
 41
0.0499999
  0
VERTEX
  8
0
 10
24.5497
 20
10.0004
 30
0.0
 40
0.0499999
 41
0.0499999
  0
VERTEX
  8
0
 10
24.5497
 20
13.9995
 30
0.0
 40
0.0499999
 41
0.0499999
  0
VERTEX
  8
0
 10
24.5497
 20
14.0064
 30
0.0
 40
0.0499999
 41
0.0499999
  0
VERTEX
  8
0
 10
24.5553
 20
14.0243
 30
0.0
 40
0.0499999
 41
0.0499999
  0
VERTEX
  8
0
 10
24.5566
 20
14.0257
 30
0.0
 40
0.0499999
 41
0.0499999
  0
VERTEX
  8
0
 10
24.5566
 20
14.0284
 30
0.0
 40
0.0499999
 41
0.0499999
  0
VERTEX
  8
0
 10
24.5718
 20
14.0436
 30
0.0
 40
0.0499999
 41
0.0499999
  0
VERTEX
  8
0
 10
24.5746
 20
14.0436
 30
0.0
 40
0.0499999
 41
0.0499999
  0
VERTEX
  8
0
 10
24.5759
 20
14.045
 30
0.0
 40
0.0499999
 41
0.0499999
  0
VERTEX
  8
0
 10
24.5925
 20
14.0505
 30
0.0
 40
0.0499999
 41
0.0499999
  0
VERTEX
  8
0
 10
24.5994
 20
14.0505
 30
0.0
 40
0.0499999
 41
0.0499999
  0
VERTEX
  8
0
 10
40.5998
 20
14.0505
 30
0.0
 40
0.0499999
 41
0.0499999
  0
VERTEX
  8
0
 10
40.6054
 20
14.0505
 30
0.0
 40
0.0499999
 41
0.0499999
  0
VERTEX
  8
0
 10
40.6217
 20
14.045
 30
0.0
 40
0.0499999
 41
0.0499999
  0
VERTEX
  8
0
 10
40.6245
 20
14.0436
 30
0.0
 40
0.0499999
 41
0.0499999
  0
VERTEX
  8
0
 10
40.6259
 20
14.0436
 30
0.0
 40
0.0499999
 41
0.0499999
  0
VERTEX
  8
0
 10
40.6425
 20
14.0284
 30
0.0
 40
0.0499999
 41
0.0499999
  0
VERTEX
  8
0
 10
40.6439
 20
14.0257
 30
0.0
 40
0.0499999
 41
0.0499999
  0
VERTEX
  8
0
 10
40.6439
 20
14.0243
 30
0.0
 40
0.0499999
 41
0.0499999
  0
VERTEX
  8
0
 10
40.6495
 20
14.0064
 30
0.0
 40
0.0499999
 41
0.0499999
  0
VERTEX
  8
0
 10
40.6495
 20
13.9995
 30
0.0
 40
0.0499999
 41
0.0499999
  0
VERTEX
  8
0
 10
40.6495
 20
10.0004
 30
0.0
 40
0.0499999
 41
0.0499999
  0
VERTEX
  8
0
 10
51.15
 20
10.0004
 30
0.0
 40
0.0499999
 41
0.0499999
  0
VERTEX
  8
0
 10
55.1505
 20
10.0004
 30
0.0
 40
0.0499999
 41
0.0499999
  0
VERTEX
  8
0
 10
55.1505
 20
14.9999
 30
0.0
 40
0.0499999
 41
0.0499999
  0
VERTEX
  8
0
 10
51.15
 20
14.9999
 30
0.0
 40
0.0499999
 41
0.0499999
  0
VERTEX
  8
0
 10
51.1433
 20
14.9999
 30
0.0
 40
0.0499999
 41
0.0499999
  0
VERTEX
  8
0
 10
51.1267
 20
15.0068
 30
0.0
 40
0.0499999
 41
0.0499999
  0
VERTEX
  8
0
 10
51.1253
 20
15.0068
 30
0.0
 40
0.0499999
 41
0.0499999
  0
VERTEX
  8
0
 10
51.1224
 20
15.0082
 30
0.0
 40
0.0499999
 41
0.0499999
  0
VERTEX
  8
0
 10
51.1073
 20
15.0234
 30
0.0
 40
0.0499999
 41
0.0499999
  0
VERTEX
  8
0
 10
51.1059
 20
15.0247
 30
0.0
 40
0.0499999
 41
0.0499999
  0
VERTEX
  8
0
 10
51.1044
 20
15.0275
 30
0.0
 40
0.0499999
 41
0.0499999
  0
VERTEX
  8
0
 10
51.1006
 20
15.044
 30
0.0
 40
0.0499999
 41
0.0499999
  0
VERTEX
  8
0
 10
51.1006
 20
15.0496
 30
0.0
 40
0.0499999
 41
0.0499999
  0
VERTEX
  8
0
 10
51.1006
 20
31.0499
 30
0.0
 40
0.0499999
 41
0.0499999
  0
VERTEX
  8
0
 10
51.1006
 20
31.0569
 30
0.0
 40
0.0499999
 41
0.0499999
  0
VERTEX
  8
0
 10
51.1044
 20
31.0734
 30
0.0
 40
0.0499999
 41
0.0499999
  0
VERTEX
  8
0
 10
51.1059
 20
31.0747
 30
0.0
 40
0.0499999
 41
0.0499999
  0
VERTEX
  8
0
 10
51.1073
 20
31.0775
 30
0.0
 40
0.0499999
 41
0.0499999
  0
VERTEX
  8
0
 10
51.1224
 20
31.0927
 30
0.0
 40
0.0499999
 41
0.0499999
  0
VERTEX
  8
0
 10
51.1253
 20
31.0927
 30
0.0
 40
0.0499999
 41
0.0499999
  0
VERTEX
  8
0
 10
51.1267
 20
31.094
 30
0.0
 40
0.0499999
 41
0.0499999
  0
VERTEX
  8
0
 10
51.1433
 20
31.0996
 30
0.0
 40
0.0499999
 41
0.0499999
  0
VERTEX
  8
0
 10
51.15
 20
31.0996
 30
0.0
 40
0.0499999
 41
0.0499999
  0
VERTEX
  8
0
 10
55.1505
 20
31.0996
 30
0.0
 40
0.0499999
 41
0.0499999
  0
VERTEX
  8
0
 10
55.1505
 20
36.1005
 30
0.0
 40
0.0499999
 41
0.0499999
  0
VERTEX
  8
0
 10
55.1505
 20
40.0995
 30
0.0
 40
0.0499999
 41
0.0499999
  0
VERTEX
  8
0
 10
51.15
 20
40.0995
 30
0.0
 40
0.0499999
 41
0.0499999
  0
VERTEX
  8
0
 10
40.6495
 20
40.0995
 30
0.0
 40
0.0499999
 41
0.0499999
  0
VERTEX
  8
0
 10
40.6495
 20
38.3494
 30
0.0
 40
0.0499999
 41
0.0499999
  0
VERTEX
  8
0
 10
40.6495
 20
38.3438
 30
0.0
 40
0.0499999
 41
0.0499999
  0
VERTEX
  8
0
 10
40.6439
 20
38.3275
 30
0.0
 40
0.0499999
 41
0.0499999
  0
VERTEX
  8
0
 10
40.6439
 20
38.3247
 30
0.0
 40
0.0499999
 41
0.0499999
  0
VERTEX
  8
0
 10
40.6425
 20
38.3233
 30
0.0
 40
0.0499999
 41
0.0499999
  0
VERTEX
  8
0
 10
40.6259
 20
38.3081
 30
0.0
 40
0.0499999
 41
0.0499999
  0
VERTEX
  8
0
 10
40.6245
 20
38.3067
 30
0.0
 40
0.0499999
 41
0.0499999
  0
VERTEX
  8
0
 10
40.6217
 20
38.3067
 30
0.0
 40
0.0499999
 41
0.0499999
  0
VERTEX
  8
0
 10
40.6054
 20
38.2997
 30
0.0
 40
0.0499999
 41
0.0499999
  0
VERTEX
  8
0
 10
40.5998
 20
38.2997
 30
0.0
 40
0.0499999
 41
0.0499999
  0
VERTEX
  8
0
 10
24.5994
 20
38.2997
 30
0.0
 40
0.0499999
 41
0.0499999
  0
VERTEX
  8
0
 10
24.5925
 20
38.2997
 30
0.0
 40
0.0499999
 41
0.0499999
  0
VERTEX
  8
0
 10
24.5759
 20
38.3067
 30
0.0
 40
0.0499999
 41
0.0499999
  0
VERTEX
  8
0
 10
24.5746
 20
38.3067
 30
0.0
 40
0.0499999
 41
0.0499999
  0
VERTEX
  8
0
 10
24.5718
 20
38.3081
 30
0.0
 40
0.0499999
 41
0.0499999
  0
VERTEX
  8
0
 10
24.5566
 20
38.3233
 30
0.0
 40
0.0499999
 41
0.0499999
  0
VERTEX
  8
0
 10
24.5566
 20
38.3247
 30
0.0
 40
0.0499999
 41
0.0499999
  0
VERTEX
  8
0
 10
24.5553
 20
38.3275
 30
0.0
 40
0.0499999
 41
0.0499999
  0
VERTEX
  8
0
 10
24.5497
 20
38.3438
 30
0.0
 40
0.0499999
 41
0.0499999
  0
VERTEX
  8
0
 10
24.5497
 20
38.3494
 30
0.0
 40
0.0499999
 41
0.0499999
  0
VERTEX
  8
0
 10
24.5497
 20
40.0995
 30
0.0
 40
0.0499999
 41
0.0499999
  0
VERTEX
  8
0
 10
14.0505
 20
40.0995
 30
0.0
 40
0.0499999
 41
0.0499999
  0
VERTEX
  8
0
 10
10.05
 20
40.0995
 30
0.0
 40
0.0499999
 41
0.0499999
  0
VERTEX
  8
0
 10
10.05
 20
36.1005
 30
0.0
 40
0.0499999
 41
0.0499999
  0
VERTEX
  8
0
 10
10.05
 20
31.0996
 30
0.0
 40
0.0499999
 41
0.0499999
  0
VERTEX
  8
0
 10
14.0505
 20
31.0996
 30
0.0
 40
0.0499999
 41
0.0499999
  0
VERTEX
  8
0
 10
14.056
 20
31.0996
 30
0.0
 40
0.0499999
 41
0.0499999
  0
VERTEX
  8
0
 10
14.0725
 20
31.094
 30
0.0
 40
0.0499999
 41
0.0499999
  0
VERTEX
  8
0
 10
14.0753
 20
31.0927
 30
0.0
 40
0.0499999
 41
0.0499999
  0
VERTEX
  8
0
 10
14.0766
 20
31.0927
 30
0.0
 40
0.0499999
 41
0.0499999
  0
VERTEX
  8
0
 10
14.0918
 20
31.0775
 30
0.0
 40
0.0499999
 41
0.0499999
  0
VERTEX
  8
0
 10
14.0932
 20
31.0747
 30
0.0
 40
0.0499999
 41
0.0499999
  0
VERTEX
  8
0
 10
14.0932
 20
31.0734
 30
0.0
 40
0.0499999
 41
0.0499999
  0
VERTEX
  8
0
 10
14.1001
 20
31.0569
 30
0.0
 40
0.0499999
 41
0.0499999
  0
VERTEX
  8
0
 10
14.1001
 20
31.0499
 30
0.0
 40
0.0499999
 41
0.0499999
  0
VERTEX
  8
0
 10
14.1001
 20
15.0496
 30
0.0
 40
0.0499999
 41
0.0499999
  0
VERTEX
  8
0
 10
14.1001
 20
15.044
 30
0.0
 40
0.0499999
 41
0.0499999
  0
VERTEX
  8
0
 10
14.0932
 20
15.0275
 30
0.0
 40
0.0499999
 41
0.0499999
  0
VERTEX
  8
0
 10
14.0932
 20
15.0247
 30
0.0
 40
0.0499999
 41
0.0499999
  0
VERTEX
  8
0
 10
14.0918
 20
15.0234
 30
0.0
 40
0.0499999
 41
0.0499999
  0
VERTEX
  8
0
 10
14.0766
 20
15.0082
 30
0.0
 40
0.0499999
 41
0.0499999
  0
VERTEX
  8
0
 10
14.0753
 20
15.0068
 30
0.0
 40
0.0499999
 41
0.0499999
  0
VERTEX
  8
0
 10
14.0725
 20
15.0068
 30
0.0
 40
0.0499999
 41
0.0499999
  0
VERTEX
  8
0
 10
14.056
 20
14.9999
 30
0.0
 40
0.0499999
 41
0.0499999
  0
VERTEX
  8
0
 10
14.0505
 20
14.9999
 30
0.0
 40
0.0499999
 41
0.0499999
  0
VERTEX
  8
0
 10
10.05
 20
14.9999
 30
0.0
 40
0.0499999
 41
0.0499999
  0
VERTEX
  8
0
 10
10.05
 20
10.0004
 30
0.0
 40
0.0499999
 41
0.0499999
  0
VERTEX
  8
0
 10
14.0505
 20
10.0004
 30
0.0
 40
0.0499999
 41
0.0499999
  0
SEQEND
 8
0
  0
POLYLINE
  8
0
 62
     0
 66
     1
 10
0
 20
0
 30
0.0
 70
     1
 40
0.141732
 41
0.141732
  0
VERTEX
  8
0
 10
14.0505
 20
41.9005
 30
0.0
 40
0.0499999
 41
0.0499999
  0
VERTEX
  8
0
 10
24.5497
 20
41.9005
 30
0.0
 40
0.0499999
 41
0.0499999
  0
VERTEX
  8
0
 10
24.5497
 20
45.8996
 30
0.0
 40
0.0499999
 41
0.0499999
  0
VERTEX
  8
0
 10
24.5497
 20
45.9066
 30
0.0
 40
0.0499999
 41
0.0499999
  0
VERTEX
  8
0
 10
24.5553
 20
45.9232
 30
0.0
 40
0.0499999
 41
0.0499999
  0
VERTEX
  8
0
 10
24.5566
 20
45.9246
 30
0.0
 40
0.0499999
 41
0.0499999
  0
VERTEX
  8
0
 10
24.5566
 20
45.9274
 30
0.0
 40
0.0499999
 41
0.0499999
  0
VERTEX
  8
0
 10
24.5718
 20
45.9437
 30
0.0
 40
0.0499999
 41
0.0499999
  0
VERTEX
  8
0
 10
24.5746
 20
45.9437
 30
0.0
 40
0.0499999
 41
0.0499999
  0
VERTEX
  8
0
 10
24.5759
 20
45.9451
 30
0.0
 40
0.0499999
 41
0.0499999
  0
VERTEX
  8
0
 10
24.5925
 20
45.9507
 30
0.0
 40
0.0499999
 41
0.0499999
  0
VERTEX
  8
0
 10
24.5994
 20
45.9507
 30
0.0
 40
0.0499999
 41
0.0499999
  0
VERTEX
  8
0
 10
40.5998
 20
45.9507
 30
0.0
 40
0.0499999
 41
0.0499999
  0
VERTEX
  8
0
 10
40.6054
 20
45.9507
 30
0.0
 40
0.0499999
 41
0.0499999
  0
VERTEX
  8
0
 10
40.6217
 20
45.9451
 30
0.0
 40
0.0499999
 41
0.0499999
  0
VERTEX
  8
0
 10
40.6245
 20
45.9437
 30
0.0
 40
0.0499999
 41
0.0499999
  0
VERTEX
  8
0
 10
40.6259
 20
45.9437
 30
0.0
 40
0.0499999
 41
0.0499999
  0
VERTEX
  8
0
 10
40.6425
 20
45.9274
 30
0.0
 40
0.0499999
 41
0.0499999
  0
VERTEX
  8
0
 10
40.6439
 20
45.9246
 30
0.0
 40
0.0499999
 41
0.0499999
  0
VERTEX
  8
0
 10
40.6439
 20
45.9232
 30
0.0
 40
0.0499999
 41
0.0499999
  0
VERTEX
  8
0
 10
40.6495
 20
45.9066
 30
0.0
 40
0.0499999
 41
0.0499999
  0
VERTEX
  8
0
 10
40.6495
 20
45.8996
 30
0.0
 40
0.0499999
 41
0.0499999
  0
VERTEX
  8
0
 10
40.6495
 20
41.9005
 30
0.0
 40
0.0499999
 41
0.0499999
  0
VERTEX
  8
0
 10
51.15
 20
41.9005
 30
0.0
 40
0.0499999
 41
0.0499999
  0
VERTEX
  8
0
 10
55.1505
 20
41.9005
 30
0.0
 40
0.0499999
 41
0.0499999
  0
VERTEX
  8
0
 10
55.1505
 20
46.9
 30
0.0
 40
0.0499999
 41
0.0499999
  0
VERTEX
  8
0
 10
51.15
 20
46.9
 30
0.0
 40
0.0499999
 41
0.0499999
  0
VERTEX
  8
0
 10
51.1433
 20
46.9
 30
0.0
 40
0.0499999
 41
0.0499999
  0
VERTEX
  8
0
 10
51.1267
 20
46.9057
 30
0.0
 40
0.0499999
 41
0.0499999
  0
VERTEX
  8
0
 10
51.1253
 20
46.9071
 30
0.0
 40
0.0499999
 41
0.0499999
  0
VERTEX
  8
0
 10
51.1224
 20
46.9085
 30
0.0
 40
0.0499999
 41
0.0499999
  0
VERTEX
  8
0
 10
51.1073
 20
46.9237
 30
0.0
 40
0.0499999
 41
0.0499999
  0
VERTEX
  8
0
 10
51.1059
 20
46.9251
 30
0.0
 40
0.0499999
 41
0.0499999
  0
VERTEX
  8
0
 10
51.1044
 20
46.9276
 30
0.0
 40
0.0499999
 41
0.0499999
  0
VERTEX
  8
0
 10
51.1006
 20
46.9441
 30
0.0
 40
0.0499999
 41
0.0499999
  0
VERTEX
  8
0
 10
51.1006
 20
46.9498
 30
0.0
 40
0.0499999
 41
0.0499999
  0
VERTEX
  8
0
 10
51.1006
 20
62.95
 30
0.0
 40
0.0499999
 41
0.0499999
  0
VERTEX
  8
0
 10
51.1006
 20
62.9571
 30
0.0
 40
0.0499999
 41
0.0499999
  0
VERTEX
  8
0
 10
51.1044
 20
62.9737
 30
0.0
 40
0.0499999
 41
0.0499999
  0
VERTEX
  8
0
 10
51.1059
 20
62.9751
 30
0.0
 40
0.0499999
 41
0.0499999
  0
VERTEX
  8
0
 10
51.1073
 20
62.9779
 30
0.0
 40
0.0499999
 41
0.0499999
  0
VERTEX
  8
0
 10
51.1224
 20
62.9931
 30
0.0
 40
0.0499999
 41
0.0499999
  0
VERTEX
  8
0
 10
51.1253
 20
62.9931
 30
0.0
 40
0.0499999
 41
0.0499999
  0
VERTEX
  8
0
 10
51.1267
 20
62.9941
 30
0.0
 40
0.0499999
 41
0.0499999
  0
VERTEX
  8
0
 10
51.1433
 20
62.9998
 30
0.0
 40
0.0499999
 41
0.0499999
  0
VERTEX
  8
0
 10
51.15
 20
62.9998
 30
0.0
 40
0.0499999
 41
0.0499999
  0
VERTEX
  8
0
 10
55.1505
 20
62.9998
 30
0.0
 40
0.0499999
 41
0.0499999
  0
VERTEX
  8
0
 10
55.1505
 20
68.0007
 30
0.0
 40
0.0499999
 41
0.0499999
  0
VERTEX
  8
0
 10
55.1505
 20
71.9998
 30
0.0
 40
0.0499999
 41
0.0499999
  0
VERTEX
  8
0
 10
51.15
 20
71.9998
 30
0.0
 40
0.0499999
 41
0.0499999
  0
VERTEX
  8
0
 10
40.6495
 20
71.9998
 30
0.0
 40
0.0499999
 41
0.0499999
  0
VERTEX
  8
0
 10
40.6495
 20
70.2497
 30
0.0
 40
0.0499999
 41
0.0499999
  0
VERTEX
  8
0
 10
40.6495
 20
70.2441
 30
0.0
 40
0.0499999
 41
0.0499999
  0
VERTEX
  8
0
 10
40.6439
 20
70.2275
 30
0.0
 40
0.0499999
 41
0.0499999
  0
VERTEX
  8
0
 10
40.6439
 20
70.225
 30
0.0
 40
0.0499999
 41
0.0499999
  0
VERTEX
  8
0
 10
40.6425
 20
70.2236
 30
0.0
 40
0.0499999
 41
0.0499999
  0
VERTEX
  8
0
 10
40.6259
 20
70.2084
 30
0.0
 40
0.0499999
 41
0.0499999
  0
VERTEX
  8
0
 10
40.6245
 20
70.207
 30
0.0
 40
0.0499999
 41
0.0499999
  0
VERTEX
  8
0
 10
40.6217
 20
70.207
 30
0.0
 40
0.0499999
 41
0.0499999
  0
VERTEX
  8
0
 10
40.6054
 20
70.2
 30
0.0
 40
0.0499999
 41
0.0499999
  0
VERTEX
  8
0
 10
40.5998
 20
70.2
 30
0.0
 40
0.0499999
 41
0.0499999
  0
VERTEX
  8
0
 10
24.5994
 20
70.2
 30
0.0
 40
0.0499999
 41
0.0499999
  0
VERTEX
  8
0
 10
24.5925
 20
70.2
 30
0.0
 40
0.0499999
 41
0.0499999
  0
VERTEX
  8
0
 10
24.5759
 20
70.207
 30
0.0
 40
0.0499999
 41
0.0499999
  0
VERTEX
  8
0
 10
24.5746
 20
70.207
 30
0.0
 40
0.0499999
 41
0.0499999
  0
VERTEX
  8
0
 10
24.5718
 20
70.2084
 30
0.0
 40
0.0499999
 41
0.0499999
  0
VERTEX
  8
0
 10
24.5566
 20
70.2236
 30
0.0
 40
0.0499999
 41
0.0499999
  0
VERTEX
  8
0
 10
24.5566
 20
70.225
 30
0.0
 40
0.0499999
 41
0.0499999
  0
VERTEX
  8
0
 10
24.5553
 20
70.2275
 30
0.0
 40
0.0499999
 41
0.0499999
  0
VERTEX
  8
0
 10
24.5497
 20
70.2441
 30
0.0
 40
0.0499999
 41
0.0499999
  0
VERTEX
  8
0
 10
24.5497
 20
70.2497
 30
0.0
 40
0.0499999
 41
0.0499999
  0
VERTEX
  8
0
 10
24.5497
 20
71.9998
 30
0.0
 40
0.0499999
 41
0.0499999
  0
VERTEX
  8
0
 10
14.0505
 20
71.9998
 30
0.0
 40
0.0499999
 41
0.0499999
  0
VERTEX
  8
0
 10
10.05
 20
71.9998
 30
0.0
 40
0.0499999
 41
0.0499999
  0
VERTEX
  8
0
 10
10.05
 20
68.0007
 30
0.0
 40
0.0499999
 41
0.0499999
  0
VERTEX
  8
0
 10
10.05
 20
62.9998
 30
0.0
 40
0.0499999
 41
0.0499999
  0
VERTEX
  8
0
 10
14.0505
 20
62.9998
 30
0.0
 40
0.0499999
 41
0.0499999
  0
VERTEX
  8
0
 10
14.056
 20
62.9998
 30
0.0
 40
0.0499999
 41
0.0499999
  0
VERTEX
  8
0
 10
14.0725
 20
62.9941
 30
0.0
 40
0.0499999
 41
0.0499999
  0
VERTEX
  8
0
 10
14.0753
 20
62.9931
 30
0.0
 40
0.0499999
 41
0.0499999
  0
VERTEX
  8
0
 10
14.0766
 20
62.9931
 30
0.0
 40
0.0499999
 41
0.0499999
  0
VERTEX
  8
0
 10
14.0918
 20
62.9779
 30
0.0
 40
0.0499999
 41
0.0499999
  0
VERTEX
  8
0
 10
14.0932
 20
62.9751
 30
0.0
 40
0.0499999
 41
0.0499999
  0
VERTEX
  8
0
 10
14.0932
 20
62.9737
 30
0.0
 40
0.0499999
 41
0.0499999
  0
VERTEX
  8
0
 10
14.1001
 20
62.9571
 30
0.0
 40
0.0499999
 41
0.0499999
  0
VERTEX
  8
0
 10
14.1001
 20
62.95
 30
0.0
 40
0.0499999
 41
0.0499999
  0
VERTEX
  8
0
 10
14.1001
 20
46.9498
 30
0.0
 40
0.0499999
 41
0.0499999
  0
VERTEX
  8
0
 10
14.1001
 20
46.9441
 30
0.0
 40
0.0499999
 41
0.0499999
  0
VERTEX
  8
0
 10
14.0932
 20
46.9276
 30
0.0
 40
0.0499999
 41
0.0499999
  0
VERTEX
  8
0
 10
14.0932
 20
46.9251
 30
0.0
 40
0.0499999
 41
0.0499999
  0
VERTEX
  8
0
 10
14.0918
 20
46.9237
 30
0.0
 40
0.0499999
 41
0.0499999
  0
VERTEX
  8
0
 10
14.0766
 20
46.9085
 30
0.0
 40
0.0499999
 41
0.0499999
  0
VERTEX
  8
0
 10
14.0753
 20
46.9071
 30
0.0
 40
0.0499999
 41
0.0499999
  0
VERTEX
  8
0
 10
14.0725
 20
46.9057
 30
0.0
 40
0.0499999
 41
0.0499999
  0
VERTEX
  8
0
 10
14.056
 20
46.9
 30
0.0
 40
0.0499999
 41
0.0499999
  0
VERTEX
  8
0
 10
14.0505
 20
46.9
 30
0.0
 40
0.0499999
 41
0.0499999
  0
VERTEX
  8
0
 10
10.05
 20
46.9
 30
0.0
 40
0.0499999
 41
0.0499999
  0
VERTEX
  8
0
 10
10.05
 20
41.9005
 30
0.0
 40
0.0499999
 41
0.0499999
  0
VERTEX
  8
0
 10
14.0505
 20
41.9005
 30
0.0
 40
0.0499999
 41
0.0499999
  0
SEQEND
 8
0
  0
POLYLINE
  8
0
 62
     5
 66
     1
 10
0
 20
0
 30
0.0
 70
     1
 40
0.141732
 41
0.141732
  0
VERTEX
  8
0
 10
39.6505
 20
147.75
 30
0.0
 40
0.0499999
 41
0.0499999
  0
VERTEX
  8
0
 10
39.6505
 20
147.498
 30
0.0
 40
0.0499999
 41
0.0499999
  0
VERTEX
  8
0
 10
39.5774
 20
146.738
 30
0.0
 40
0.0499999
 41
0.0499999
  0
VERTEX
  8
0
 10
39.3622
 20
145.751
 30
0.0
 40
0.0499999
 41
0.0499999
  0
VERTEX
  8
0
 10
39.0095
 20
144.803
 30
0.0
 40
0.0499999
 41
0.0499999
  0
VERTEX
  8
0
 10
38.6595
 20
144.125
 30
0.0
 40
0.0499999
 41
0.0499999
  0
VERTEX
  8
0
 10
38.523
 20
143.911
 30
0.0
 40
0.0499999
 41
0.0499999
  0
VERTEX
  8
0
 10
38.3854
 20
143.699
 30
0.0
 40
0.0499999
 41
0.0499999
  0
VERTEX
  8
0
 10
37.9141
 20
143.1
 30
0.0
 40
0.0499999
 41
0.0499999
  0
VERTEX
  8
0
 10
37.1987
 20
142.384
 30
0.0
 40
0.0499999
 41
0.0499999
  0
VERTEX
  8
0
 10
36.3897
 20
141.78
 30
0.0
 40
0.0499999
 41
0.0499999
  0
VERTEX
  8
0
 10
35.7297
 20
141.398
 30
0.0
 40
0.0499999
 41
0.0499999
  0
VERTEX
  8
0
 10
35.4997
 20
141.292
 30
0.0
 40
0.0499999
 41
0.0499999
  0
VERTEX
  8
0
 10
35.2681
 20
141.187
 30
0.0
 40
0.0499999
 41
0.0499999
  0
VERTEX
  8
0
 10
34.5474
 20
140.938
 30
0.0
 40
0.0499999
 41
0.0499999
  0
VERTEX
  8
0
 10
33.5594
 20
140.722
 30
0.0
 40
0.0499999
 41
0.0499999
  0
VERTEX
  8
0
 10
32.552
 20
140.651
 30
0.0
 40
0.0499999
 41
0.0499999
  0
VERTEX
  8
0
 10
31.7886
 20
140.687
 30
0.0
 40
0.0499999
 41
0.0499999
  0
VERTEX
  8
0
 10
31.5391
 20
140.722
 30
0.0
 40
0.0499999
 41
0.0499999
  0
VERTEX
  8
0
 10
31.2884
 20
140.758
 30
0.0
 40
0.0499999
 41
0.0499999
  0
VERTEX
  8
0
 10
30.547
 20
140.939
 30
0.0
 40
0.0499999
 41
0.0499999
  0
VERTEX
  8
0
 10
29.6003
 20
141.292
 30
0.0
 40
0.0499999
 41
0.0499999
  0
VERTEX
  8
0
 10
28.7128
 20
141.777
 30
0.0
 40
0.0499999
 41
0.0499999
  0
VERTEX
  8
0
 10
28.0913
 20
142.219
 30
0.0
 40
0.0499999
 41
0.0499999
  0
VERTEX
  8
0
 10
27.9011
 20
142.384
 30
0.0
 40
0.0499999
 41
0.0499999
  0
VERTEX
  8
0
 10
27.7096
 20
142.551
 30
0.0
 40
0.0499999
 41
0.0499999
  0
VERTEX
  8
0
 10
27.1818
 20
143.104
 30
0.0
 40
0.0499999
 41
0.0499999
  0
VERTEX
  8
0
 10
26.5768
 20
143.913
 30
0.0
 40
0.0499999
 41
0.0499999
  0
VERTEX
  8
0
 10
26.0918
 20
144.799
 30
0.0
 40
0.0499999
 41
0.0499999
  0
VERTEX
  8
0
 10
25.8079
 20
145.507
 30
0.0
 40
0.0499999
 41
0.0499999
  0
VERTEX
  8
0
 10
25.7376
 20
145.749
 30
0.0
 40
0.0499999
 41
0.0499999
  0
VERTEX
  8
0
 10
25.666
 20
145.994
 30
0.0
 40
0.0499999
 41
0.0499999
  0
VERTEX
  8
0
 10
25.5213
 20
146.743
 30
0.0
 40
0.0499999
 41
0.0499999
  0
VERTEX
  8
0
 10
25.4496
 20
147.75
 30
0.0
 40
0.0499999
 41
0.0499999
  0
VERTEX
  8
0
 10
25.5213
 20
148.758
 30
0.0
 40
0.0499999
 41
0.0499999
  0
VERTEX
  8
0
 10
25.666
 20
149.508
 30
0.0
 40
0.0499999
 41
0.0499999
  0
VERTEX
  8
0
 10
25.7376
 20
149.75
 30
0.0
 40
0.0499999
 41
0.0499999
  0
VERTEX
  8
0
 10
25.8079
 20
149.994
 30
0.0
 40
0.0499999
 41
0.0499999
  0
VERTEX
  8
0
 10
26.0918
 20
150.702
 30
0.0
 40
0.0499999
 41
0.0499999
  0
VERTEX
  8
0
 10
26.5768
 20
151.59
 30
0.0
 40
0.0499999
 41
0.0499999
  0
VERTEX
  8
0
 10
27.1818
 20
152.399
 30
0.0
 40
0.0499999
 41
0.0499999
  0
VERTEX
  8
0
 10
27.7096
 20
152.95
 30
0.0
 40
0.0499999
 41
0.0499999
  0
VERTEX
  8
0
 10
27.9011
 20
153.115
 30
0.0
 40
0.0499999
 41
0.0499999
  0
VERTEX
  8
0
 10
28.0913
 20
153.282
 30
0.0
 40
0.0499999
 41
0.0499999
  0
VERTEX
  8
0
 10
28.7128
 20
153.724
 30
0.0
 40
0.0499999
 41
0.0499999
  0
VERTEX
  8
0
 10
29.6003
 20
154.209
 30
0.0
 40
0.0499999
 41
0.0499999
  0
VERTEX
  8
0
 10
30.547
 20
154.562
 30
0.0
 40
0.0499999
 41
0.0499999
  0
VERTEX
  8
0
 10
31.2884
 20
154.741
 30
0.0
 40
0.0499999
 41
0.0499999
  0
VERTEX
  8
0
 10
31.5391
 20
154.777
 30
0.0
 40
0.0499999
 41
0.0499999
  0
VERTEX
  8
0
 10
31.7886
 20
154.813
 30
0.0
 40
0.0499999
 41
0.0499999
  0
VERTEX
  8
0
 10
32.552
 20
154.85
 30
0.0
 40
0.0499999
 41
0.0499999
  0
VERTEX
  8
0
 10
33.5594
 20
154.778
 30
0.0
 40
0.0499999
 41
0.0499999
  0
VERTEX
  8
0
 10
34.5474
 20
154.564
 30
0.0
 40
0.0499999
 41
0.0499999
  0
VERTEX
  8
0
 10
35.2681
 20
154.314
 30
0.0
 40
0.0499999
 41
0.0499999
  0
VERTEX
  8
0
 10
35.4997
 20
154.208
 30
0.0
 40
0.0499999
 41
0.0499999
  0
VERTEX
  8
0
 10
35.7283
 20
154.103
 30
0.0
 40
0.0499999
 41
0.0499999
  0
VERTEX
  8
0
 10
36.3897
 20
153.722
 30
0.0
 40
0.0499999
 41
0.0499999
  0
VERTEX
  8
0
 10
37.1987
 20
153.116
 30
0.0
 40
0.0499999
 41
0.0499999
  0
VERTEX
  8
0
 10
37.9141
 20
152.401
 30
0.0
 40
0.0499999
 41
0.0499999
  0
VERTEX
  8
0
 10
38.3854
 20
151.802
 30
0.0
 40
0.0499999
 41
0.0499999
  0
VERTEX
  8
0
 10
38.523
 20
151.588
 30
0.0
 40
0.0499999
 41
0.0499999
  0
VERTEX
  8
0
 10
38.6595
 20
151.376
 30
0.0
 40
0.0499999
 41
0.0499999
  0
VERTEX
  8
0
 10
39.0095
 20
150.698
 30
0.0
 40
0.0499999
 41
0.0499999
  0
VERTEX
  8
0
 10
39.3622
 20
149.75
 30
0.0
 40
0.0499999
 41
0.0499999
  0
VERTEX
  8
0
 10
39.5774
 20
148.763
 30
0.0
 40
0.0499999
 41
0.0499999
  0
VERTEX
  8
0
 10
39.6505
 20
148.004
 30
0.0
 40
0.0499999
 41
0.0499999
  0
VERTEX
  8
0
 10
39.6505
 20
147.75
 30
0.0
 40
0.0499999
 41
0.0499999
  0
SEQEND
 8
0
  0
POLYLINE
  8
0
 62
     0
 66
     1
 10
0
 20
0
 30
0.0
 70
     1
 40
0.141732
 41
0.141732
  0
VERTEX
  8
0
 10
14.0505
 20
77.7998
 30
0.0
 40
0.0499999
 41
0.0499999
  0
VERTEX
  8
0
 10
24.5497
 20
77.7998
 30
0.0
 40
0.0499999
 41
0.0499999
  0
VERTEX
  8
0
 10
24.5553
 20
77.7998
 30
0.0
 40
0.0499999
 41
0.0499999
  0
VERTEX
  8
0
 10
24.5718
 20
77.7946
 30
0.0
 40
0.0499999
 41
0.0499999
  0
VERTEX
  8
0
 10
24.5746
 20
77.7931
 30
0.0
 40
0.0499999
 41
0.0499999
  0
VERTEX
  8
0
 10
24.5759
 20
77.7931
 30
0.0
 40
0.0499999
 41
0.0499999
  0
VERTEX
  8
0
 10
24.5925
 20
77.778
 30
0.0
 40
0.0499999
 41
0.0499999
  0
VERTEX
  8
0
 10
24.5938
 20
77.7752
 30
0.0
 40
0.0499999
 41
0.0499999
  0
VERTEX
  8
0
 10
24.5938
 20
77.7737
 30
0.0
 40
0.0499999
 41
0.0499999
  0
VERTEX
  8
0
 10
24.5994
 20
77.7572
 30
0.0
 40
0.0499999
 41
0.0499999
  0
VERTEX
  8
0
 10
24.5994
 20
77.7505
 30
0.0
 40
0.0499999
 41
0.0499999
  0
VERTEX
  8
0
 10
24.5994
 20
73.75
 30
0.0
 40
0.0499999
 41
0.0499999
  0
VERTEX
  8
0
 10
40.5998
 20
73.75
 30
0.0
 40
0.0499999
 41
0.0499999
  0
VERTEX
  8
0
 10
40.5998
 20
77.7505
 30
0.0
 40
0.0499999
 41
0.0499999
  0
VERTEX
  8
0
 10
40.5998
 20
77.7572
 30
0.0
 40
0.0499999
 41
0.0499999
  0
VERTEX
  8
0
 10
40.6054
 20
77.7737
 30
0.0
 40
0.0499999
 41
0.0499999
  0
VERTEX
  8
0
 10
40.6065
 20
77.7752
 30
0.0
 40
0.0499999
 41
0.0499999
  0
VERTEX
  8
0
 10
40.6065
 20
77.778
 30
0.0
 40
0.0499999
 41
0.0499999
  0
VERTEX
  8
0
 10
40.6217
 20
77.7931
 30
0.0
 40
0.0499999
 41
0.0499999
  0
VERTEX
  8
0
 10
40.6245
 20
77.7931
 30
0.0
 40
0.0499999
 41
0.0499999
  0
VERTEX
  8
0
 10
40.6259
 20
77.7946
 30
0.0
 40
0.0499999
 41
0.0499999
  0
VERTEX
  8
0
 10
40.6425
 20
77.7998
 30
0.0
 40
0.0499999
 41
0.0499999
  0
VERTEX
  8
0
 10
40.6495
 20
77.7998
 30
0.0
 40
0.0499999
 41
0.0499999
  0
VERTEX
  8
0
 10
51.15
 20
77.7998
 30
0.0
 40
0.0499999
 41
0.0499999
  0
VERTEX
  8
0
 10
51.15
 20
93.8004
 30
0.0
 40
0.0499999
 41
0.0499999
  0
VERTEX
  8
0
 10
51.15
 20
93.8071
 30
0.0
 40
0.0499999
 41
0.0499999
  0
VERTEX
  8
0
 10
51.1556
 20
93.8237
 30
0.0
 40
0.0499999
 41
0.0499999
  0
VERTEX
  8
0
 10
51.157
 20
93.8251
 30
0.0
 40
0.0499999
 41
0.0499999
  0
VERTEX
  8
0
 10
51.157
 20
93.828
 30
0.0
 40
0.0499999
 41
0.0499999
  0
VERTEX
  8
0
 10
51.1722
 20
93.8431
 30
0.0
 40
0.0499999
 41
0.0499999
  0
VERTEX
  8
0
 10
51.175
 20
93.8431
 30
0.0
 40
0.0499999
 41
0.0499999
  0
VERTEX
  8
0
 10
51.1761
 20
93.8445
 30
0.0
 40
0.0499999
 41
0.0499999
  0
VERTEX
  8
0
 10
51.1926
 20
93.8498
 30
0.0
 40
0.0499999
 41
0.0499999
  0
VERTEX
  8
0
 10
51.1997
 20
93.8498
 30
0.0
 40
0.0499999
 41
0.0499999
  0
VERTEX
  8
0
 10
55.2002
 20
93.8498
 30
0.0
 40
0.0499999
 41
0.0499999
  0
VERTEX
  8
0
 10
55.2002
 20
109.85
 30
0.0
 40
0.0499999
 41
0.0499999
  0
VERTEX
  8
0
 10
51.1997
 20
109.85
 30
0.0
 40
0.0499999
 41
0.0499999
  0
VERTEX
  8
0
 10
51.1926
 20
109.85
 30
0.0
 40
0.0499999
 41
0.0499999
  0
VERTEX
  8
0
 10
51.1761
 20
109.856
 30
0.0
 40
0.0499999
 41
0.0499999
  0
VERTEX
  8
0
 10
51.175
 20
109.857
 30
0.0
 40
0.0499999
 41
0.0499999
  0
VERTEX
  8
0
 10
51.1722
 20
109.859
 30
0.0
 40
0.0499999
 41
0.0499999
  0
VERTEX
  8
0
 10
51.157
 20
109.874
 30
0.0
 40
0.0499999
 41
0.0499999
  0
VERTEX
  8
0
 10
51.157
 20
109.875
 30
0.0
 40
0.0499999
 41
0.0499999
  0
VERTEX
  8
0
 10
51.1556
 20
109.878
 30
0.0
 40
0.0499999
 41
0.0499999
  0
VERTEX
  8
0
 10
51.15
 20
109.895
 30
0.0
 40
0.0499999
 41
0.0499999
  0
VERTEX
  8
0
 10
51.15
 20
109.9
 30
0.0
 40
0.0499999
 41
0.0499999
  0
VERTEX
  8
0
 10
51.15
 20
125.9
 30
0.0
 40
0.0499999
 41
0.0499999
  0
VERTEX
  8
0
 10
51.15
 20
125.907
 30
0.0
 40
0.0499999
 41
0.0499999
  0
VERTEX
  8
0
 10
51.1556
 20
125.924
 30
0.0
 40
0.0499999
 41
0.0499999
  0
VERTEX
  8
0
 10
51.157
 20
125.925
 30
0.0
 40
0.0499999
 41
0.0499999
  0
VERTEX
  8
0
 10
51.157
 20
125.928
 30
0.0
 40
0.0499999
 41
0.0499999
  0
VERTEX
  8
0
 10
51.1722
 20
125.943
 30
0.0
 40
0.0499999
 41
0.0499999
  0
VERTEX
  8
0
 10
51.175
 20
125.943
 30
0.0
 40
0.0499999
 41
0.0499999
  0
VERTEX
  8
0
 10
51.1761
 20
125.944
 30
0.0
 40
0.0499999
 41
0.0499999
  0
VERTEX
  8
0
 10
51.1926
 20
125.95
 30
0.0
 40
0.0499999
 41
0.0499999
  0
VERTEX
  8
0
 10
51.1997
 20
125.95
 30
0.0
 40
0.0499999
 41
0.0499999
  0
VERTEX
  8
0
 10
55.2002
 20
125.95
 30
0.0
 40
0.0499999
 41
0.0499999
  0
VERTEX
  8
0
 10
55.2002
 20
141.95
 30
0.0
 40
0.0499999
 41
0.0499999
  0
VERTEX
  8
0
 10
51.1997
 20
141.95
 30
0.0
 40
0.0499999
 41
0.0499999
  0
VERTEX
  8
0
 10
51.1926
 20
141.95
 30
0.0
 40
0.0499999
 41
0.0499999
  0
VERTEX
  8
0
 10
51.1761
 20
141.957
 30
0.0
 40
0.0499999
 41
0.0499999
  0
VERTEX
  8
0
 10
51.175
 20
141.957
 30
0.0
 40
0.0499999
 41
0.0499999
  0
VERTEX
  8
0
 10
51.1722
 20
141.958
 30
0.0
 40
0.0499999
 41
0.0499999
  0
VERTEX
  8
0
 10
51.157
 20
141.974
 30
0.0
 40
0.0499999
 41
0.0499999
  0
VERTEX
  8
0
 10
51.157
 20
141.975
 30
0.0
 40
0.0499999
 41
0.0499999
  0
VERTEX
  8
0
 10
51.1556
 20
141.978
 30
0.0
 40
0.0499999
 41
0.0499999
  0
VERTEX
  8
0
 10
51.15
 20
141.994
 30
0.0
 40
0.0499999
 41
0.0499999
  0
VERTEX
  8
0
 10
51.15
 20
142
 30
0.0
 40
0.0499999
 41
0.0499999
  0
VERTEX
  8
0
 10
51.15
 20
158
 30
0.0
 40
0.0499999
 41
0.0499999
  0
VERTEX
  8
0
 10
51.15
 20
158.007
 30
0.0
 40
0.0499999
 41
0.0499999
  0
VERTEX
  8
0
 10
51.1556
 20
158.024
 30
0.0
 40
0.0499999
 41
0.0499999
  0
VERTEX
  8
0
 10
51.157
 20
158.025
 30
0.0
 40
0.0499999
 41
0.0499999
  0
VERTEX
  8
0
 10
51.157
 20
158.028
 30
0.0
 40
0.0499999
 41
0.0499999
  0
VERTEX
  8
0
 10
51.1722
 20
158.043
 30
0.0
 40
0.0499999
 41
0.0499999
  0
VERTEX
  8
0
 10
51.175
 20
158.043
 30
0.0
 40
0.0499999
 41
0.0499999
  0
VERTEX
  8
0
 10
51.1761
 20
158.044
 30
0.0
 40
0.0499999
 41
0.0499999
  0
VERTEX
  8
0
 10
51.1926
 20
158.05
 30
0.0
 40
0.0499999
 41
0.0499999
  0
VERTEX
  8
0
 10
51.1997
 20
158.05
 30
0.0
 40
0.0499999
 41
0.0499999
  0
VERTEX
  8
0
 10
55.2002
 20
158.05
 30
0.0
 40
0.0499999
 41
0.0499999
  0
VERTEX
  8
0
 10
55.2002
 20
174.05
 30
0.0
 40
0.0499999
 41
0.0499999
  0
VERTEX
  8
0
 10
51.1997
 20
174.05
 30
0.0
 40
0.0499999
 41
0.0499999
  0
VERTEX
  8
0
 10
51.1926
 20
174.05
 30
0.0
 40
0.0499999
 41
0.0499999
  0
VERTEX
  8
0
 10
51.1761
 20
174.057
 30
0.0
 40
0.0499999
 41
0.0499999
  0
VERTEX
  8
0
 10
51.175
 20
174.057
 30
0.0
 40
0.0499999
 41
0.0499999
  0
VERTEX
  8
0
 10
51.1722
 20
174.059
 30
0.0
 40
0.0499999
 41
0.0499999
  0
VERTEX
  8
0
 10
51.157
 20
174.074
 30
0.0
 40
0.0499999
 41
0.0499999
  0
VERTEX
  8
0
 10
51.157
 20
174.075
 30
0.0
 40
0.0499999
 41
0.0499999
  0
VERTEX
  8
0
 10
51.1556
 20
174.078
 30
0.0
 40
0.0499999
 41
0.0499999
  0
VERTEX
  8
0
 10
51.15
 20
174.094
 30
0.0
 40
0.0499999
 41
0.0499999
  0
VERTEX
  8
0
 10
51.15
 20
174.1
 30
0.0
 40
0.0499999
 41
0.0499999
  0
VERTEX
  8
0
 10
51.15
 20
190.1
 30
0.0
 40
0.0499999
 41
0.0499999
  0
VERTEX
  8
0
 10
40.6495
 20
190.1
 30
0.0
 40
0.0499999
 41
0.0499999
  0
VERTEX
  8
0
 10
40.6425
 20
190.1
 30
0.0
 40
0.0499999
 41
0.0499999
  0
VERTEX
  8
0
 10
40.6259
 20
190.106
 30
0.0
 40
0.0499999
 41
0.0499999
  0
VERTEX
  8
0
 10
40.6245
 20
190.107
 30
0.0
 40
0.0499999
 41
0.0499999
  0
VERTEX
  8
0
 10
40.6217
 20
190.109
 30
0.0
 40
0.0499999
 41
0.0499999
  0
VERTEX
  8
0
 10
40.6065
 20
190.124
 30
0.0
 40
0.0499999
 41
0.0499999
  0
VERTEX
  8
0
 10
40.6065
 20
190.125
 30
0.0
 40
0.0499999
 41
0.0499999
  0
VERTEX
  8
0
 10
40.6054
 20
190.128
 30
0.0
 40
0.0499999
 41
0.0499999
  0
VERTEX
  8
0
 10
40.5998
 20
190.144
 30
0.0
 40
0.0499999
 41
0.0499999
  0
VERTEX
  8
0
 10
40.5998
 20
190.15
 30
0.0
 40
0.0499999
 41
0.0499999
  0
VERTEX
  8
0
 10
40.5998
 20
194.151
 30
0.0
 40
0.0499999
 41
0.0499999
  0
VERTEX
  8
0
 10
24.5994
 20
194.151
 30
0.0
 40
0.0499999
 41
0.0499999
  0
VERTEX
  8
0
 10
24.5994
 20
190.15
 30
0.0
 40
0.0499999
 41
0.0499999
  0
VERTEX
  8
0
 10
24.5994
 20
190.144
 30
0.0
 40
0.0499999
 41
0.0499999
  0
VERTEX
  8
0
 10
24.5938
 20
190.128
 30
0.0
 40
0.0499999
 41
0.0499999
  0
VERTEX
  8
0
 10
24.5938
 20
190.125
 30
0.0
 40
0.0499999
 41
0.0499999
  0
VERTEX
  8
0
 10
24.5925
 20
190.124
 30
0.0
 40
0.0499999
 41
0.0499999
  0
VERTEX
  8
0
 10
24.5759
 20
190.109
 30
0.0
 40
0.0499999
 41
0.0499999
  0
VERTEX
  8
0
 10
24.5746
 20
190.107
 30
0.0
 40
0.0499999
 41
0.0499999
  0
VERTEX
  8
0
 10
24.5718
 20
190.106
 30
0.0
 40
0.0499999
 41
0.0499999
  0
VERTEX
  8
0
 10
24.5553
 20
190.1
 30
0.0
 40
0.0499999
 41
0.0499999
  0
VERTEX
  8
0
 10
24.5497
 20
190.1
 30
0.0
 40
0.0499999
 41
0.0499999
  0
VERTEX
  8
0
 10
14.0505
 20
190.1
 30
0.0
 40
0.0499999
 41
0.0499999
  0
VERTEX
  8
0
 10
14.0505
 20
174.1
 30
0.0
 40
0.0499999
 41
0.0499999
  0
VERTEX
  8
0
 10
14.0505
 20
174.094
 30
0.0
 40
0.0499999
 41
0.0499999
  0
VERTEX
  8
0
 10
14.0436
 20
174.078
 30
0.0
 40
0.0499999
 41
0.0499999
  0
VERTEX
  8
0
 10
14.0436
 20
174.075
 30
0.0
 40
0.0499999
 41
0.0499999
  0
VERTEX
  8
0
 10
14.0422
 20
174.074
 30
0.0
 40
0.0499999
 41
0.0499999
  0
VERTEX
  8
0
 10
14.027
 20
174.059
 30
0.0
 40
0.0499999
 41
0.0499999
  0
VERTEX
  8
0
 10
14.0257
 20
174.057
 30
0.0
 40
0.0499999
 41
0.0499999
  0
VERTEX
  8
0
 10
14.0229
 20
174.057
 30
0.0
 40
0.0499999
 41
0.0499999
  0
VERTEX
  8
0
 10
14.005
 20
174.05
 30
0.0
 40
0.0499999
 41
0.0499999
  0
VERTEX
  8
0
 10
13.9995
 20
174.05
 30
0.0
 40
0.0499999
 41
0.0499999
  0
VERTEX
  8
0
 10
10.0004
 20
174.05
 30
0.0
 40
0.0499999
 41
0.0499999
  0
VERTEX
  8
0
 10
10.0004
 20
158.05
 30
0.0
 40
0.0499999
 41
0.0499999
  0
VERTEX
  8
0
 10
13.9995
 20
158.05
 30
0.0
 40
0.0499999
 41
0.0499999
  0
VERTEX
  8
0
 10
14.005
 20
158.05
 30
0.0
 40
0.0499999
 41
0.0499999
  0
VERTEX
  8
0
 10
14.0229
 20
158.044
 30
0.0
 40
0.0499999
 41
0.0499999
  0
VERTEX
  8
0
 10
14.0257
 20
158.043
 30
0.0
 40
0.0499999
 41
0.0499999
  0
VERTEX
  8
0
 10
14.027
 20
158.043
 30
0.0
 40
0.0499999
 41
0.0499999
  0
VERTEX
  8
0
 10
14.0422
 20
158.028
 30
0.0
 40
0.0499999
 41
0.0499999
  0
VERTEX
  8
0
 10
14.0436
 20
158.025
 30
0.0
 40
0.0499999
 41
0.0499999
  0
VERTEX
  8
0
 10
14.0436
 20
158.024
 30
0.0
 40
0.0499999
 41
0.0499999
  0
VERTEX
  8
0
 10
14.0505
 20
158.007
 30
0.0
 40
0.0499999
 41
0.0499999
  0
VERTEX
  8
0
 10
14.0505
 20
158
 30
0.0
 40
0.0499999
 41
0.0499999
  0
VERTEX
  8
0
 10
14.0505
 20
142
 30
0.0
 40
0.0499999
 41
0.0499999
  0
VERTEX
  8
0
 10
14.0505
 20
141.994
 30
0.0
 40
0.0499999
 41
0.0499999
  0
VERTEX
  8
0
 10
14.0436
 20
141.978
 30
0.0
 40
0.0499999
 41
0.0499999
  0
VERTEX
  8
0
 10
14.0436
 20
141.975
 30
0.0
 40
0.0499999
 41
0.0499999
  0
VERTEX
  8
0
 10
14.0422
 20
141.974
 30
0.0
 40
0.0499999
 41
0.0499999
  0
VERTEX
  8
0
 10
14.027
 20
141.958
 30
0.0
 40
0.0499999
 41
0.0499999
  0
VERTEX
  8
0
 10
14.0257
 20
141.957
 30
0.0
 40
0.0499999
 41
0.0499999
  0
VERTEX
  8
0
 10
14.0229
 20
141.957
 30
0.0
 40
0.0499999
 41
0.0499999
  0
VERTEX
  8
0
 10
14.005
 20
141.95
 30
0.0
 40
0.0499999
 41
0.0499999
  0
VERTEX
  8
0
 10
13.9995
 20
141.95
 30
0.0
 40
0.0499999
 41
0.0499999
  0
VERTEX
  8
0
 10
10.0004
 20
141.95
 30
0.0
 40
0.0499999
 41
0.0499999
  0
VERTEX
  8
0
 10
10.0004
 20
125.95
 30
0.0
 40
0.0499999
 41
0.0499999
  0
VERTEX
  8
0
 10
13.9995
 20
125.95
 30
0.0
 40
0.0499999
 41
0.0499999
  0
VERTEX
  8
0
 10
14.005
 20
125.95
 30
0.0
 40
0.0499999
 41
0.0499999
  0
VERTEX
  8
0
 10
14.0229
 20
125.944
 30
0.0
 40
0.0499999
 41
0.0499999
  0
VERTEX
  8
0
 10
14.0257
 20
125.943
 30
0.0
 40
0.0499999
 41
0.0499999
  0
VERTEX
  8
0
 10
14.027
 20
125.943
 30
0.0
 40
0.0499999
 41
0.0499999
  0
VERTEX
  8
0
 10
14.0422
 20
125.928
 30
0.0
 40
0.0499999
 41
0.0499999
  0
VERTEX
  8
0
 10
14.0436
 20
125.925
 30
0.0
 40
0.0499999
 41
0.0499999
  0
VERTEX
  8
0
 10
14.0436
 20
125.924
 30
0.0
 40
0.0499999
 41
0.0499999
  0
VERTEX
  8
0
 10
14.0505
 20
125.907
 30
0.0
 40
0.0499999
 41
0.0499999
  0
VERTEX
  8
0
 10
14.0505
 20
125.9
 30
0.0
 40
0.0499999
 41
0.0499999
  0
VERTEX
  8
0
 10
14.0505
 20
109.9
 30
0.0
 40
0.0499999
 41
0.0499999
  0
VERTEX
  8
0
 10
14.0505
 20
109.895
 30
0.0
 40
0.0499999
 41
0.0499999
  0
VERTEX
  8
0
 10
14.0436
 20
109.878
 30
0.0
 40
0.0499999
 41
0.0499999
  0
VERTEX
  8
0
 10
14.0436
 20
109.875
 30
0.0
 40
0.0499999
 41
0.0499999
  0
VERTEX
  8
0
 10
14.0422
 20
109.874
 30
0.0
 40
0.0499999
 41
0.0499999
  0
VERTEX
  8
0
 10
14.027
 20
109.859
 30
0.0
 40
0.0499999
 41
0.0499999
  0
VERTEX
  8
0
 10
14.0257
 20
109.857
 30
0.0
 40
0.0499999
 41
0.0499999
  0
VERTEX
  8
0
 10
14.0229
 20
109.856
 30
0.0
 40
0.0499999
 41
0.0499999
  0
VERTEX
  8
0
 10
14.005
 20
109.85
 30
0.0
 40
0.0499999
 41
0.0499999
  0
VERTEX
  8
0
 10
13.9995
 20
109.85
 30
0.0
 40
0.0499999
 41
0.0499999
  0
VERTEX
  8
0
 10
10.0004
 20
109.85
 30
0.0
 40
0.0499999
 41
0.0499999
  0
VERTEX
  8
0
 10
10.0004
 20
93.8498
 30
0.0
 40
0.0499999
 41
0.0499999
  0
VERTEX
  8
0
 10
13.9995
 20
93.8498
 30
0.0
 40
0.0499999
 41
0.0499999
  0
VERTEX
  8
0
 10
14.005
 20
93.8498
 30
0.0
 40
0.0499999
 41
0.0499999
  0
VERTEX
  8
0
 10
14.0229
 20
93.8445
 30
0.0
 40
0.0499999
 41
0.0499999
  0
VERTEX
  8
0
 10
14.0257
 20
93.8431
 30
0.0
 40
0.0499999
 41
0.0499999
  0
VERTEX
  8
0
 10
14.027
 20
93.8431
 30
0.0
 40
0.0499999
 41
0.0499999
  0
VERTEX
  8
0
 10
14.0422
 20
93.828
 30
0.0
 40
0.0499999
 41
0.0499999
  0
VERTEX
  8
0
 10
14.0436
 20
93.8251
 30
0.0
 40
0.0499999
 41
0.0499999
  0
VERTEX
  8
0
 10
14.0436
 20
93.8237
 30
0.0
 40
0.0499999
 41
0.0499999
  0
VERTEX
  8
0
 10
14.0505
 20
93.8071
 30
0.0
 40
0.0499999
 41
0.0499999
  0
VERTEX
  8
0
 10
14.0505
 20
93.8004
 30
0.0
 40
0.0499999
 41
0.0499999
  0
VERTEX
  8
0
 10
14.0505
 20
77.7998
 30
0.0
 40
0.0499999
 41
0.0499999
  0
SEQEND
 8
0
  0
POLYLINE
  8
0
 62
     5
 66
     1
 10
0
 20
0
 30
0.0
 70
     1
 40
0.141732
 41
0.141732
  0
VERTEX
  8
0
 10
165.225
 20
32.4005
 30
0.0
 40
0.0499999
 41
0.0499999
  0
VERTEX
  8
0
 10
157.15
 20
32.4005
 30
0.0
 40
0.0499999
 41
0.0499999
  0
VERTEX
  8
0
 10
157.143
 20
32.4005
 30
0.0
 40
0.0499999
 41
0.0499999
  0
VERTEX
  8
0
 10
157.127
 20
32.406
 30
0.0
 40
0.0499999
 41
0.0499999
  0
VERTEX
  8
0
 10
157.125
 20
32.4073
 30
0.0
 40
0.0499999
 41
0.0499999
  0
VERTEX
  8
0
 10
157.123
 20
32.4087
 30
0.0
 40
0.0499999
 41
0.0499999
  0
VERTEX
  8
0
 10
157.107
 20
32.4239
 30
0.0
 40
0.0499999
 41
0.0499999
  0
VERTEX
  8
0
 10
157.107
 20
32.4253
 30
0.0
 40
0.0499999
 41
0.0499999
  0
VERTEX
  8
0
 10
157.106
 20
32.428
 30
0.0
 40
0.0499999
 41
0.0499999
  0
VERTEX
  8
0
 10
157.1
 20
32.4446
 30
0.0
 40
0.0499999
 41
0.0499999
  0
VERTEX
  8
0
 10
157.1
 20
32.4501
 30
0.0
 40
0.0499999
 41
0.0499999
  0
VERTEX
  8
0
 10
157.1
 20
40.4495
 30
0.0
 40
0.0499999
 41
0.0499999
  0
VERTEX
  8
0
 10
157.1
 20
40.4566
 30
0.0
 40
0.0499999
 41
0.0499999
  0
VERTEX
  8
0
 10
157.106
 20
40.4731
 30
0.0
 40
0.0499999
 41
0.0499999
  0
VERTEX
  8
0
 10
157.107
 20
40.4742
 30
0.0
 40
0.0499999
 41
0.0499999
  0
VERTEX
  8
0
 10
157.107
 20
40.477
 30
0.0
 40
0.0499999
 41
0.0499999
  0
VERTEX
  8
0
 10
157.123
 20
40.4936
 30
0.0
 40
0.0499999
 41
0.0499999
  0
VERTEX
  8
0
 10
157.125
 20
40.4936
 30
0.0
 40
0.0499999
 41
0.0499999
  0
VERTEX
  8
0
 10
157.127
 20
40.495
 30
0.0
 40
0.0499999
 41
0.0499999
  0
VERTEX
  8
0
 10
157.143
 20
40.5007
 30
0.0
 40
0.0499999
 41
0.0499999
  0
VERTEX
  8
0
 10
157.15
 20
40.5007
 30
0.0
 40
0.0499999
 41
0.0499999
  0
VERTEX
  8
0
 10
173.299
 20
40.5007
 30
0.0
 40
0.0499999
 41
0.0499999
  0
VERTEX
  8
0
 10
173.305
 20
40.5007
 30
0.0
 40
0.0499999
 41
0.0499999
  0
VERTEX
  8
0
 10
173.323
 20
40.495
 30
0.0
 40
0.0499999
 41
0.0499999
  0
VERTEX
  8
0
 10
173.325
 20
40.4936
 30
0.0
 40
0.0499999
 41
0.0499999
  0
VERTEX
  8
0
 10
173.327
 20
40.4936
 30
0.0
 40
0.0499999
 41
0.0499999
  0
VERTEX
  8
0
 10
173.342
 20
40.477
 30
0.0
 40
0.0499999
 41
0.0499999
  0
VERTEX
  8
0
 10
173.343
 20
40.4742
 30
0.0
 40
0.0499999
 41
0.0499999
  0
VERTEX
  8
0
 10
173.343
 20
40.4731
 30
0.0
 40
0.0499999
 41
0.0499999
  0
VERTEX
  8
0
 10
173.35
 20
40.4566
 30
0.0
 40
0.0499999
 41
0.0499999
  0
VERTEX
  8
0
 10
173.35
 20
40.4495
 30
0.0
 40
0.0499999
 41
0.0499999
  0
VERTEX
  8
0
 10
173.35
 20
32.4501
 30
0.0
 40
0.0499999
 41
0.0499999
  0
VERTEX
  8
0
 10
173.35
 20
32.4446
 30
0.0
 40
0.0499999
 41
0.0499999
  0
VERTEX
  8
0
 10
173.343
 20
32.428
 30
0.0
 40
0.0499999
 41
0.0499999
  0
VERTEX
  8
0
 10
173.343
 20
32.4253
 30
0.0
 40
0.0499999
 41
0.0499999
  0
VERTEX
  8
0
 10
173.342
 20
32.4239
 30
0.0
 40
0.0499999
 41
0.0499999
  0
VERTEX
  8
0
 10
173.327
 20
32.4087
 30
0.0
 40
0.0499999
 41
0.0499999
  0
VERTEX
  8
0
 10
173.325
 20
32.4073
 30
0.0
 40
0.0499999
 41
0.0499999
  0
VERTEX
  8
0
 10
173.323
 20
32.406
 30
0.0
 40
0.0499999
 41
0.0499999
  0
VERTEX
  8
0
 10
173.305
 20
32.4005
 30
0.0
 40
0.0499999
 41
0.0499999
  0
VERTEX
  8
0
 10
173.299
 20
32.4005
 30
0.0
 40
0.0499999
 41
0.0499999
  0
VERTEX
  8
0
 10
165.225
 20
32.4005
 30
0.0
 40
0.0499999
 41
0.0499999
  0
SEQEND
 8
0
  0
POLYLINE
  8
0
 62
     5
 66
     1
 10
0
 20
0
 30
0.0
 70
     1
 40
0.141732
 41
0.141732
  0
VERTEX
  8
0
 10
88.9497
 20
22.1492
 30
0.0
 40
0.0499999
 41
0.0499999
  0
VERTEX
  8
0
 10
88.2001
 20
22.1492
 30
0.0
 40
0.0499999
 41
0.0499999
  0
VERTEX
  8
0
 10
88.193
 20
22.1492
 30
0.0
 40
0.0499999
 41
0.0499999
  0
VERTEX
  8
0
 10
88.1765
 20
22.1561
 30
0.0
 40
0.0499999
 41
0.0499999
  0
VERTEX
  8
0
 10
88.175
 20
22.1561
 30
0.0
 40
0.0499999
 41
0.0499999
  0
VERTEX
  8
0
 10
88.1726
 20
22.1575
 30
0.0
 40
0.0499999
 41
0.0499999
  0
VERTEX
  8
0
 10
88.1574
 20
22.174
 30
0.0
 40
0.0499999
 41
0.0499999
  0
VERTEX
  8
0
 10
88.1574
 20
22.1754
 30
0.0
 40
0.0499999
 41
0.0499999
  0
VERTEX
  8
0
 10
88.156
 20
22.1782
 30
0.0
 40
0.0499999
 41
0.0499999
  0
VERTEX
  8
0
 10
88.1503
 20
22.1947
 30
0.0
 40
0.0499999
 41
0.0499999
  0
VERTEX
  8
0
 10
88.1503
 20
22.2002
 30
0.0
 40
0.0499999
 41
0.0499999
  0
VERTEX
  8
0
 10
88.1503
 20
27.6999
 30
0.0
 40
0.0499999
 41
0.0499999
  0
VERTEX
  8
0
 10
88.1503
 20
27.7068
 30
0.0
 40
0.0499999
 41
0.0499999
  0
VERTEX
  8
0
 10
88.156
 20
27.7234
 30
0.0
 40
0.0499999
 41
0.0499999
  0
VERTEX
  8
0
 10
88.1574
 20
27.7247
 30
0.0
 40
0.0499999
 41
0.0499999
  0
VERTEX
  8
0
 10
88.1574
 20
27.7275
 30
0.0
 40
0.0499999
 41
0.0499999
  0
VERTEX
  8
0
 10
88.1726
 20
27.7427
 30
0.0
 40
0.0499999
 41
0.0499999
  0
VERTEX
  8
0
 10
88.175
 20
27.7427
 30
0.0
 40
0.0499999
 41
0.0499999
  0
VERTEX
  8
0
 10
88.1765
 20
27.744
 30
0.0
 40
0.0499999
 41
0.0499999
  0
VERTEX
  8
0
 10
88.193
 20
27.7496
 30
0.0
 40
0.0499999
 41
0.0499999
  0
VERTEX
  8
0
 10
88.2001
 20
27.7496
 30
0.0
 40
0.0499999
 41
0.0499999
  0
VERTEX
  8
0
 10
89.7008
 20
27.7496
 30
0.0
 40
0.0499999
 41
0.0499999
  0
VERTEX
  8
0
 10
89.7061
 20
27.7496
 30
0.0
 40
0.0499999
 41
0.0499999
  0
VERTEX
  8
0
 10
89.7227
 20
27.744
 30
0.0
 40
0.0499999
 41
0.0499999
  0
VERTEX
  8
0
 10
89.7255
 20
27.7427
 30
0.0
 40
0.0499999
 41
0.0499999
  0
VERTEX
  8
0
 10
89.7269
 20
27.7427
 30
0.0
 40
0.0499999
 41
0.0499999
  0
VERTEX
  8
0
 10
89.7421
 20
27.7275
 30
0.0
 40
0.0499999
 41
0.0499999
  0
VERTEX
  8
0
 10
89.7435
 20
27.7247
 30
0.0
 40
0.0499999
 41
0.0499999
  0
VERTEX
  8
0
 10
89.7435
 20
27.7234
 30
0.0
 40
0.0499999
 41
0.0499999
  0
VERTEX
  8
0
 10
89.7502
 20
27.7068
 30
0.0
 40
0.0499999
 41
0.0499999
  0
VERTEX
  8
0
 10
89.7502
 20
27.6999
 30
0.0
 40
0.0499999
 41
0.0499999
  0
VERTEX
  8
0
 10
89.7502
 20
22.2002
 30
0.0
 40
0.0499999
 41
0.0499999
  0
VERTEX
  8
0
 10
89.7502
 20
22.1947
 30
0.0
 40
0.0499999
 41
0.0499999
  0
VERTEX
  8
0
 10
89.7435
 20
22.1782
 30
0.0
 40
0.0499999
 41
0.0499999
  0
VERTEX
  8
0
 10
89.7435
 20
22.1754
 30
0.0
 40
0.0499999
 41
0.0499999
  0
VERTEX
  8
0
 10
89.7421
 20
22.174
 30
0.0
 40
0.0499999
 41
0.0499999
  0
VERTEX
  8
0
 10
89.7269
 20
22.1575
 30
0.0
 40
0.0499999
 41
0.0499999
  0
VERTEX
  8
0
 10
89.7255
 20
22.1561
 30
0.0
 40
0.0499999
 41
0.0499999
  0
VERTEX
  8
0
 10
89.7227
 20
22.1561
 30
0.0
 40
0.0499999
 41
0.0499999
  0
VERTEX
  8
0
 10
89.7061
 20
22.1492
 30
0.0
 40
0.0499999
 41
0.0499999
  0
VERTEX
  8
0
 10
89.7008
 20
22.1492
 30
0.0
 40
0.0499999
 41
0.0499999
  0
VERTEX
  8
0
 10
88.9497
 20
22.1492
 30
0.0
 40
0.0499999
 41
0.0499999
  0
SEQEND
 8
0
  0
POLYLINE
  8
0
 62
     5
 66
     1
 10
0
 20
0
 30
0.0
 70
     1
 40
0.141732
 41
0.141732
  0
VERTEX
  8
0
 10
92.9499
 20
22.1492
 30
0.0
 40
0.0499999
 41
0.0499999
  0
VERTEX
  8
0
 10
92.2002
 20
22.1492
 30
0.0
 40
0.0499999
 41
0.0499999
  0
VERTEX
  8
0
 10
92.1935
 20
22.1492
 30
0.0
 40
0.0499999
 41
0.0499999
  0
VERTEX
  8
0
 10
92.1755
 20
22.1561
 30
0.0
 40
0.0499999
 41
0.0499999
  0
VERTEX
  8
0
 10
92.1741
 20
22.1561
 30
0.0
 40
0.0499999
 41
0.0499999
  0
VERTEX
  8
0
 10
92.1713
 20
22.1575
 30
0.0
 40
0.0499999
 41
0.0499999
  0
VERTEX
  8
0
 10
92.1561
 20
22.174
 30
0.0
 40
0.0499999
 41
0.0499999
  0
VERTEX
  8
0
 10
92.1561
 20
22.1754
 30
0.0
 40
0.0499999
 41
0.0499999
  0
VERTEX
  8
0
 10
92.1551
 20
22.1782
 30
0.0
 40
0.0499999
 41
0.0499999
  0
VERTEX
  8
0
 10
92.1508
 20
22.1947
 30
0.0
 40
0.0499999
 41
0.0499999
  0
VERTEX
  8
0
 10
92.1508
 20
22.2002
 30
0.0
 40
0.0499999
 41
0.0499999
  0
VERTEX
  8
0
 10
92.1508
 20
27.6999
 30
0.0
 40
0.0499999
 41
0.0499999
  0
VERTEX
  8
0
 10
92.1508
 20
27.7068
 30
0.0
 40
0.0499999
 41
0.0499999
  0
VERTEX
  8
0
 10
92.1551
 20
27.7234
 30
0.0
 40
0.0499999
 41
0.0499999
  0
VERTEX
  8
0
 10
92.1561
 20
27.7247
 30
0.0
 40
0.0499999
 41
0.0499999
  0
VERTEX
  8
0
 10
92.1561
 20
27.7275
 30
0.0
 40
0.0499999
 41
0.0499999
  0
VERTEX
  8
0
 10
92.1713
 20
27.7427
 30
0.0
 40
0.0499999
 41
0.0499999
  0
VERTEX
  8
0
 10
92.1741
 20
27.7427
 30
0.0
 40
0.0499999
 41
0.0499999
  0
VERTEX
  8
0
 10
92.1755
 20
27.744
 30
0.0
 40
0.0499999
 41
0.0499999
  0
VERTEX
  8
0
 10
92.1935
 20
27.7496
 30
0.0
 40
0.0499999
 41
0.0499999
  0
VERTEX
  8
0
 10
92.2002
 20
27.7496
 30
0.0
 40
0.0499999
 41
0.0499999
  0
VERTEX
  8
0
 10
93.6995
 20
27.7496
 30
0.0
 40
0.0499999
 41
0.0499999
  0
VERTEX
  8
0
 10
93.7052
 20
27.7496
 30
0.0
 40
0.0499999
 41
0.0499999
  0
VERTEX
  8
0
 10
93.7218
 20
27.744
 30
0.0
 40
0.0499999
 41
0.0499999
  0
VERTEX
  8
0
 10
93.7246
 20
27.7427
 30
0.0
 40
0.0499999
 41
0.0499999
  0
VERTEX
  8
0
 10
93.726
 20
27.7427
 30
0.0
 40
0.0499999
 41
0.0499999
  0
VERTEX
  8
0
 10
93.7426
 20
27.7275
 30
0.0
 40
0.0499999
 41
0.0499999
  0
VERTEX
  8
0
 10
93.7436
 20
27.7247
 30
0.0
 40
0.0499999
 41
0.0499999
  0
VERTEX
  8
0
 10
93.7436
 20
27.7234
 30
0.0
 40
0.0499999
 41
0.0499999
  0
VERTEX
  8
0
 10
93.7493
 20
27.7068
 30
0.0
 40
0.0499999
 41
0.0499999
  0
VERTEX
  8
0
 10
93.7493
 20
27.6999
 30
0.0
 40
0.0499999
 41
0.0499999
  0
VERTEX
  8
0
 10
93.7493
 20
22.2002
 30
0.0
 40
0.0499999
 41
0.0499999
  0
VERTEX
  8
0
 10
93.7493
 20
22.1947
 30
0.0
 40
0.0499999
 41
0.0499999
  0
VERTEX
  8
0
 10
93.7436
 20
22.1782
 30
0.0
 40
0.0499999
 41
0.0499999
  0
VERTEX
  8
0
 10
93.7436
 20
22.1754
 30
0.0
 40
0.0499999
 41
0.0499999
  0
VERTEX
  8
0
 10
93.7426
 20
22.174
 30
0.0
 40
0.0499999
 41
0.0499999
  0
VERTEX
  8
0
 10
93.726
 20
22.1575
 30
0.0
 40
0.0499999
 41
0.0499999
  0
VERTEX
  8
0
 10
93.7246
 20
22.1561
 30
0.0
 40
0.0499999
 41
0.0499999
  0
VERTEX
  8
0
 10
93.7218
 20
22.1561
 30
0.0
 40
0.0499999
 41
0.0499999
  0
VERTEX
  8
0
 10
93.7052
 20
22.1492
 30
0.0
 40
0.0499999
 41
0.0499999
  0
VERTEX
  8
0
 10
93.6995
 20
22.1492
 30
0.0
 40
0.0499999
 41
0.0499999
  0
VERTEX
  8
0
 10
92.9499
 20
22.1492
 30
0.0
 40
0.0499999
 41
0.0499999
  0
SEQEND
 8
0
  0
POLYLINE
  8
0
 62
     5
 66
     1
 10
0
 20
0
 30
0.0
 70
     1
 40
0.141732
 41
0.141732
  0
VERTEX
  8
0
 10
96.9504
 20
22.1492
 30
0.0
 40
0.0499999
 41
0.0499999
  0
VERTEX
  8
0
 10
96.1993
 20
22.1492
 30
0.0
 40
0.0499999
 41
0.0499999
  0
VERTEX
  8
0
 10
96.1926
 20
22.1492
 30
0.0
 40
0.0499999
 41
0.0499999
  0
VERTEX
  8
0
 10
96.176
 20
22.1561
 30
0.0
 40
0.0499999
 41
0.0499999
  0
VERTEX
  8
0
 10
96.1746
 20
22.1561
 30
0.0
 40
0.0499999
 41
0.0499999
  0
VERTEX
  8
0
 10
96.1718
 20
22.1575
 30
0.0
 40
0.0499999
 41
0.0499999
  0
VERTEX
  8
0
 10
96.1566
 20
22.174
 30
0.0
 40
0.0499999
 41
0.0499999
  0
VERTEX
  8
0
 10
96.1566
 20
22.1754
 30
0.0
 40
0.0499999
 41
0.0499999
  0
VERTEX
  8
0
 10
96.1552
 20
22.1782
 30
0.0
 40
0.0499999
 41
0.0499999
  0
VERTEX
  8
0
 10
96.1499
 20
22.1947
 30
0.0
 40
0.0499999
 41
0.0499999
  0
VERTEX
  8
0
 10
96.1499
 20
22.2002
 30
0.0
 40
0.0499999
 41
0.0499999
  0
VERTEX
  8
0
 10
96.1499
 20
27.6999
 30
0.0
 40
0.0499999
 41
0.0499999
  0
VERTEX
  8
0
 10
96.1499
 20
27.7068
 30
0.0
 40
0.0499999
 41
0.0499999
  0
VERTEX
  8
0
 10
96.1552
 20
27.7234
 30
0.0
 40
0.0499999
 41
0.0499999
  0
VERTEX
  8
0
 10
96.1566
 20
27.7247
 30
0.0
 40
0.0499999
 41
0.0499999
  0
VERTEX
  8
0
 10
96.1566
 20
27.7275
 30
0.0
 40
0.0499999
 41
0.0499999
  0
VERTEX
  8
0
 10
96.1718
 20
27.7427
 30
0.0
 40
0.0499999
 41
0.0499999
  0
VERTEX
  8
0
 10
96.1746
 20
27.7427
 30
0.0
 40
0.0499999
 41
0.0499999
  0
VERTEX
  8
0
 10
96.176
 20
27.744
 30
0.0
 40
0.0499999
 41
0.0499999
  0
VERTEX
  8
0
 10
96.1926
 20
27.7496
 30
0.0
 40
0.0499999
 41
0.0499999
  0
VERTEX
  8
0
 10
96.1993
 20
27.7496
 30
0.0
 40
0.0499999
 41
0.0499999
  0
VERTEX
  8
0
 10
97.7
 20
27.7496
 30
0.0
 40
0.0499999
 41
0.0499999
  0
VERTEX
  8
0
 10
97.7057
 20
27.7496
 30
0.0
 40
0.0499999
 41
0.0499999
  0
VERTEX
  8
0
 10
97.7223
 20
27.744
 30
0.0
 40
0.0499999
 41
0.0499999
  0
VERTEX
  8
0
 10
97.7251
 20
27.7427
 30
0.0
 40
0.0499999
 41
0.0499999
  0
VERTEX
  8
0
 10
97.7265
 20
27.7427
 30
0.0
 40
0.0499999
 41
0.0499999
  0
VERTEX
  8
0
 10
97.7417
 20
27.7275
 30
0.0
 40
0.0499999
 41
0.0499999
  0
VERTEX
  8
0
 10
97.7427
 20
27.7247
 30
0.0
 40
0.0499999
 41
0.0499999
  0
VERTEX
  8
0
 10
97.7427
 20
27.7234
 30
0.0
 40
0.0499999
 41
0.0499999
  0
VERTEX
  8
0
 10
97.7498
 20
27.7068
 30
0.0
 40
0.0499999
 41
0.0499999
  0
VERTEX
  8
0
 10
97.7498
 20
27.6999
 30
0.0
 40
0.0499999
 41
0.0499999
  0
VERTEX
  8
0
 10
97.7498
 20
22.2002
 30
0.0
 40
0.0499999
 41
0.0499999
  0
VERTEX
  8
0
 10
97.7498
 20
22.1947
 30
0.0
 40
0.0499999
 41
0.0499999
  0
VERTEX
  8
0
 10
97.7427
 20
22.1782
 30
0.0
 40
0.0499999
 41
0.0499999
  0
VERTEX
  8
0
 10
97.7427
 20
22.1754
 30
0.0
 40
0.0499999
 41
0.0499999
  0
VERTEX
  8
0
 10
97.7417
 20
22.174
 30
0.0
 40
0.0499999
 41
0.0499999
  0
VERTEX
  8
0
 10
97.7265
 20
22.1575
 30
0.0
 40
0.0499999
 41
0.0499999
  0
VERTEX
  8
0
 10
97.7251
 20
22.1561
 30
0.0
 40
0.0499999
 41
0.0499999
  0
VERTEX
  8
0
 10
97.7223
 20
22.1561
 30
0.0
 40
0.0499999
 41
0.0499999
  0
VERTEX
  8
0
 10
97.7057
 20
22.1492
 30
0.0
 40
0.0499999
 41
0.0499999
  0
VERTEX
  8
0
 10
97.7
 20
22.1492
 30
0.0
 40
0.0499999
 41
0.0499999
  0
VERTEX
  8
0
 10
96.9504
 20
22.1492
 30
0.0
 40
0.0499999
 41
0.0499999
  0
SEQEND
 8
0
  0
POLYLINE
  8
0
 62
     5
 66
     1
 10
0
 20
0
 30
0.0
 70
     1
 40
0.141732
 41
0.141732
  0
VERTEX
  8
0
 10
100.949
 20
22.1492
 30
0.0
 40
0.0499999
 41
0.0499999
  0
VERTEX
  8
0
 10
100.2
 20
22.1492
 30
0.0
 40
0.0499999
 41
0.0499999
  0
VERTEX
  8
0
 10
100.193
 20
22.1492
 30
0.0
 40
0.0499999
 41
0.0499999
  0
VERTEX
  8
0
 10
100.177
 20
22.1561
 30
0.0
 40
0.0499999
 41
0.0499999
  0
VERTEX
  8
0
 10
100.175
 20
22.1561
 30
0.0
 40
0.0499999
 41
0.0499999
  0
VERTEX
  8
0
 10
100.172
 20
22.1575
 30
0.0
 40
0.0499999
 41
0.0499999
  0
VERTEX
  8
0
 10
100.157
 20
22.174
 30
0.0
 40
0.0499999
 41
0.0499999
  0
VERTEX
  8
0
 10
100.157
 20
22.1754
 30
0.0
 40
0.0499999
 41
0.0499999
  0
VERTEX
  8
0
 10
100.156
 20
22.1782
 30
0.0
 40
0.0499999
 41
0.0499999
  0
VERTEX
  8
0
 10
100.15
 20
22.1947
 30
0.0
 40
0.0499999
 41
0.0499999
  0
VERTEX
  8
0
 10
100.15
 20
22.2002
 30
0.0
 40
0.0499999
 41
0.0499999
  0
VERTEX
  8
0
 10
100.15
 20
27.6999
 30
0.0
 40
0.0499999
 41
0.0499999
  0
VERTEX
  8
0
 10
100.15
 20
27.7068
 30
0.0
 40
0.0499999
 41
0.0499999
  0
VERTEX
  8
0
 10
100.156
 20
27.7234
 30
0.0
 40
0.0499999
 41
0.0499999
  0
VERTEX
  8
0
 10
100.157
 20
27.7247
 30
0.0
 40
0.0499999
 41
0.0499999
  0
VERTEX
  8
0
 10
100.157
 20
27.7275
 30
0.0
 40
0.0499999
 41
0.0499999
  0
VERTEX
  8
0
 10
100.172
 20
27.7427
 30
0.0
 40
0.0499999
 41
0.0499999
  0
VERTEX
  8
0
 10
100.175
 20
27.7427
 30
0.0
 40
0.0499999
 41
0.0499999
  0
VERTEX
  8
0
 10
100.177
 20
27.744
 30
0.0
 40
0.0499999
 41
0.0499999
  0
VERTEX
  8
0
 10
100.193
 20
27.7496
 30
0.0
 40
0.0499999
 41
0.0499999
  0
VERTEX
  8
0
 10
100.2
 20
27.7496
 30
0.0
 40
0.0499999
 41
0.0499999
  0
VERTEX
  8
0
 10
101.699
 20
27.7496
 30
0.0
 40
0.0499999
 41
0.0499999
  0
VERTEX
  8
0
 10
101.705
 20
27.7496
 30
0.0
 40
0.0499999
 41
0.0499999
  0
VERTEX
  8
0
 10
101.723
 20
27.744
 30
0.0
 40
0.0499999
 41
0.0499999
  0
VERTEX
  8
0
 10
101.725
 20
27.7427
 30
0.0
 40
0.0499999
 41
0.0499999
  0
VERTEX
  8
0
 10
101.727
 20
27.7427
 30
0.0
 40
0.0499999
 41
0.0499999
  0
VERTEX
  8
0
 10
101.742
 20
27.7275
 30
0.0
 40
0.0499999
 41
0.0499999
  0
VERTEX
  8
0
 10
101.743
 20
27.7247
 30
0.0
 40
0.0499999
 41
0.0499999
  0
VERTEX
  8
0
 10
101.743
 20
27.7234
 30
0.0
 40
0.0499999
 41
0.0499999
  0
VERTEX
  8
0
 10
101.75
 20
27.7068
 30
0.0
 40
0.0499999
 41
0.0499999
  0
VERTEX
  8
0
 10
101.75
 20
27.6999
 30
0.0
 40
0.0499999
 41
0.0499999
  0
VERTEX
  8
0
 10
101.75
 20
22.2002
 30
0.0
 40
0.0499999
 41
0.0499999
  0
VERTEX
  8
0
 10
101.75
 20
22.1947
 30
0.0
 40
0.0499999
 41
0.0499999
  0
VERTEX
  8
0
 10
101.743
 20
22.1782
 30
0.0
 40
0.0499999
 41
0.0499999
  0
VERTEX
  8
0
 10
101.743
 20
22.1754
 30
0.0
 40
0.0499999
 41
0.0499999
  0
VERTEX
  8
0
 10
101.742
 20
22.174
 30
0.0
 40
0.0499999
 41
0.0499999
  0
VERTEX
  8
0
 10
101.727
 20
22.1575
 30
0.0
 40
0.0499999
 41
0.0499999
  0
VERTEX
  8
0
 10
101.725
 20
22.1561
 30
0.0
 40
0.0499999
 41
0.0499999
  0
VERTEX
  8
0
 10
101.723
 20
22.1561
 30
0.0
 40
0.0499999
 41
0.0499999
  0
VERTEX
  8
0
 10
101.705
 20
22.1492
 30
0.0
 40
0.0499999
 41
0.0499999
  0
VERTEX
  8
0
 10
101.699
 20
22.1492
 30
0.0
 40
0.0499999
 41
0.0499999
  0
VERTEX
  8
0
 10
100.949
 20
22.1492
 30
0.0
 40
0.0499999
 41
0.0499999
  0
SEQEND
 8
0
  0
POLYLINE
  8
0
 62
     5
 66
     1
 10
0
 20
0
 30
0.0
 70
     1
 40
0.141732
 41
0.141732
  0
VERTEX
  8
0
 10
104.95
 20
22.1492
 30
0.0
 40
0.0499999
 41
0.0499999
  0
VERTEX
  8
0
 10
104.2
 20
22.1492
 30
0.0
 40
0.0499999
 41
0.0499999
  0
VERTEX
  8
0
 10
104.194
 20
22.1492
 30
0.0
 40
0.0499999
 41
0.0499999
  0
VERTEX
  8
0
 10
104.177
 20
22.1561
 30
0.0
 40
0.0499999
 41
0.0499999
  0
VERTEX
  8
0
 10
104.176
 20
22.1561
 30
0.0
 40
0.0499999
 41
0.0499999
  0
VERTEX
  8
0
 10
104.173
 20
22.1575
 30
0.0
 40
0.0499999
 41
0.0499999
  0
VERTEX
  8
0
 10
104.158
 20
22.174
 30
0.0
 40
0.0499999
 41
0.0499999
  0
VERTEX
  8
0
 10
104.156
 20
22.1754
 30
0.0
 40
0.0499999
 41
0.0499999
  0
VERTEX
  8
0
 10
104.155
 20
22.1782
 30
0.0
 40
0.0499999
 41
0.0499999
  0
VERTEX
  8
0
 10
104.15
 20
22.1947
 30
0.0
 40
0.0499999
 41
0.0499999
  0
VERTEX
  8
0
 10
104.15
 20
22.2002
 30
0.0
 40
0.0499999
 41
0.0499999
  0
VERTEX
  8
0
 10
104.15
 20
27.6999
 30
0.0
 40
0.0499999
 41
0.0499999
  0
VERTEX
  8
0
 10
104.15
 20
27.7068
 30
0.0
 40
0.0499999
 41
0.0499999
  0
VERTEX
  8
0
 10
104.155
 20
27.7234
 30
0.0
 40
0.0499999
 41
0.0499999
  0
VERTEX
  8
0
 10
104.156
 20
27.7247
 30
0.0
 40
0.0499999
 41
0.0499999
  0
VERTEX
  8
0
 10
104.158
 20
27.7275
 30
0.0
 40
0.0499999
 41
0.0499999
  0
VERTEX
  8
0
 10
104.173
 20
27.7427
 30
0.0
 40
0.0499999
 41
0.0499999
  0
VERTEX
  8
0
 10
104.176
 20
27.7427
 30
0.0
 40
0.0499999
 41
0.0499999
  0
VERTEX
  8
0
 10
104.177
 20
27.744
 30
0.0
 40
0.0499999
 41
0.0499999
  0
VERTEX
  8
0
 10
104.194
 20
27.7496
 30
0.0
 40
0.0499999
 41
0.0499999
  0
VERTEX
  8
0
 10
104.2
 20
27.7496
 30
0.0
 40
0.0499999
 41
0.0499999
  0
VERTEX
  8
0
 10
105.7
 20
27.7496
 30
0.0
 40
0.0499999
 41
0.0499999
  0
VERTEX
  8
0
 10
105.705
 20
27.7496
 30
0.0
 40
0.0499999
 41
0.0499999
  0
VERTEX
  8
0
 10
105.722
 20
27.744
 30
0.0
 40
0.0499999
 41
0.0499999
  0
VERTEX
  8
0
 10
105.724
 20
27.7427
 30
0.0
 40
0.0499999
 41
0.0499999
  0
VERTEX
  8
0
 10
105.726
 20
27.7427
 30
0.0
 40
0.0499999
 41
0.0499999
  0
VERTEX
  8
0
 10
105.742
 20
27.7275
 30
0.0
 40
0.0499999
 41
0.0499999
  0
VERTEX
  8
0
 10
105.744
 20
27.7247
 30
0.0
 40
0.0499999
 41
0.0499999
  0
VERTEX
  8
0
 10
105.744
 20
27.7234
 30
0.0
 40
0.0499999
 41
0.0499999
  0
VERTEX
  8
0
 10
105.751
 20
27.7068
 30
0.0
 40
0.0499999
 41
0.0499999
  0
VERTEX
  8
0
 10
105.751
 20
27.6999
 30
0.0
 40
0.0499999
 41
0.0499999
  0
VERTEX
  8
0
 10
105.751
 20
22.2002
 30
0.0
 40
0.0499999
 41
0.0499999
  0
VERTEX
  8
0
 10
105.751
 20
22.1947
 30
0.0
 40
0.0499999
 41
0.0499999
  0
VERTEX
  8
0
 10
105.744
 20
22.1782
 30
0.0
 40
0.0499999
 41
0.0499999
  0
VERTEX
  8
0
 10
105.744
 20
22.1754
 30
0.0
 40
0.0499999
 41
0.0499999
  0
VERTEX
  8
0
 10
105.742
 20
22.174
 30
0.0
 40
0.0499999
 41
0.0499999
  0
VERTEX
  8
0
 10
105.726
 20
22.1575
 30
0.0
 40
0.0499999
 41
0.0499999
  0
VERTEX
  8
0
 10
105.724
 20
22.1561
 30
0.0
 40
0.0499999
 41
0.0499999
  0
VERTEX
  8
0
 10
105.722
 20
22.1561
 30
0.0
 40
0.0499999
 41
0.0499999
  0
VERTEX
  8
0
 10
105.705
 20
22.1492
 30
0.0
 40
0.0499999
 41
0.0499999
  0
VERTEX
  8
0
 10
105.7
 20
22.1492
 30
0.0
 40
0.0499999
 41
0.0499999
  0
VERTEX
  8
0
 10
104.95
 20
22.1492
 30
0.0
 40
0.0499999
 41
0.0499999
  0
SEQEND
 8
0
  0
POLYLINE
  8
0
 62
     5
 66
     1
 10
0
 20
0
 30
0.0
 70
     1
 40
0.141732
 41
0.141732
  0
VERTEX
  8
0
 10
108.95
 20
22.1492
 30
0.0
 40
0.0499999
 41
0.0499999
  0
VERTEX
  8
0
 10
108.201
 20
22.1492
 30
0.0
 40
0.0499999
 41
0.0499999
  0
VERTEX
  8
0
 10
108.194
 20
22.1492
 30
0.0
 40
0.0499999
 41
0.0499999
  0
VERTEX
  8
0
 10
108.176
 20
22.1561
 30
0.0
 40
0.0499999
 41
0.0499999
  0
VERTEX
  8
0
 10
108.175
 20
22.1561
 30
0.0
 40
0.0499999
 41
0.0499999
  0
VERTEX
  8
0
 10
108.172
 20
22.1575
 30
0.0
 40
0.0499999
 41
0.0499999
  0
VERTEX
  8
0
 10
108.157
 20
22.174
 30
0.0
 40
0.0499999
 41
0.0499999
  0
VERTEX
  8
0
 10
108.157
 20
22.1754
 30
0.0
 40
0.0499999
 41
0.0499999
  0
VERTEX
  8
0
 10
108.155
 20
22.1782
 30
0.0
 40
0.0499999
 41
0.0499999
  0
VERTEX
  8
0
 10
108.15
 20
22.1947
 30
0.0
 40
0.0499999
 41
0.0499999
  0
VERTEX
  8
0
 10
108.15
 20
22.2002
 30
0.0
 40
0.0499999
 41
0.0499999
  0
VERTEX
  8
0
 10
108.15
 20
27.6999
 30
0.0
 40
0.0499999
 41
0.0499999
  0
VERTEX
  8
0
 10
108.15
 20
27.7068
 30
0.0
 40
0.0499999
 41
0.0499999
  0
VERTEX
  8
0
 10
108.155
 20
27.7234
 30
0.0
 40
0.0499999
 41
0.0499999
  0
VERTEX
  8
0
 10
108.157
 20
27.7247
 30
0.0
 40
0.0499999
 41
0.0499999
  0
VERTEX
  8
0
 10
108.157
 20
27.7275
 30
0.0
 40
0.0499999
 41
0.0499999
  0
VERTEX
  8
0
 10
108.172
 20
27.7427
 30
0.0
 40
0.0499999
 41
0.0499999
  0
VERTEX
  8
0
 10
108.175
 20
27.7427
 30
0.0
 40
0.0499999
 41
0.0499999
  0
VERTEX
  8
0
 10
108.176
 20
27.744
 30
0.0
 40
0.0499999
 41
0.0499999
  0
VERTEX
  8
0
 10
108.194
 20
27.7496
 30
0.0
 40
0.0499999
 41
0.0499999
  0
VERTEX
  8
0
 10
108.201
 20
27.7496
 30
0.0
 40
0.0499999
 41
0.0499999
  0
VERTEX
  8
0
 10
109.7
 20
27.7496
 30
0.0
 40
0.0499999
 41
0.0499999
  0
VERTEX
  8
0
 10
109.706
 20
27.7496
 30
0.0
 40
0.0499999
 41
0.0499999
  0
VERTEX
  8
0
 10
109.722
 20
27.744
 30
0.0
 40
0.0499999
 41
0.0499999
  0
VERTEX
  8
0
 10
109.725
 20
27.7427
 30
0.0
 40
0.0499999
 41
0.0499999
  0
VERTEX
  8
0
 10
109.726
 20
27.7427
 30
0.0
 40
0.0499999
 41
0.0499999
  0
VERTEX
  8
0
 10
109.741
 20
27.7275
 30
0.0
 40
0.0499999
 41
0.0499999
  0
VERTEX
  8
0
 10
109.743
 20
27.7247
 30
0.0
 40
0.0499999
 41
0.0499999
  0
VERTEX
  8
0
 10
109.744
 20
27.7234
 30
0.0
 40
0.0499999
 41
0.0499999
  0
VERTEX
  8
0
 10
109.75
 20
27.7068
 30
0.0
 40
0.0499999
 41
0.0499999
  0
VERTEX
  8
0
 10
109.75
 20
27.6999
 30
0.0
 40
0.0499999
 41
0.0499999
  0
VERTEX
  8
0
 10
109.75
 20
22.2002
 30
0.0
 40
0.0499999
 41
0.0499999
  0
VERTEX
  8
0
 10
109.75
 20
22.1947
 30
0.0
 40
0.0499999
 41
0.0499999
  0
VERTEX
  8
0
 10
109.744
 20
22.1782
 30
0.0
 40
0.0499999
 41
0.0499999
  0
VERTEX
  8
0
 10
109.743
 20
22.1754
 30
0.0
 40
0.0499999
 41
0.0499999
  0
VERTEX
  8
0
 10
109.741
 20
22.174
 30
0.0
 40
0.0499999
 41
0.0499999
  0
VERTEX
  8
0
 10
109.726
 20
22.1575
 30
0.0
 40
0.0499999
 41
0.0499999
  0
VERTEX
  8
0
 10
109.725
 20
22.1561
 30
0.0
 40
0.0499999
 41
0.0499999
  0
VERTEX
  8
0
 10
109.722
 20
22.1561
 30
0.0
 40
0.0499999
 41
0.0499999
  0
VERTEX
  8
0
 10
109.706
 20
22.1492
 30
0.0
 40
0.0499999
 41
0.0499999
  0
VERTEX
  8
0
 10
109.7
 20
22.1492
 30
0.0
 40
0.0499999
 41
0.0499999
  0
VERTEX
  8
0
 10
108.95
 20
22.1492
 30
0.0
 40
0.0499999
 41
0.0499999
  0
SEQEND
 8
0
  0
POLYLINE
  8
0
 62
     5
 66
     1
 10
0
 20
0
 30
0.0
 70
     1
 40
0.141732
 41
0.141732
  0
VERTEX
  8
0
 10
112.95
 20
22.1492
 30
0.0
 40
0.0499999
 41
0.0499999
  0
VERTEX
  8
0
 10
112.2
 20
22.1492
 30
0.0
 40
0.0499999
 41
0.0499999
  0
VERTEX
  8
0
 10
112.193
 20
22.1492
 30
0.0
 40
0.0499999
 41
0.0499999
  0
VERTEX
  8
0
 10
112.176
 20
22.1561
 30
0.0
 40
0.0499999
 41
0.0499999
  0
VERTEX
  8
0
 10
112.175
 20
22.1561
 30
0.0
 40
0.0499999
 41
0.0499999
  0
VERTEX
  8
0
 10
112.172
 20
22.1575
 30
0.0
 40
0.0499999
 41
0.0499999
  0
VERTEX
  8
0
 10
112.157
 20
22.174
 30
0.0
 40
0.0499999
 41
0.0499999
  0
VERTEX
  8
0
 10
112.157
 20
22.1754
 30
0.0
 40
0.0499999
 41
0.0499999
  0
VERTEX
  8
0
 10
112.156
 20
22.1782
 30
0.0
 40
0.0499999
 41
0.0499999
  0
VERTEX
  8
0
 10
112.15
 20
22.1947
 30
0.0
 40
0.0499999
 41
0.0499999
  0
VERTEX
  8
0
 10
112.15
 20
22.2002
 30
0.0
 40
0.0499999
 41
0.0499999
  0
VERTEX
  8
0
 10
112.15
 20
27.6999
 30
0.0
 40
0.0499999
 41
0.0499999
  0
VERTEX
  8
0
 10
112.15
 20
27.7068
 30
0.0
 40
0.0499999
 41
0.0499999
  0
VERTEX
  8
0
 10
112.156
 20
27.7234
 30
0.0
 40
0.0499999
 41
0.0499999
  0
VERTEX
  8
0
 10
112.157
 20
27.7247
 30
0.0
 40
0.0499999
 41
0.0499999
  0
VERTEX
  8
0
 10
112.157
 20
27.7275
 30
0.0
 40
0.0499999
 41
0.0499999
  0
VERTEX
  8
0
 10
112.172
 20
27.7427
 30
0.0
 40
0.0499999
 41
0.0499999
  0
VERTEX
  8
0
 10
112.175
 20
27.7427
 30
0.0
 40
0.0499999
 41
0.0499999
  0
VERTEX
  8
0
 10
112.176
 20
27.744
 30
0.0
 40
0.0499999
 41
0.0499999
  0
VERTEX
  8
0
 10
112.193
 20
27.7496
 30
0.0
 40
0.0499999
 41
0.0499999
  0
VERTEX
  8
0
 10
112.2
 20
27.7496
 30
0.0
 40
0.0499999
 41
0.0499999
  0
VERTEX
  8
0
 10
113.701
 20
27.7496
 30
0.0
 40
0.0499999
 41
0.0499999
  0
VERTEX
  8
0
 10
113.706
 20
27.7496
 30
0.0
 40
0.0499999
 41
0.0499999
  0
VERTEX
  8
0
 10
113.723
 20
27.744
 30
0.0
 40
0.0499999
 41
0.0499999
  0
VERTEX
  8
0
 10
113.725
 20
27.7427
 30
0.0
 40
0.0499999
 41
0.0499999
  0
VERTEX
  8
0
 10
113.727
 20
27.7427
 30
0.0
 40
0.0499999
 41
0.0499999
  0
VERTEX
  8
0
 10
113.742
 20
27.7275
 30
0.0
 40
0.0499999
 41
0.0499999
  0
VERTEX
  8
0
 10
113.743
 20
27.7247
 30
0.0
 40
0.0499999
 41
0.0499999
  0
VERTEX
  8
0
 10
113.743
 20
27.7234
 30
0.0
 40
0.0499999
 41
0.0499999
  0
VERTEX
  8
0
 10
113.75
 20
27.7068
 30
0.0
 40
0.0499999
 41
0.0499999
  0
VERTEX
  8
0
 10
113.75
 20
27.6999
 30
0.0
 40
0.0499999
 41
0.0499999
  0
VERTEX
  8
0
 10
113.75
 20
22.2002
 30
0.0
 40
0.0499999
 41
0.0499999
  0
VERTEX
  8
0
 10
113.75
 20
22.1947
 30
0.0
 40
0.0499999
 41
0.0499999
  0
VERTEX
  8
0
 10
113.743
 20
22.1782
 30
0.0
 40
0.0499999
 41
0.0499999
  0
VERTEX
  8
0
 10
113.743
 20
22.1754
 30
0.0
 40
0.0499999
 41
0.0499999
  0
VERTEX
  8
0
 10
113.742
 20
22.174
 30
0.0
 40
0.0499999
 41
0.0499999
  0
VERTEX
  8
0
 10
113.727
 20
22.1575
 30
0.0
 40
0.0499999
 41
0.0499999
  0
VERTEX
  8
0
 10
113.725
 20
22.1561
 30
0.0
 40
0.0499999
 41
0.0499999
  0
VERTEX
  8
0
 10
113.723
 20
22.1561
 30
0.0
 40
0.0499999
 41
0.0499999
  0
VERTEX
  8
0
 10
113.706
 20
22.1492
 30
0.0
 40
0.0499999
 41
0.0499999
  0
VERTEX
  8
0
 10
113.701
 20
22.1492
 30
0.0
 40
0.0499999
 41
0.0499999
  0
VERTEX
  8
0
 10
112.95
 20
22.1492
 30
0.0
 40
0.0499999
 41
0.0499999
  0
SEQEND
 8
0
  0
POLYLINE
  8
0
 62
     5
 66
     1
 10
0
 20
0
 30
0.0
 70
     1
 40
0.141732
 41
0.141732
  0
VERTEX
  8
0
 10
116.95
 20
22.1492
 30
0.0
 40
0.0499999
 41
0.0499999
  0
VERTEX
  8
0
 10
116.2
 20
22.1492
 30
0.0
 40
0.0499999
 41
0.0499999
  0
VERTEX
  8
0
 10
116.193
 20
22.1492
 30
0.0
 40
0.0499999
 41
0.0499999
  0
VERTEX
  8
0
 10
116.177
 20
22.1561
 30
0.0
 40
0.0499999
 41
0.0499999
  0
VERTEX
  8
0
 10
116.175
 20
22.1561
 30
0.0
 40
0.0499999
 41
0.0499999
  0
VERTEX
  8
0
 10
116.173
 20
22.1575
 30
0.0
 40
0.0499999
 41
0.0499999
  0
VERTEX
  8
0
 10
116.158
 20
22.174
 30
0.0
 40
0.0499999
 41
0.0499999
  0
VERTEX
  8
0
 10
116.156
 20
22.1754
 30
0.0
 40
0.0499999
 41
0.0499999
  0
VERTEX
  8
0
 10
116.155
 20
22.1782
 30
0.0
 40
0.0499999
 41
0.0499999
  0
VERTEX
  8
0
 10
116.149
 20
22.1947
 30
0.0
 40
0.0499999
 41
0.0499999
  0
VERTEX
  8
0
 10
116.149
 20
22.2002
 30
0.0
 40
0.0499999
 41
0.0499999
  0
VERTEX
  8
0
 10
116.149
 20
27.6999
 30
0.0
 40
0.0499999
 41
0.0499999
  0
VERTEX
  8
0
 10
116.149
 20
27.7068
 30
0.0
 40
0.0499999
 41
0.0499999
  0
VERTEX
  8
0
 10
116.155
 20
27.7234
 30
0.0
 40
0.0499999
 41
0.0499999
  0
VERTEX
  8
0
 10
116.156
 20
27.7247
 30
0.0
 40
0.0499999
 41
0.0499999
  0
VERTEX
  8
0
 10
116.158
 20
27.7275
 30
0.0
 40
0.0499999
 41
0.0499999
  0
VERTEX
  8
0
 10
116.173
 20
27.7427
 30
0.0
 40
0.0499999
 41
0.0499999
  0
VERTEX
  8
0
 10
116.175
 20
27.7427
 30
0.0
 40
0.0499999
 41
0.0499999
  0
VERTEX
  8
0
 10
116.177
 20
27.744
 30
0.0
 40
0.0499999
 41
0.0499999
  0
VERTEX
  8
0
 10
116.193
 20
27.7496
 30
0.0
 40
0.0499999
 41
0.0499999
  0
VERTEX
  8
0
 10
116.2
 20
27.7496
 30
0.0
 40
0.0499999
 41
0.0499999
  0
VERTEX
  8
0
 10
117.7
 20
27.7496
 30
0.0
 40
0.0499999
 41
0.0499999
  0
VERTEX
  8
0
 10
117.705
 20
27.7496
 30
0.0
 40
0.0499999
 41
0.0499999
  0
VERTEX
  8
0
 10
117.723
 20
27.744
 30
0.0
 40
0.0499999
 41
0.0499999
  0
VERTEX
  8
0
 10
117.726
 20
27.7427
 30
0.0
 40
0.0499999
 41
0.0499999
  0
VERTEX
  8
0
 10
117.727
 20
27.7427
 30
0.0
 40
0.0499999
 41
0.0499999
  0
VERTEX
  8
0
 10
117.742
 20
27.7275
 30
0.0
 40
0.0499999
 41
0.0499999
  0
VERTEX
  8
0
 10
117.744
 20
27.7247
 30
0.0
 40
0.0499999
 41
0.0499999
  0
VERTEX
  8
0
 10
117.744
 20
27.7234
 30
0.0
 40
0.0499999
 41
0.0499999
  0
VERTEX
  8
0
 10
117.751
 20
27.7068
 30
0.0
 40
0.0499999
 41
0.0499999
  0
VERTEX
  8
0
 10
117.751
 20
27.6999
 30
0.0
 40
0.0499999
 41
0.0499999
  0
VERTEX
  8
0
 10
117.751
 20
22.2002
 30
0.0
 40
0.0499999
 41
0.0499999
  0
VERTEX
  8
0
 10
117.751
 20
22.1947
 30
0.0
 40
0.0499999
 41
0.0499999
  0
VERTEX
  8
0
 10
117.744
 20
22.1782
 30
0.0
 40
0.0499999
 41
0.0499999
  0
VERTEX
  8
0
 10
117.744
 20
22.1754
 30
0.0
 40
0.0499999
 41
0.0499999
  0
VERTEX
  8
0
 10
117.742
 20
22.174
 30
0.0
 40
0.0499999
 41
0.0499999
  0
VERTEX
  8
0
 10
117.727
 20
22.1575
 30
0.0
 40
0.0499999
 41
0.0499999
  0
VERTEX
  8
0
 10
117.726
 20
22.1561
 30
0.0
 40
0.0499999
 41
0.0499999
  0
VERTEX
  8
0
 10
117.723
 20
22.1561
 30
0.0
 40
0.0499999
 41
0.0499999
  0
VERTEX
  8
0
 10
117.705
 20
22.1492
 30
0.0
 40
0.0499999
 41
0.0499999
  0
VERTEX
  8
0
 10
117.7
 20
22.1492
 30
0.0
 40
0.0499999
 41
0.0499999
  0
VERTEX
  8
0
 10
116.95
 20
22.1492
 30
0.0
 40
0.0499999
 41
0.0499999
  0
SEQEND
 8
0
  0
POLYLINE
  8
0
 62
     5
 66
     1
 10
0
 20
0
 30
0.0
 70
     1
 40
0.141732
 41
0.141732
  0
VERTEX
  8
0
 10
120.951
 20
22.1492
 30
0.0
 40
0.0499999
 41
0.0499999
  0
VERTEX
  8
0
 10
120.2
 20
22.1492
 30
0.0
 40
0.0499999
 41
0.0499999
  0
VERTEX
  8
0
 10
120.192
 20
22.1492
 30
0.0
 40
0.0499999
 41
0.0499999
  0
VERTEX
  8
0
 10
120.176
 20
22.1561
 30
0.0
 40
0.0499999
 41
0.0499999
  0
VERTEX
  8
0
 10
120.174
 20
22.1561
 30
0.0
 40
0.0499999
 41
0.0499999
  0
VERTEX
  8
0
 10
120.172
 20
22.1575
 30
0.0
 40
0.0499999
 41
0.0499999
  0
VERTEX
  8
0
 10
120.157
 20
22.174
 30
0.0
 40
0.0499999
 41
0.0499999
  0
VERTEX
  8
0
 10
120.157
 20
22.1754
 30
0.0
 40
0.0499999
 41
0.0499999
  0
VERTEX
  8
0
 10
120.155
 20
22.1782
 30
0.0
 40
0.0499999
 41
0.0499999
  0
VERTEX
  8
0
 10
120.15
 20
22.1947
 30
0.0
 40
0.0499999
 41
0.0499999
  0
VERTEX
  8
0
 10
120.15
 20
22.2002
 30
0.0
 40
0.0499999
 41
0.0499999
  0
VERTEX
  8
0
 10
120.15
 20
27.6999
 30
0.0
 40
0.0499999
 41
0.0499999
  0
VERTEX
  8
0
 10
120.15
 20
27.7068
 30
0.0
 40
0.0499999
 41
0.0499999
  0
VERTEX
  8
0
 10
120.155
 20
27.7234
 30
0.0
 40
0.0499999
 41
0.0499999
  0
VERTEX
  8
0
 10
120.157
 20
27.7247
 30
0.0
 40
0.0499999
 41
0.0499999
  0
VERTEX
  8
0
 10
120.157
 20
27.7275
 30
0.0
 40
0.0499999
 41
0.0499999
  0
VERTEX
  8
0
 10
120.172
 20
27.7427
 30
0.0
 40
0.0499999
 41
0.0499999
  0
VERTEX
  8
0
 10
120.174
 20
27.7427
 30
0.0
 40
0.0499999
 41
0.0499999
  0
VERTEX
  8
0
 10
120.176
 20
27.744
 30
0.0
 40
0.0499999
 41
0.0499999
  0
VERTEX
  8
0
 10
120.192
 20
27.7496
 30
0.0
 40
0.0499999
 41
0.0499999
  0
VERTEX
  8
0
 10
120.2
 20
27.7496
 30
0.0
 40
0.0499999
 41
0.0499999
  0
VERTEX
  8
0
 10
121.7
 20
27.7496
 30
0.0
 40
0.0499999
 41
0.0499999
  0
VERTEX
  8
0
 10
121.706
 20
27.7496
 30
0.0
 40
0.0499999
 41
0.0499999
  0
VERTEX
  8
0
 10
121.722
 20
27.744
 30
0.0
 40
0.0499999
 41
0.0499999
  0
VERTEX
  8
0
 10
121.725
 20
27.7427
 30
0.0
 40
0.0499999
 41
0.0499999
  0
VERTEX
  8
0
 10
121.726
 20
27.7427
 30
0.0
 40
0.0499999
 41
0.0499999
  0
VERTEX
  8
0
 10
121.741
 20
27.7275
 30
0.0
 40
0.0499999
 41
0.0499999
  0
VERTEX
  8
0
 10
121.743
 20
27.7247
 30
0.0
 40
0.0499999
 41
0.0499999
  0
VERTEX
  8
0
 10
121.744
 20
27.7234
 30
0.0
 40
0.0499999
 41
0.0499999
  0
VERTEX
  8
0
 10
121.75
 20
27.7068
 30
0.0
 40
0.0499999
 41
0.0499999
  0
VERTEX
  8
0
 10
121.75
 20
27.6999
 30
0.0
 40
0.0499999
 41
0.0499999
  0
VERTEX
  8
0
 10
121.75
 20
22.2002
 30
0.0
 40
0.0499999
 41
0.0499999
  0
VERTEX
  8
0
 10
121.75
 20
22.1947
 30
0.0
 40
0.0499999
 41
0.0499999
  0
VERTEX
  8
0
 10
121.744
 20
22.1782
 30
0.0
 40
0.0499999
 41
0.0499999
  0
VERTEX
  8
0
 10
121.743
 20
22.1754
 30
0.0
 40
0.0499999
 41
0.0499999
  0
VERTEX
  8
0
 10
121.741
 20
22.174
 30
0.0
 40
0.0499999
 41
0.0499999
  0
VERTEX
  8
0
 10
121.726
 20
22.1575
 30
0.0
 40
0.0499999
 41
0.0499999
  0
VERTEX
  8
0
 10
121.725
 20
22.1561
 30
0.0
 40
0.0499999
 41
0.0499999
  0
VERTEX
  8
0
 10
121.722
 20
22.1561
 30
0.0
 40
0.0499999
 41
0.0499999
  0
VERTEX
  8
0
 10
121.706
 20
22.1492
 30
0.0
 40
0.0499999
 41
0.0499999
  0
VERTEX
  8
0
 10
121.7
 20
22.1492
 30
0.0
 40
0.0499999
 41
0.0499999
  0
VERTEX
  8
0
 10
120.951
 20
22.1492
 30
0.0
 40
0.0499999
 41
0.0499999
  0
SEQEND
 8
0
  0
POLYLINE
  8
0
 62
     5
 66
     1
 10
0
 20
0
 30
0.0
 70
     1
 40
0.141732
 41
0.141732
  0
VERTEX
  8
0
 10
124.95
 20
22.1492
 30
0.0
 40
0.0499999
 41
0.0499999
  0
VERTEX
  8
0
 10
124.2
 20
22.1492
 30
0.0
 40
0.0499999
 41
0.0499999
  0
VERTEX
  8
0
 10
124.193
 20
22.1492
 30
0.0
 40
0.0499999
 41
0.0499999
  0
VERTEX
  8
0
 10
124.176
 20
22.1561
 30
0.0
 40
0.0499999
 41
0.0499999
  0
VERTEX
  8
0
 10
124.175
 20
22.1561
 30
0.0
 40
0.0499999
 41
0.0499999
  0
VERTEX
  8
0
 10
124.172
 20
22.1575
 30
0.0
 40
0.0499999
 41
0.0499999
  0
VERTEX
  8
0
 10
124.157
 20
22.174
 30
0.0
 40
0.0499999
 41
0.0499999
  0
VERTEX
  8
0
 10
124.157
 20
22.1754
 30
0.0
 40
0.0499999
 41
0.0499999
  0
VERTEX
  8
0
 10
124.156
 20
22.1782
 30
0.0
 40
0.0499999
 41
0.0499999
  0
VERTEX
  8
0
 10
124.15
 20
22.1947
 30
0.0
 40
0.0499999
 41
0.0499999
  0
VERTEX
  8
0
 10
124.15
 20
22.2002
 30
0.0
 40
0.0499999
 41
0.0499999
  0
VERTEX
  8
0
 10
124.15
 20
27.6999
 30
0.0
 40
0.0499999
 41
0.0499999
  0
VERTEX
  8
0
 10
124.15
 20
27.7068
 30
0.0
 40
0.0499999
 41
0.0499999
  0
VERTEX
  8
0
 10
124.156
 20
27.7234
 30
0.0
 40
0.0499999
 41
0.0499999
  0
VERTEX
  8
0
 10
124.157
 20
27.7247
 30
0.0
 40
0.0499999
 41
0.0499999
  0
VERTEX
  8
0
 10
124.157
 20
27.7275
 30
0.0
 40
0.0499999
 41
0.0499999
  0
VERTEX
  8
0
 10
124.172
 20
27.7427
 30
0.0
 40
0.0499999
 41
0.0499999
  0
VERTEX
  8
0
 10
124.175
 20
27.7427
 30
0.0
 40
0.0499999
 41
0.0499999
  0
VERTEX
  8
0
 10
124.176
 20
27.744
 30
0.0
 40
0.0499999
 41
0.0499999
  0
VERTEX
  8
0
 10
124.193
 20
27.7496
 30
0.0
 40
0.0499999
 41
0.0499999
  0
VERTEX
  8
0
 10
124.2
 20
27.7496
 30
0.0
 40
0.0499999
 41
0.0499999
  0
VERTEX
  8
0
 10
125.7
 20
27.7496
 30
0.0
 40
0.0499999
 41
0.0499999
  0
VERTEX
  8
0
 10
125.706
 20
27.7496
 30
0.0
 40
0.0499999
 41
0.0499999
  0
VERTEX
  8
0
 10
125.723
 20
27.744
 30
0.0
 40
0.0499999
 41
0.0499999
  0
VERTEX
  8
0
 10
125.725
 20
27.7427
 30
0.0
 40
0.0499999
 41
0.0499999
  0
VERTEX
  8
0
 10
125.727
 20
27.7427
 30
0.0
 40
0.0499999
 41
0.0499999
  0
VERTEX
  8
0
 10
125.742
 20
27.7275
 30
0.0
 40
0.0499999
 41
0.0499999
  0
VERTEX
  8
0
 10
125.743
 20
27.7247
 30
0.0
 40
0.0499999
 41
0.0499999
  0
VERTEX
  8
0
 10
125.743
 20
27.7234
 30
0.0
 40
0.0499999
 41
0.0499999
  0
VERTEX
  8
0
 10
125.75
 20
27.7068
 30
0.0
 40
0.0499999
 41
0.0499999
  0
VERTEX
  8
0
 10
125.75
 20
27.6999
 30
0.0
 40
0.0499999
 41
0.0499999
  0
VERTEX
  8
0
 10
125.75
 20
22.2002
 30
0.0
 40
0.0499999
 41
0.0499999
  0
VERTEX
  8
0
 10
125.75
 20
22.1947
 30
0.0
 40
0.0499999
 41
0.0499999
  0
VERTEX
  8
0
 10
125.743
 20
22.1782
 30
0.0
 40
0.0499999
 41
0.0499999
  0
VERTEX
  8
0
 10
125.743
 20
22.1754
 30
0.0
 40
0.0499999
 41
0.0499999
  0
VERTEX
  8
0
 10
125.742
 20
22.174
 30
0.0
 40
0.0499999
 41
0.0499999
  0
VERTEX
  8
0
 10
125.727
 20
22.1575
 30
0.0
 40
0.0499999
 41
0.0499999
  0
VERTEX
  8
0
 10
125.725
 20
22.1561
 30
0.0
 40
0.0499999
 41
0.0499999
  0
VERTEX
  8
0
 10
125.723
 20
22.1561
 30
0.0
 40
0.0499999
 41
0.0499999
  0
VERTEX
  8
0
 10
125.706
 20
22.1492
 30
0.0
 40
0.0499999
 41
0.0499999
  0
VERTEX
  8
0
 10
125.7
 20
22.1492
 30
0.0
 40
0.0499999
 41
0.0499999
  0
VERTEX
  8
0
 10
124.95
 20
22.1492
 30
0.0
 40
0.0499999
 41
0.0499999
  0
SEQEND
 8
0
  0
POLYLINE
  8
0
 62
     5
 66
     1
 10
0
 20
0
 30
0.0
 70
     1
 40
0.141732
 41
0.141732
  0
VERTEX
  8
0
 10
128.95
 20
22.1492
 30
0.0
 40
0.0499999
 41
0.0499999
  0
VERTEX
  8
0
 10
128.2
 20
22.1492
 30
0.0
 40
0.0499999
 41
0.0499999
  0
VERTEX
  8
0
 10
128.193
 20
22.1492
 30
0.0
 40
0.0499999
 41
0.0499999
  0
VERTEX
  8
0
 10
128.177
 20
22.1561
 30
0.0
 40
0.0499999
 41
0.0499999
  0
VERTEX
  8
0
 10
128.175
 20
22.1561
 30
0.0
 40
0.0499999
 41
0.0499999
  0
VERTEX
  8
0
 10
128.173
 20
22.1575
 30
0.0
 40
0.0499999
 41
0.0499999
  0
VERTEX
  8
0
 10
128.156
 20
22.174
 30
0.0
 40
0.0499999
 41
0.0499999
  0
VERTEX
  8
0
 10
128.156
 20
22.1754
 30
0.0
 40
0.0499999
 41
0.0499999
  0
VERTEX
  8
0
 10
128.155
 20
22.1782
 30
0.0
 40
0.0499999
 41
0.0499999
  0
VERTEX
  8
0
 10
128.151
 20
22.1947
 30
0.0
 40
0.0499999
 41
0.0499999
  0
VERTEX
  8
0
 10
128.151
 20
22.2002
 30
0.0
 40
0.0499999
 41
0.0499999
  0
VERTEX
  8
0
 10
128.151
 20
27.6999
 30
0.0
 40
0.0499999
 41
0.0499999
  0
VERTEX
  8
0
 10
128.151
 20
27.7068
 30
0.0
 40
0.0499999
 41
0.0499999
  0
VERTEX
  8
0
 10
128.155
 20
27.7234
 30
0.0
 40
0.0499999
 41
0.0499999
  0
VERTEX
  8
0
 10
128.156
 20
27.7247
 30
0.0
 40
0.0499999
 41
0.0499999
  0
VERTEX
  8
0
 10
128.156
 20
27.7275
 30
0.0
 40
0.0499999
 41
0.0499999
  0
VERTEX
  8
0
 10
128.173
 20
27.7427
 30
0.0
 40
0.0499999
 41
0.0499999
  0
VERTEX
  8
0
 10
128.175
 20
27.7427
 30
0.0
 40
0.0499999
 41
0.0499999
  0
VERTEX
  8
0
 10
128.177
 20
27.744
 30
0.0
 40
0.0499999
 41
0.0499999
  0
VERTEX
  8
0
 10
128.193
 20
27.7496
 30
0.0
 40
0.0499999
 41
0.0499999
  0
VERTEX
  8
0
 10
128.2
 20
27.7496
 30
0.0
 40
0.0499999
 41
0.0499999
  0
VERTEX
  8
0
 10
129.699
 20
27.7496
 30
0.0
 40
0.0499999
 41
0.0499999
  0
VERTEX
  8
0
 10
129.705
 20
27.7496
 30
0.0
 40
0.0499999
 41
0.0499999
  0
VERTEX
  8
0
 10
129.722
 20
27.744
 30
0.0
 40
0.0499999
 41
0.0499999
  0
VERTEX
  8
0
 10
129.725
 20
27.7427
 30
0.0
 40
0.0499999
 41
0.0499999
  0
VERTEX
  8
0
 10
129.726
 20
27.7427
 30
0.0
 40
0.0499999
 41
0.0499999
  0
VERTEX
  8
0
 10
129.742
 20
27.7275
 30
0.0
 40
0.0499999
 41
0.0499999
  0
VERTEX
  8
0
 10
129.744
 20
27.7247
 30
0.0
 40
0.0499999
 41
0.0499999
  0
VERTEX
  8
0
 10
129.744
 20
27.7234
 30
0.0
 40
0.0499999
 41
0.0499999
  0
VERTEX
  8
0
 10
129.751
 20
27.7068
 30
0.0
 40
0.0499999
 41
0.0499999
  0
VERTEX
  8
0
 10
129.751
 20
27.6999
 30
0.0
 40
0.0499999
 41
0.0499999
  0
VERTEX
  8
0
 10
129.751
 20
22.2002
 30
0.0
 40
0.0499999
 41
0.0499999
  0
VERTEX
  8
0
 10
129.751
 20
22.1947
 30
0.0
 40
0.0499999
 41
0.0499999
  0
VERTEX
  8
0
 10
129.744
 20
22.1782
 30
0.0
 40
0.0499999
 41
0.0499999
  0
VERTEX
  8
0
 10
129.744
 20
22.1754
 30
0.0
 40
0.0499999
 41
0.0499999
  0
VERTEX
  8
0
 10
129.742
 20
22.174
 30
0.0
 40
0.0499999
 41
0.0499999
  0
VERTEX
  8
0
 10
129.726
 20
22.1575
 30
0.0
 40
0.0499999
 41
0.0499999
  0
VERTEX
  8
0
 10
129.725
 20
22.1561
 30
0.0
 40
0.0499999
 41
0.0499999
  0
VERTEX
  8
0
 10
129.722
 20
22.1561
 30
0.0
 40
0.0499999
 41
0.0499999
  0
VERTEX
  8
0
 10
129.705
 20
22.1492
 30
0.0
 40
0.0499999
 41
0.0499999
  0
VERTEX
  8
0
 10
129.699
 20
22.1492
 30
0.0
 40
0.0499999
 41
0.0499999
  0
VERTEX
  8
0
 10
128.95
 20
22.1492
 30
0.0
 40
0.0499999
 41
0.0499999
  0
SEQEND
 8
0
  0
POLYLINE
  8
0
 62
     5
 66
     1
 10
0
 20
0
 30
0.0
 70
     1
 40
0.141732
 41
0.141732
  0
VERTEX
  8
0
 10
132.95
 20
22.1492
 30
0.0
 40
0.0499999
 41
0.0499999
  0
VERTEX
  8
0
 10
132.199
 20
22.1492
 30
0.0
 40
0.0499999
 41
0.0499999
  0
VERTEX
  8
0
 10
132.193
 20
22.1492
 30
0.0
 40
0.0499999
 41
0.0499999
  0
VERTEX
  8
0
 10
132.176
 20
22.1561
 30
0.0
 40
0.0499999
 41
0.0499999
  0
VERTEX
  8
0
 10
132.175
 20
22.1561
 30
0.0
 40
0.0499999
 41
0.0499999
  0
VERTEX
  8
0
 10
132.172
 20
22.1575
 30
0.0
 40
0.0499999
 41
0.0499999
  0
VERTEX
  8
0
 10
132.157
 20
22.174
 30
0.0
 40
0.0499999
 41
0.0499999
  0
VERTEX
  8
0
 10
132.157
 20
22.1754
 30
0.0
 40
0.0499999
 41
0.0499999
  0
VERTEX
  8
0
 10
132.155
 20
22.1782
 30
0.0
 40
0.0499999
 41
0.0499999
  0
VERTEX
  8
0
 10
132.15
 20
22.1947
 30
0.0
 40
0.0499999
 41
0.0499999
  0
VERTEX
  8
0
 10
132.15
 20
22.2002
 30
0.0
 40
0.0499999
 41
0.0499999
  0
VERTEX
  8
0
 10
132.15
 20
27.6999
 30
0.0
 40
0.0499999
 41
0.0499999
  0
VERTEX
  8
0
 10
132.15
 20
27.7068
 30
0.0
 40
0.0499999
 41
0.0499999
  0
VERTEX
  8
0
 10
132.155
 20
27.7234
 30
0.0
 40
0.0499999
 41
0.0499999
  0
VERTEX
  8
0
 10
132.157
 20
27.7247
 30
0.0
 40
0.0499999
 41
0.0499999
  0
VERTEX
  8
0
 10
132.157
 20
27.7275
 30
0.0
 40
0.0499999
 41
0.0499999
  0
VERTEX
  8
0
 10
132.172
 20
27.7427
 30
0.0
 40
0.0499999
 41
0.0499999
  0
VERTEX
  8
0
 10
132.175
 20
27.7427
 30
0.0
 40
0.0499999
 41
0.0499999
  0
VERTEX
  8
0
 10
132.176
 20
27.744
 30
0.0
 40
0.0499999
 41
0.0499999
  0
VERTEX
  8
0
 10
132.193
 20
27.7496
 30
0.0
 40
0.0499999
 41
0.0499999
  0
VERTEX
  8
0
 10
132.199
 20
27.7496
 30
0.0
 40
0.0499999
 41
0.0499999
  0
VERTEX
  8
0
 10
133.7
 20
27.7496
 30
0.0
 40
0.0499999
 41
0.0499999
  0
VERTEX
  8
0
 10
133.706
 20
27.7496
 30
0.0
 40
0.0499999
 41
0.0499999
  0
VERTEX
  8
0
 10
133.722
 20
27.744
 30
0.0
 40
0.0499999
 41
0.0499999
  0
VERTEX
  8
0
 10
133.725
 20
27.7427
 30
0.0
 40
0.0499999
 41
0.0499999
  0
VERTEX
  8
0
 10
133.726
 20
27.7427
 30
0.0
 40
0.0499999
 41
0.0499999
  0
VERTEX
  8
0
 10
133.741
 20
27.7275
 30
0.0
 40
0.0499999
 41
0.0499999
  0
VERTEX
  8
0
 10
133.743
 20
27.7247
 30
0.0
 40
0.0499999
 41
0.0499999
  0
VERTEX
  8
0
 10
133.744
 20
27.7234
 30
0.0
 40
0.0499999
 41
0.0499999
  0
VERTEX
  8
0
 10
133.75
 20
27.7068
 30
0.0
 40
0.0499999
 41
0.0499999
  0
VERTEX
  8
0
 10
133.75
 20
27.6999
 30
0.0
 40
0.0499999
 41
0.0499999
  0
VERTEX
  8
0
 10
133.75
 20
22.2002
 30
0.0
 40
0.0499999
 41
0.0499999
  0
VERTEX
  8
0
 10
133.75
 20
22.1947
 30
0.0
 40
0.0499999
 41
0.0499999
  0
VERTEX
  8
0
 10
133.744
 20
22.1782
 30
0.0
 40
0.0499999
 41
0.0499999
  0
VERTEX
  8
0
 10
133.743
 20
22.1754
 30
0.0
 40
0.0499999
 41
0.0499999
  0
VERTEX
  8
0
 10
133.741
 20
22.174
 30
0.0
 40
0.0499999
 41
0.0499999
  0
VERTEX
  8
0
 10
133.726
 20
22.1575
 30
0.0
 40
0.0499999
 41
0.0499999
  0
VERTEX
  8
0
 10
133.725
 20
22.1561
 30
0.0
 40
0.0499999
 41
0.0499999
  0
VERTEX
  8
0
 10
133.722
 20
22.1561
 30
0.0
 40
0.0499999
 41
0.0499999
  0
VERTEX
  8
0
 10
133.706
 20
22.1492
 30
0.0
 40
0.0499999
 41
0.0499999
  0
VERTEX
  8
0
 10
133.7
 20
22.1492
 30
0.0
 40
0.0499999
 41
0.0499999
  0
VERTEX
  8
0
 10
132.95
 20
22.1492
 30
0.0
 40
0.0499999
 41
0.0499999
  0
SEQEND
 8
0
  0
POLYLINE
  8
0
 62
     5
 66
     1
 10
0
 20
0
 30
0.0
 70
     1
 40
0.141732
 41
0.141732
  0
VERTEX
  8
0
 10
136.949
 20
22.1492
 30
0.0
 40
0.0499999
 41
0.0499999
  0
VERTEX
  8
0
 10
136.2
 20
22.1492
 30
0.0
 40
0.0499999
 41
0.0499999
  0
VERTEX
  8
0
 10
136.193
 20
22.1492
 30
0.0
 40
0.0499999
 41
0.0499999
  0
VERTEX
  8
0
 10
136.176
 20
22.1561
 30
0.0
 40
0.0499999
 41
0.0499999
  0
VERTEX
  8
0
 10
136.175
 20
22.1561
 30
0.0
 40
0.0499999
 41
0.0499999
  0
VERTEX
  8
0
 10
136.172
 20
22.1575
 30
0.0
 40
0.0499999
 41
0.0499999
  0
VERTEX
  8
0
 10
136.157
 20
22.174
 30
0.0
 40
0.0499999
 41
0.0499999
  0
VERTEX
  8
0
 10
136.157
 20
22.1754
 30
0.0
 40
0.0499999
 41
0.0499999
  0
VERTEX
  8
0
 10
136.156
 20
22.1782
 30
0.0
 40
0.0499999
 41
0.0499999
  0
VERTEX
  8
0
 10
136.15
 20
22.1947
 30
0.0
 40
0.0499999
 41
0.0499999
  0
VERTEX
  8
0
 10
136.15
 20
22.2002
 30
0.0
 40
0.0499999
 41
0.0499999
  0
VERTEX
  8
0
 10
136.15
 20
27.6999
 30
0.0
 40
0.0499999
 41
0.0499999
  0
VERTEX
  8
0
 10
136.15
 20
27.7068
 30
0.0
 40
0.0499999
 41
0.0499999
  0
VERTEX
  8
0
 10
136.156
 20
27.7234
 30
0.0
 40
0.0499999
 41
0.0499999
  0
VERTEX
  8
0
 10
136.157
 20
27.7247
 30
0.0
 40
0.0499999
 41
0.0499999
  0
VERTEX
  8
0
 10
136.157
 20
27.7275
 30
0.0
 40
0.0499999
 41
0.0499999
  0
VERTEX
  8
0
 10
136.172
 20
27.7427
 30
0.0
 40
0.0499999
 41
0.0499999
  0
VERTEX
  8
0
 10
136.175
 20
27.7427
 30
0.0
 40
0.0499999
 41
0.0499999
  0
VERTEX
  8
0
 10
136.176
 20
27.744
 30
0.0
 40
0.0499999
 41
0.0499999
  0
VERTEX
  8
0
 10
136.193
 20
27.7496
 30
0.0
 40
0.0499999
 41
0.0499999
  0
VERTEX
  8
0
 10
136.2
 20
27.7496
 30
0.0
 40
0.0499999
 41
0.0499999
  0
VERTEX
  8
0
 10
137.7
 20
27.7496
 30
0.0
 40
0.0499999
 41
0.0499999
  0
VERTEX
  8
0
 10
137.706
 20
27.7496
 30
0.0
 40
0.0499999
 41
0.0499999
  0
VERTEX
  8
0
 10
137.723
 20
27.744
 30
0.0
 40
0.0499999
 41
0.0499999
  0
VERTEX
  8
0
 10
137.725
 20
27.7427
 30
0.0
 40
0.0499999
 41
0.0499999
  0
VERTEX
  8
0
 10
137.727
 20
27.7427
 30
0.0
 40
0.0499999
 41
0.0499999
  0
VERTEX
  8
0
 10
137.742
 20
27.7275
 30
0.0
 40
0.0499999
 41
0.0499999
  0
VERTEX
  8
0
 10
137.743
 20
27.7247
 30
0.0
 40
0.0499999
 41
0.0499999
  0
VERTEX
  8
0
 10
137.743
 20
27.7234
 30
0.0
 40
0.0499999
 41
0.0499999
  0
VERTEX
  8
0
 10
137.75
 20
27.7068
 30
0.0
 40
0.0499999
 41
0.0499999
  0
VERTEX
  8
0
 10
137.75
 20
27.6999
 30
0.0
 40
0.0499999
 41
0.0499999
  0
VERTEX
  8
0
 10
137.75
 20
22.2002
 30
0.0
 40
0.0499999
 41
0.0499999
  0
VERTEX
  8
0
 10
137.75
 20
22.1947
 30
0.0
 40
0.0499999
 41
0.0499999
  0
VERTEX
  8
0
 10
137.743
 20
22.1782
 30
0.0
 40
0.0499999
 41
0.0499999
  0
VERTEX
  8
0
 10
137.743
 20
22.1754
 30
0.0
 40
0.0499999
 41
0.0499999
  0
VERTEX
  8
0
 10
137.742
 20
22.174
 30
0.0
 40
0.0499999
 41
0.0499999
  0
VERTEX
  8
0
 10
137.727
 20
22.1575
 30
0.0
 40
0.0499999
 41
0.0499999
  0
VERTEX
  8
0
 10
137.725
 20
22.1561
 30
0.0
 40
0.0499999
 41
0.0499999
  0
VERTEX
  8
0
 10
137.723
 20
22.1561
 30
0.0
 40
0.0499999
 41
0.0499999
  0
VERTEX
  8
0
 10
137.706
 20
22.1492
 30
0.0
 40
0.0499999
 41
0.0499999
  0
VERTEX
  8
0
 10
137.7
 20
22.1492
 30
0.0
 40
0.0499999
 41
0.0499999
  0
VERTEX
  8
0
 10
136.949
 20
22.1492
 30
0.0
 40
0.0499999
 41
0.0499999
  0
SEQEND
 8
0
  0
POLYLINE
  8
0
 62
     5
 66
     1
 10
0
 20
0
 30
0.0
 70
     1
 40
0.141732
 41
0.141732
  0
VERTEX
  8
0
 10
140.95
 20
22.1492
 30
0.0
 40
0.0499999
 41
0.0499999
  0
VERTEX
  8
0
 10
140.2
 20
22.1492
 30
0.0
 40
0.0499999
 41
0.0499999
  0
VERTEX
  8
0
 10
140.193
 20
22.1492
 30
0.0
 40
0.0499999
 41
0.0499999
  0
VERTEX
  8
0
 10
140.177
 20
22.1561
 30
0.0
 40
0.0499999
 41
0.0499999
  0
VERTEX
  8
0
 10
140.176
 20
22.1561
 30
0.0
 40
0.0499999
 41
0.0499999
  0
VERTEX
  8
0
 10
140.173
 20
22.1575
 30
0.0
 40
0.0499999
 41
0.0499999
  0
VERTEX
  8
0
 10
140.158
 20
22.174
 30
0.0
 40
0.0499999
 41
0.0499999
  0
VERTEX
  8
0
 10
140.158
 20
22.1754
 30
0.0
 40
0.0499999
 41
0.0499999
  0
VERTEX
  8
0
 10
140.156
 20
22.1782
 30
0.0
 40
0.0499999
 41
0.0499999
  0
VERTEX
  8
0
 10
140.151
 20
22.1947
 30
0.0
 40
0.0499999
 41
0.0499999
  0
VERTEX
  8
0
 10
140.151
 20
22.2002
 30
0.0
 40
0.0499999
 41
0.0499999
  0
VERTEX
  8
0
 10
140.151
 20
27.6999
 30
0.0
 40
0.0499999
 41
0.0499999
  0
VERTEX
  8
0
 10
140.151
 20
27.7068
 30
0.0
 40
0.0499999
 41
0.0499999
  0
VERTEX
  8
0
 10
140.156
 20
27.7234
 30
0.0
 40
0.0499999
 41
0.0499999
  0
VERTEX
  8
0
 10
140.158
 20
27.7247
 30
0.0
 40
0.0499999
 41
0.0499999
  0
VERTEX
  8
0
 10
140.158
 20
27.7275
 30
0.0
 40
0.0499999
 41
0.0499999
  0
VERTEX
  8
0
 10
140.173
 20
27.7427
 30
0.0
 40
0.0499999
 41
0.0499999
  0
VERTEX
  8
0
 10
140.176
 20
27.7427
 30
0.0
 40
0.0499999
 41
0.0499999
  0
VERTEX
  8
0
 10
140.177
 20
27.744
 30
0.0
 40
0.0499999
 41
0.0499999
  0
VERTEX
  8
0
 10
140.193
 20
27.7496
 30
0.0
 40
0.0499999
 41
0.0499999
  0
VERTEX
  8
0
 10
140.2
 20
27.7496
 30
0.0
 40
0.0499999
 41
0.0499999
  0
VERTEX
  8
0
 10
141.7
 20
27.7496
 30
0.0
 40
0.0499999
 41
0.0499999
  0
VERTEX
  8
0
 10
141.705
 20
27.7496
 30
0.0
 40
0.0499999
 41
0.0499999
  0
VERTEX
  8
0
 10
141.721
 20
27.744
 30
0.0
 40
0.0499999
 41
0.0499999
  0
VERTEX
  8
0
 10
141.724
 20
27.7427
 30
0.0
 40
0.0499999
 41
0.0499999
  0
VERTEX
  8
0
 10
141.726
 20
27.7427
 30
0.0
 40
0.0499999
 41
0.0499999
  0
VERTEX
  8
0
 10
141.742
 20
27.7275
 30
0.0
 40
0.0499999
 41
0.0499999
  0
VERTEX
  8
0
 10
141.744
 20
27.7247
 30
0.0
 40
0.0499999
 41
0.0499999
  0
VERTEX
  8
0
 10
141.744
 20
27.7234
 30
0.0
 40
0.0499999
 41
0.0499999
  0
VERTEX
  8
0
 10
141.751
 20
27.7068
 30
0.0
 40
0.0499999
 41
0.0499999
  0
VERTEX
  8
0
 10
141.751
 20
27.6999
 30
0.0
 40
0.0499999
 41
0.0499999
  0
VERTEX
  8
0
 10
141.751
 20
22.2002
 30
0.0
 40
0.0499999
 41
0.0499999
  0
VERTEX
  8
0
 10
141.751
 20
22.1947
 30
0.0
 40
0.0499999
 41
0.0499999
  0
VERTEX
  8
0
 10
141.744
 20
22.1782
 30
0.0
 40
0.0499999
 41
0.0499999
  0
VERTEX
  8
0
 10
141.744
 20
22.1754
 30
0.0
 40
0.0499999
 41
0.0499999
  0
VERTEX
  8
0
 10
141.742
 20
22.174
 30
0.0
 40
0.0499999
 41
0.0499999
  0
VERTEX
  8
0
 10
141.726
 20
22.1575
 30
0.0
 40
0.0499999
 41
0.0499999
  0
VERTEX
  8
0
 10
141.724
 20
22.1561
 30
0.0
 40
0.0499999
 41
0.0499999
  0
VERTEX
  8
0
 10
141.721
 20
22.1561
 30
0.0
 40
0.0499999
 41
0.0499999
  0
VERTEX
  8
0
 10
141.705
 20
22.1492
 30
0.0
 40
0.0499999
 41
0.0499999
  0
VERTEX
  8
0
 10
141.7
 20
22.1492
 30
0.0
 40
0.0499999
 41
0.0499999
  0
VERTEX
  8
0
 10
140.95
 20
22.1492
 30
0.0
 40
0.0499999
 41
0.0499999
  0
SEQEND
 8
0
  0
POLYLINE
  8
0
 62
     0
 66
     1
 10
0
 20
0
 30
0.0
 70
     1
 40
0.141732
 41
0.141732
  0
VERTEX
  8
0
 10
60.9505
 20
10.0004
 30
0.0
 40
0.0499999
 41
0.0499999
  0
VERTEX
  8
0
 10
76.9497
 20
10.0004
 30
0.0
 40
0.0499999
 41
0.0499999
  0
VERTEX
  8
0
 10
76.9497
 20
13.9995
 30
0.0
 40
0.0499999
 41
0.0499999
  0
VERTEX
  8
0
 10
76.9497
 20
14.0064
 30
0.0
 40
0.0499999
 41
0.0499999
  0
VERTEX
  8
0
 10
76.9553
 20
14.0243
 30
0.0
 40
0.0499999
 41
0.0499999
  0
VERTEX
  8
0
 10
76.9567
 20
14.0257
 30
0.0
 40
0.0499999
 41
0.0499999
  0
VERTEX
  8
0
 10
76.9567
 20
14.0284
 30
0.0
 40
0.0499999
 41
0.0499999
  0
VERTEX
  8
0
 10
76.9719
 20
14.0436
 30
0.0
 40
0.0499999
 41
0.0499999
  0
VERTEX
  8
0
 10
76.9744
 20
14.0436
 30
0.0
 40
0.0499999
 41
0.0499999
  0
VERTEX
  8
0
 10
76.9758
 20
14.045
 30
0.0
 40
0.0499999
 41
0.0499999
  0
VERTEX
  8
0
 10
76.9938
 20
14.0505
 30
0.0
 40
0.0499999
 41
0.0499999
  0
VERTEX
  8
0
 10
77.0008
 20
14.0505
 30
0.0
 40
0.0499999
 41
0.0499999
  0
VERTEX
  8
0
 10
92.9996
 20
14.0505
 30
0.0
 40
0.0499999
 41
0.0499999
  0
VERTEX
  8
0
 10
93.0053
 20
14.0505
 30
0.0
 40
0.0499999
 41
0.0499999
  0
VERTEX
  8
0
 10
93.0219
 20
14.045
 30
0.0
 40
0.0499999
 41
0.0499999
  0
VERTEX
  8
0
 10
93.0243
 20
14.0436
 30
0.0
 40
0.0499999
 41
0.0499999
  0
VERTEX
  8
0
 10
93.0257
 20
14.0436
 30
0.0
 40
0.0499999
 41
0.0499999
  0
VERTEX
  8
0
 10
93.0423
 20
14.0284
 30
0.0
 40
0.0499999
 41
0.0499999
  0
VERTEX
  8
0
 10
93.0437
 20
14.0257
 30
0.0
 40
0.0499999
 41
0.0499999
  0
VERTEX
  8
0
 10
93.0437
 20
14.0243
 30
0.0
 40
0.0499999
 41
0.0499999
  0
VERTEX
  8
0
 10
93.0508
 20
14.0064
 30
0.0
 40
0.0499999
 41
0.0499999
  0
VERTEX
  8
0
 10
93.0508
 20
13.9995
 30
0.0
 40
0.0499999
 41
0.0499999
  0
VERTEX
  8
0
 10
93.0508
 20
10.0004
 30
0.0
 40
0.0499999
 41
0.0499999
  0
VERTEX
  8
0
 10
109.05
 20
10.0004
 30
0.0
 40
0.0499999
 41
0.0499999
  0
VERTEX
  8
0
 10
109.05
 20
13.9995
 30
0.0
 40
0.0499999
 41
0.0499999
  0
VERTEX
  8
0
 10
109.05
 20
14.0064
 30
0.0
 40
0.0499999
 41
0.0499999
  0
VERTEX
  8
0
 10
109.055
 20
14.0243
 30
0.0
 40
0.0499999
 41
0.0499999
  0
VERTEX
  8
0
 10
109.057
 20
14.0257
 30
0.0
 40
0.0499999
 41
0.0499999
  0
VERTEX
  8
0
 10
109.057
 20
14.0284
 30
0.0
 40
0.0499999
 41
0.0499999
  0
VERTEX
  8
0
 10
109.072
 20
14.0436
 30
0.0
 40
0.0499999
 41
0.0499999
  0
VERTEX
  8
0
 10
109.075
 20
14.0436
 30
0.0
 40
0.0499999
 41
0.0499999
  0
VERTEX
  8
0
 10
109.076
 20
14.045
 30
0.0
 40
0.0499999
 41
0.0499999
  0
VERTEX
  8
0
 10
109.094
 20
14.0505
 30
0.0
 40
0.0499999
 41
0.0499999
  0
VERTEX
  8
0
 10
109.101
 20
14.0505
 30
0.0
 40
0.0499999
 41
0.0499999
  0
VERTEX
  8
0
 10
125.1
 20
14.0505
 30
0.0
 40
0.0499999
 41
0.0499999
  0
VERTEX
  8
0
 10
125.105
 20
14.0505
 30
0.0
 40
0.0499999
 41
0.0499999
  0
VERTEX
  8
0
 10
125.122
 20
14.045
 30
0.0
 40
0.0499999
 41
0.0499999
  0
VERTEX
  8
0
 10
125.125
 20
14.0436
 30
0.0
 40
0.0499999
 41
0.0499999
  0
VERTEX
  8
0
 10
125.126
 20
14.0436
 30
0.0
 40
0.0499999
 41
0.0499999
  0
VERTEX
  8
0
 10
125.142
 20
14.0284
 30
0.0
 40
0.0499999
 41
0.0499999
  0
VERTEX
  8
0
 10
125.144
 20
14.0257
 30
0.0
 40
0.0499999
 41
0.0499999
  0
VERTEX
  8
0
 10
125.144
 20
14.0243
 30
0.0
 40
0.0499999
 41
0.0499999
  0
VERTEX
  8
0
 10
125.151
 20
14.0064
 30
0.0
 40
0.0499999
 41
0.0499999
  0
VERTEX
  8
0
 10
125.151
 20
13.9995
 30
0.0
 40
0.0499999
 41
0.0499999
  0
VERTEX
  8
0
 10
125.151
 20
10.0004
 30
0.0
 40
0.0499999
 41
0.0499999
  0
VERTEX
  8
0
 10
141.15
 20
10.0004
 30
0.0
 40
0.0499999
 41
0.0499999
  0
VERTEX
  8
0
 10
141.15
 20
13.9995
 30
0.0
 40
0.0499999
 41
0.0499999
  0
VERTEX
  8
0
 10
141.15
 20
14.0064
 30
0.0
 40
0.0499999
 41
0.0499999
  0
VERTEX
  8
0
 10
141.155
 20
14.0243
 30
0.0
 40
0.0499999
 41
0.0499999
  0
VERTEX
  8
0
 10
141.157
 20
14.0257
 30
0.0
 40
0.0499999
 41
0.0499999
  0
VERTEX
  8
0
 10
141.157
 20
14.0284
 30
0.0
 40
0.0499999
 41
0.0499999
  0
VERTEX
  8
0
 10
141.172
 20
14.0436
 30
0.0
 40
0.0499999
 41
0.0499999
  0
VERTEX
  8
0
 10
141.175
 20
14.0436
 30
0.0
 40
0.0499999
 41
0.0499999
  0
VERTEX
  8
0
 10
141.176
 20
14.045
 30
0.0
 40
0.0499999
 41
0.0499999
  0
VERTEX
  8
0
 10
141.194
 20
14.0505
 30
0.0
 40
0.0499999
 41
0.0499999
  0
VERTEX
  8
0
 10
141.201
 20
14.0505
 30
0.0
 40
0.0499999
 41
0.0499999
  0
VERTEX
  8
0
 10
157.2
 20
14.0505
 30
0.0
 40
0.0499999
 41
0.0499999
  0
VERTEX
  8
0
 10
157.205
 20
14.0505
 30
0.0
 40
0.0499999
 41
0.0499999
  0
VERTEX
  8
0
 10
157.222
 20
14.045
 30
0.0
 40
0.0499999
 41
0.0499999
  0
VERTEX
  8
0
 10
157.225
 20
14.0436
 30
0.0
 40
0.0499999
 41
0.0499999
  0
VERTEX
  8
0
 10
157.226
 20
14.0436
 30
0.0
 40
0.0499999
 41
0.0499999
  0
VERTEX
  8
0
 10
157.243
 20
14.0284
 30
0.0
 40
0.0499999
 41
0.0499999
  0
VERTEX
  8
0
 10
157.244
 20
14.0257
 30
0.0
 40
0.0499999
 41
0.0499999
  0
VERTEX
  8
0
 10
157.244
 20
14.0243
 30
0.0
 40
0.0499999
 41
0.0499999
  0
VERTEX
  8
0
 10
157.249
 20
14.0064
 30
0.0
 40
0.0499999
 41
0.0499999
  0
VERTEX
  8
0
 10
157.249
 20
13.9995
 30
0.0
 40
0.0499999
 41
0.0499999
  0
VERTEX
  8
0
 10
157.249
 20
10.0004
 30
0.0
 40
0.0499999
 41
0.0499999
  0
VERTEX
  8
0
 10
173.25
 20
10.0004
 30
0.0
 40
0.0499999
 41
0.0499999
  0
VERTEX
  8
0
 10
173.25
 20
14.9999
 30
0.0
 40
0.0499999
 41
0.0499999
  0
VERTEX
  8
0
 10
173.25
 20
15.0068
 30
0.0
 40
0.0499999
 41
0.0499999
  0
VERTEX
  8
0
 10
173.255
 20
15.0234
 30
0.0
 40
0.0499999
 41
0.0499999
  0
VERTEX
  8
0
 10
173.257
 20
15.0247
 30
0.0
 40
0.0499999
 41
0.0499999
  0
VERTEX
  8
0
 10
173.257
 20
15.0275
 30
0.0
 40
0.0499999
 41
0.0499999
  0
VERTEX
  8
0
 10
173.272
 20
15.0427
 30
0.0
 40
0.0499999
 41
0.0499999
  0
VERTEX
  8
0
 10
173.275
 20
15.0427
 30
0.0
 40
0.0499999
 41
0.0499999
  0
VERTEX
  8
0
 10
173.276
 20
15.044
 30
0.0
 40
0.0499999
 41
0.0499999
  0
VERTEX
  8
0
 10
173.293
 20
15.0496
 30
0.0
 40
0.0499999
 41
0.0499999
  0
VERTEX
  8
0
 10
173.299
 20
15.0496
 30
0.0
 40
0.0499999
 41
0.0499999
  0
VERTEX
  8
0
 10
177.3
 20
15.0496
 30
0.0
 40
0.0499999
 41
0.0499999
  0
VERTEX
  8
0
 10
177.3
 20
31.0499
 30
0.0
 40
0.0499999
 41
0.0499999
  0
VERTEX
  8
0
 10
173.299
 20
31.0499
 30
0.0
 40
0.0499999
 41
0.0499999
  0
VERTEX
  8
0
 10
173.293
 20
31.0499
 30
0.0
 40
0.0499999
 41
0.0499999
  0
VERTEX
  8
0
 10
173.276
 20
31.0569
 30
0.0
 40
0.0499999
 41
0.0499999
  0
VERTEX
  8
0
 10
173.275
 20
31.0569
 30
0.0
 40
0.0499999
 41
0.0499999
  0
VERTEX
  8
0
 10
173.272
 20
31.0582
 30
0.0
 40
0.0499999
 41
0.0499999
  0
VERTEX
  8
0
 10
173.257
 20
31.0734
 30
0.0
 40
0.0499999
 41
0.0499999
  0
VERTEX
  8
0
 10
173.257
 20
31.0747
 30
0.0
 40
0.0499999
 41
0.0499999
  0
VERTEX
  8
0
 10
173.255
 20
31.0775
 30
0.0
 40
0.0499999
 41
0.0499999
  0
VERTEX
  8
0
 10
173.25
 20
31.094
 30
0.0
 40
0.0499999
 41
0.0499999
  0
VERTEX
  8
0
 10
173.25
 20
31.0996
 30
0.0
 40
0.0499999
 41
0.0499999
  0
VERTEX
  8
0
 10
173.25
 20
36.1005
 30
0.0
 40
0.0499999
 41
0.0499999
  0
VERTEX
  8
0
 10
173.25
 20
40.0995
 30
0.0
 40
0.0499999
 41
0.0499999
  0
VERTEX
  8
0
 10
157.249
 20
40.0995
 30
0.0
 40
0.0499999
 41
0.0499999
  0
VERTEX
  8
0
 10
157.249
 20
38.3494
 30
0.0
 40
0.0499999
 41
0.0499999
  0
VERTEX
  8
0
 10
157.249
 20
38.3438
 30
0.0
 40
0.0499999
 41
0.0499999
  0
VERTEX
  8
0
 10
157.244
 20
38.3275
 30
0.0
 40
0.0499999
 41
0.0499999
  0
VERTEX
  8
0
 10
157.244
 20
38.3247
 30
0.0
 40
0.0499999
 41
0.0499999
  0
VERTEX
  8
0
 10
157.243
 20
38.3233
 30
0.0
 40
0.0499999
 41
0.0499999
  0
VERTEX
  8
0
 10
157.226
 20
38.3081
 30
0.0
 40
0.0499999
 41
0.0499999
  0
VERTEX
  8
0
 10
157.225
 20
38.3067
 30
0.0
 40
0.0499999
 41
0.0499999
  0
VERTEX
  8
0
 10
157.222
 20
38.3067
 30
0.0
 40
0.0499999
 41
0.0499999
  0
VERTEX
  8
0
 10
157.205
 20
38.2997
 30
0.0
 40
0.0499999
 41
0.0499999
  0
VERTEX
  8
0
 10
157.2
 20
38.2997
 30
0.0
 40
0.0499999
 41
0.0499999
  0
VERTEX
  8
0
 10
141.201
 20
38.2997
 30
0.0
 40
0.0499999
 41
0.0499999
  0
VERTEX
  8
0
 10
141.194
 20
38.2997
 30
0.0
 40
0.0499999
 41
0.0499999
  0
VERTEX
  8
0
 10
141.176
 20
38.3067
 30
0.0
 40
0.0499999
 41
0.0499999
  0
VERTEX
  8
0
 10
141.175
 20
38.3067
 30
0.0
 40
0.0499999
 41
0.0499999
  0
VERTEX
  8
0
 10
141.172
 20
38.3081
 30
0.0
 40
0.0499999
 41
0.0499999
  0
VERTEX
  8
0
 10
141.157
 20
38.3233
 30
0.0
 40
0.0499999
 41
0.0499999
  0
VERTEX
  8
0
 10
141.157
 20
38.3247
 30
0.0
 40
0.0499999
 41
0.0499999
  0
VERTEX
  8
0
 10
141.155
 20
38.3275
 30
0.0
 40
0.0499999
 41
0.0499999
  0
VERTEX
  8
0
 10
141.15
 20
38.3438
 30
0.0
 40
0.0499999
 41
0.0499999
  0
VERTEX
  8
0
 10
141.15
 20
38.3494
 30
0.0
 40
0.0499999
 41
0.0499999
  0
VERTEX
  8
0
 10
141.15
 20
40.0995
 30
0.0
 40
0.0499999
 41
0.0499999
  0
VERTEX
  8
0
 10
125.151
 20
40.0995
 30
0.0
 40
0.0499999
 41
0.0499999
  0
VERTEX
  8
0
 10
125.151
 20
38.3494
 30
0.0
 40
0.0499999
 41
0.0499999
  0
VERTEX
  8
0
 10
125.151
 20
38.3438
 30
0.0
 40
0.0499999
 41
0.0499999
  0
VERTEX
  8
0
 10
125.144
 20
38.3275
 30
0.0
 40
0.0499999
 41
0.0499999
  0
VERTEX
  8
0
 10
125.144
 20
38.3247
 30
0.0
 40
0.0499999
 41
0.0499999
  0
VERTEX
  8
0
 10
125.142
 20
38.3233
 30
0.0
 40
0.0499999
 41
0.0499999
  0
VERTEX
  8
0
 10
125.126
 20
38.3081
 30
0.0
 40
0.0499999
 41
0.0499999
  0
VERTEX
  8
0
 10
125.125
 20
38.3067
 30
0.0
 40
0.0499999
 41
0.0499999
  0
VERTEX
  8
0
 10
125.122
 20
38.3067
 30
0.0
 40
0.0499999
 41
0.0499999
  0
VERTEX
  8
0
 10
125.105
 20
38.2997
 30
0.0
 40
0.0499999
 41
0.0499999
  0
VERTEX
  8
0
 10
125.1
 20
38.2997
 30
0.0
 40
0.0499999
 41
0.0499999
  0
VERTEX
  8
0
 10
109.101
 20
38.2997
 30
0.0
 40
0.0499999
 41
0.0499999
  0
VERTEX
  8
0
 10
109.094
 20
38.2997
 30
0.0
 40
0.0499999
 41
0.0499999
  0
VERTEX
  8
0
 10
109.076
 20
38.3067
 30
0.0
 40
0.0499999
 41
0.0499999
  0
VERTEX
  8
0
 10
109.075
 20
38.3067
 30
0.0
 40
0.0499999
 41
0.0499999
  0
VERTEX
  8
0
 10
109.072
 20
38.3081
 30
0.0
 40
0.0499999
 41
0.0499999
  0
VERTEX
  8
0
 10
109.057
 20
38.3233
 30
0.0
 40
0.0499999
 41
0.0499999
  0
VERTEX
  8
0
 10
109.057
 20
38.3247
 30
0.0
 40
0.0499999
 41
0.0499999
  0
VERTEX
  8
0
 10
109.055
 20
38.3275
 30
0.0
 40
0.0499999
 41
0.0499999
  0
VERTEX
  8
0
 10
109.05
 20
38.3438
 30
0.0
 40
0.0499999
 41
0.0499999
  0
VERTEX
  8
0
 10
109.05
 20
38.3494
 30
0.0
 40
0.0499999
 41
0.0499999
  0
VERTEX
  8
0
 10
109.05
 20
40.0995
 30
0.0
 40
0.0499999
 41
0.0499999
  0
VERTEX
  8
0
 10
93.0508
 20
40.0995
 30
0.0
 40
0.0499999
 41
0.0499999
  0
VERTEX
  8
0
 10
93.0508
 20
38.3494
 30
0.0
 40
0.0499999
 41
0.0499999
  0
VERTEX
  8
0
 10
93.0508
 20
38.3438
 30
0.0
 40
0.0499999
 41
0.0499999
  0
VERTEX
  8
0
 10
93.0437
 20
38.3275
 30
0.0
 40
0.0499999
 41
0.0499999
  0
VERTEX
  8
0
 10
93.0437
 20
38.3247
 30
0.0
 40
0.0499999
 41
0.0499999
  0
VERTEX
  8
0
 10
93.0423
 20
38.3233
 30
0.0
 40
0.0499999
 41
0.0499999
  0
VERTEX
  8
0
 10
93.0257
 20
38.3081
 30
0.0
 40
0.0499999
 41
0.0499999
  0
VERTEX
  8
0
 10
93.0243
 20
38.3067
 30
0.0
 40
0.0499999
 41
0.0499999
  0
VERTEX
  8
0
 10
93.0219
 20
38.3067
 30
0.0
 40
0.0499999
 41
0.0499999
  0
VERTEX
  8
0
 10
93.0053
 20
38.2997
 30
0.0
 40
0.0499999
 41
0.0499999
  0
VERTEX
  8
0
 10
92.9996
 20
38.2997
 30
0.0
 40
0.0499999
 41
0.0499999
  0
VERTEX
  8
0
 10
77.0008
 20
38.2997
 30
0.0
 40
0.0499999
 41
0.0499999
  0
VERTEX
  8
0
 10
76.9938
 20
38.2997
 30
0.0
 40
0.0499999
 41
0.0499999
  0
VERTEX
  8
0
 10
76.9758
 20
38.3067
 30
0.0
 40
0.0499999
 41
0.0499999
  0
VERTEX
  8
0
 10
76.9744
 20
38.3067
 30
0.0
 40
0.0499999
 41
0.0499999
  0
VERTEX
  8
0
 10
76.9719
 20
38.3081
 30
0.0
 40
0.0499999
 41
0.0499999
  0
VERTEX
  8
0
 10
76.9567
 20
38.3233
 30
0.0
 40
0.0499999
 41
0.0499999
  0
VERTEX
  8
0
 10
76.9567
 20
38.3247
 30
0.0
 40
0.0499999
 41
0.0499999
  0
VERTEX
  8
0
 10
76.9553
 20
38.3275
 30
0.0
 40
0.0499999
 41
0.0499999
  0
VERTEX
  8
0
 10
76.9497
 20
38.3438
 30
0.0
 40
0.0499999
 41
0.0499999
  0
VERTEX
  8
0
 10
76.9497
 20
38.3494
 30
0.0
 40
0.0499999
 41
0.0499999
  0
VERTEX
  8
0
 10
76.9497
 20
40.0995
 30
0.0
 40
0.0499999
 41
0.0499999
  0
VERTEX
  8
0
 10
60.9505
 20
40.0995
 30
0.0
 40
0.0499999
 41
0.0499999
  0
VERTEX
  8
0
 10
60.9505
 20
36.1005
 30
0.0
 40
0.0499999
 41
0.0499999
  0
VERTEX
  8
0
 10
60.9505
 20
31.0996
 30
0.0
 40
0.0499999
 41
0.0499999
  0
VERTEX
  8
0
 10
60.9505
 20
31.094
 30
0.0
 40
0.0499999
 41
0.0499999
  0
VERTEX
  8
0
 10
60.9438
 20
31.0775
 30
0.0
 40
0.0499999
 41
0.0499999
  0
VERTEX
  8
0
 10
60.9438
 20
31.0747
 30
0.0
 40
0.0499999
 41
0.0499999
  0
VERTEX
  8
0
 10
60.9424
 20
31.0734
 30
0.0
 40
0.0499999
 41
0.0499999
  0
VERTEX
  8
0
 10
60.9258
 20
31.0582
 30
0.0
 40
0.0499999
 41
0.0499999
  0
VERTEX
  8
0
 10
60.9244
 20
31.0569
 30
0.0
 40
0.0499999
 41
0.0499999
  0
VERTEX
  8
0
 10
60.9215
 20
31.0569
 30
0.0
 40
0.0499999
 41
0.0499999
  0
VERTEX
  8
0
 10
60.9053
 20
31.0499
 30
0.0
 40
0.0499999
 41
0.0499999
  0
VERTEX
  8
0
 10
60.8997
 20
31.0499
 30
0.0
 40
0.0499999
 41
0.0499999
  0
VERTEX
  8
0
 10
56.8992
 20
31.0499
 30
0.0
 40
0.0499999
 41
0.0499999
  0
VERTEX
  8
0
 10
56.8992
 20
15.0496
 30
0.0
 40
0.0499999
 41
0.0499999
  0
VERTEX
  8
0
 10
60.8997
 20
15.0496
 30
0.0
 40
0.0499999
 41
0.0499999
  0
VERTEX
  8
0
 10
60.9053
 20
15.0496
 30
0.0
 40
0.0499999
 41
0.0499999
  0
VERTEX
  8
0
 10
60.9215
 20
15.044
 30
0.0
 40
0.0499999
 41
0.0499999
  0
VERTEX
  8
0
 10
60.9244
 20
15.0427
 30
0.0
 40
0.0499999
 41
0.0499999
  0
VERTEX
  8
0
 10
60.9258
 20
15.0427
 30
0.0
 40
0.0499999
 41
0.0499999
  0
VERTEX
  8
0
 10
60.9424
 20
15.0275
 30
0.0
 40
0.0499999
 41
0.0499999
  0
VERTEX
  8
0
 10
60.9438
 20
15.0247
 30
0.0
 40
0.0499999
 41
0.0499999
  0
VERTEX
  8
0
 10
60.9438
 20
15.0234
 30
0.0
 40
0.0499999
 41
0.0499999
  0
VERTEX
  8
0
 10
60.9505
 20
15.0068
 30
0.0
 40
0.0499999
 41
0.0499999
  0
VERTEX
  8
0
 10
60.9505
 20
14.9999
 30
0.0
 40
0.0499999
 41
0.0499999
  0
VERTEX
  8
0
 10
60.9505
 20
10.0004
 30
0.0
 40
0.0499999
 41
0.0499999
  0
SEQEND
 8
0
  0
POLYLINE
  8
0
 62
     0
 66
     1
 10
0
 20
0
 30
0.0
 70
     1
 40
0.141732
 41
0.141732
  0
VERTEX
  8
0
 10
60.9505
 20
41.9005
 30
0.0
 40
0.0499999
 41
0.0499999
  0
VERTEX
  8
0
 10
76.9497
 20
41.9005
 30
0.0
 40
0.0499999
 41
0.0499999
  0
VERTEX
  8
0
 10
76.9497
 20
45.8996
 30
0.0
 40
0.0499999
 41
0.0499999
  0
VERTEX
  8
0
 10
76.9497
 20
45.9066
 30
0.0
 40
0.0499999
 41
0.0499999
  0
VERTEX
  8
0
 10
76.9553
 20
45.9232
 30
0.0
 40
0.0499999
 41
0.0499999
  0
VERTEX
  8
0
 10
76.9567
 20
45.9246
 30
0.0
 40
0.0499999
 41
0.0499999
  0
VERTEX
  8
0
 10
76.9567
 20
45.9274
 30
0.0
 40
0.0499999
 41
0.0499999
  0
VERTEX
  8
0
 10
76.9719
 20
45.9437
 30
0.0
 40
0.0499999
 41
0.0499999
  0
VERTEX
  8
0
 10
76.9744
 20
45.9437
 30
0.0
 40
0.0499999
 41
0.0499999
  0
VERTEX
  8
0
 10
76.9758
 20
45.9451
 30
0.0
 40
0.0499999
 41
0.0499999
  0
VERTEX
  8
0
 10
76.9938
 20
45.9507
 30
0.0
 40
0.0499999
 41
0.0499999
  0
VERTEX
  8
0
 10
77.0008
 20
45.9507
 30
0.0
 40
0.0499999
 41
0.0499999
  0
VERTEX
  8
0
 10
92.9996
 20
45.9507
 30
0.0
 40
0.0499999
 41
0.0499999
  0
VERTEX
  8
0
 10
93.0053
 20
45.9507
 30
0.0
 40
0.0499999
 41
0.0499999
  0
VERTEX
  8
0
 10
93.0219
 20
45.9451
 30
0.0
 40
0.0499999
 41
0.0499999
  0
VERTEX
  8
0
 10
93.0243
 20
45.9437
 30
0.0
 40
0.0499999
 41
0.0499999
  0
VERTEX
  8
0
 10
93.0257
 20
45.9437
 30
0.0
 40
0.0499999
 41
0.0499999
  0
VERTEX
  8
0
 10
93.0423
 20
45.9274
 30
0.0
 40
0.0499999
 41
0.0499999
  0
VERTEX
  8
0
 10
93.0437
 20
45.9246
 30
0.0
 40
0.0499999
 41
0.0499999
  0
VERTEX
  8
0
 10
93.0437
 20
45.9232
 30
0.0
 40
0.0499999
 41
0.0499999
  0
VERTEX
  8
0
 10
93.0508
 20
45.9066
 30
0.0
 40
0.0499999
 41
0.0499999
  0
VERTEX
  8
0
 10
93.0508
 20
45.8996
 30
0.0
 40
0.0499999
 41
0.0499999
  0
VERTEX
  8
0
 10
93.0508
 20
41.9005
 30
0.0
 40
0.0499999
 41
0.0499999
  0
VERTEX
  8
0
 10
109.05
 20
41.9005
 30
0.0
 40
0.0499999
 41
0.0499999
  0
VERTEX
  8
0
 10
109.05
 20
45.8996
 30
0.0
 40
0.0499999
 41
0.0499999
  0
VERTEX
  8
0
 10
109.05
 20
45.9066
 30
0.0
 40
0.0499999
 41
0.0499999
  0
VERTEX
  8
0
 10
109.055
 20
45.9232
 30
0.0
 40
0.0499999
 41
0.0499999
  0
VERTEX
  8
0
 10
109.057
 20
45.9246
 30
0.0
 40
0.0499999
 41
0.0499999
  0
VERTEX
  8
0
 10
109.057
 20
45.9274
 30
0.0
 40
0.0499999
 41
0.0499999
  0
VERTEX
  8
0
 10
109.072
 20
45.9437
 30
0.0
 40
0.0499999
 41
0.0499999
  0
VERTEX
  8
0
 10
109.075
 20
45.9437
 30
0.0
 40
0.0499999
 41
0.0499999
  0
VERTEX
  8
0
 10
109.076
 20
45.9451
 30
0.0
 40
0.0499999
 41
0.0499999
  0
VERTEX
  8
0
 10
109.094
 20
45.9507
 30
0.0
 40
0.0499999
 41
0.0499999
  0
VERTEX
  8
0
 10
109.101
 20
45.9507
 30
0.0
 40
0.0499999
 41
0.0499999
  0
VERTEX
  8
0
 10
125.1
 20
45.9507
 30
0.0
 40
0.0499999
 41
0.0499999
  0
VERTEX
  8
0
 10
125.105
 20
45.9507
 30
0.0
 40
0.0499999
 41
0.0499999
  0
VERTEX
  8
0
 10
125.122
 20
45.9451
 30
0.0
 40
0.0499999
 41
0.0499999
  0
VERTEX
  8
0
 10
125.125
 20
45.9437
 30
0.0
 40
0.0499999
 41
0.0499999
  0
VERTEX
  8
0
 10
125.126
 20
45.9437
 30
0.0
 40
0.0499999
 41
0.0499999
  0
VERTEX
  8
0
 10
125.142
 20
45.9274
 30
0.0
 40
0.0499999
 41
0.0499999
  0
VERTEX
  8
0
 10
125.144
 20
45.9246
 30
0.0
 40
0.0499999
 41
0.0499999
  0
VERTEX
  8
0
 10
125.144
 20
45.9232
 30
0.0
 40
0.0499999
 41
0.0499999
  0
VERTEX
  8
0
 10
125.151
 20
45.9066
 30
0.0
 40
0.0499999
 41
0.0499999
  0
VERTEX
  8
0
 10
125.151
 20
45.8996
 30
0.0
 40
0.0499999
 41
0.0499999
  0
VERTEX
  8
0
 10
125.151
 20
41.9005
 30
0.0
 40
0.0499999
 41
0.0499999
  0
VERTEX
  8
0
 10
141.15
 20
41.9005
 30
0.0
 40
0.0499999
 41
0.0499999
  0
VERTEX
  8
0
 10
141.15
 20
45.8996
 30
0.0
 40
0.0499999
 41
0.0499999
  0
VERTEX
  8
0
 10
141.15
 20
45.9066
 30
0.0
 40
0.0499999
 41
0.0499999
  0
VERTEX
  8
0
 10
141.155
 20
45.9232
 30
0.0
 40
0.0499999
 41
0.0499999
  0
VERTEX
  8
0
 10
141.157
 20
45.9246
 30
0.0
 40
0.0499999
 41
0.0499999
  0
VERTEX
  8
0
 10
141.157
 20
45.9274
 30
0.0
 40
0.0499999
 41
0.0499999
  0
VERTEX
  8
0
 10
141.172
 20
45.9437
 30
0.0
 40
0.0499999
 41
0.0499999
  0
VERTEX
  8
0
 10
141.175
 20
45.9437
 30
0.0
 40
0.0499999
 41
0.0499999
  0
VERTEX
  8
0
 10
141.176
 20
45.9451
 30
0.0
 40
0.0499999
 41
0.0499999
  0
VERTEX
  8
0
 10
141.194
 20
45.9507
 30
0.0
 40
0.0499999
 41
0.0499999
  0
VERTEX
  8
0
 10
141.201
 20
45.9507
 30
0.0
 40
0.0499999
 41
0.0499999
  0
VERTEX
  8
0
 10
157.2
 20
45.9507
 30
0.0
 40
0.0499999
 41
0.0499999
  0
VERTEX
  8
0
 10
157.205
 20
45.9507
 30
0.0
 40
0.0499999
 41
0.0499999
  0
VERTEX
  8
0
 10
157.222
 20
45.9451
 30
0.0
 40
0.0499999
 41
0.0499999
  0
VERTEX
  8
0
 10
157.225
 20
45.9437
 30
0.0
 40
0.0499999
 41
0.0499999
  0
VERTEX
  8
0
 10
157.226
 20
45.9437
 30
0.0
 40
0.0499999
 41
0.0499999
  0
VERTEX
  8
0
 10
157.243
 20
45.9274
 30
0.0
 40
0.0499999
 41
0.0499999
  0
VERTEX
  8
0
 10
157.244
 20
45.9246
 30
0.0
 40
0.0499999
 41
0.0499999
  0
VERTEX
  8
0
 10
157.244
 20
45.9232
 30
0.0
 40
0.0499999
 41
0.0499999
  0
VERTEX
  8
0
 10
157.249
 20
45.9066
 30
0.0
 40
0.0499999
 41
0.0499999
  0
VERTEX
  8
0
 10
157.249
 20
45.8996
 30
0.0
 40
0.0499999
 41
0.0499999
  0
VERTEX
  8
0
 10
157.249
 20
41.9005
 30
0.0
 40
0.0499999
 41
0.0499999
  0
VERTEX
  8
0
 10
173.25
 20
41.9005
 30
0.0
 40
0.0499999
 41
0.0499999
  0
VERTEX
  8
0
 10
173.25
 20
46.9
 30
0.0
 40
0.0499999
 41
0.0499999
  0
VERTEX
  8
0
 10
173.25
 20
46.9071
 30
0.0
 40
0.0499999
 41
0.0499999
  0
VERTEX
  8
0
 10
173.255
 20
46.9237
 30
0.0
 40
0.0499999
 41
0.0499999
  0
VERTEX
  8
0
 10
173.257
 20
46.9251
 30
0.0
 40
0.0499999
 41
0.0499999
  0
VERTEX
  8
0
 10
173.257
 20
46.9276
 30
0.0
 40
0.0499999
 41
0.0499999
  0
VERTEX
  8
0
 10
173.272
 20
46.9427
 30
0.0
 40
0.0499999
 41
0.0499999
  0
VERTEX
  8
0
 10
173.275
 20
46.9427
 30
0.0
 40
0.0499999
 41
0.0499999
  0
VERTEX
  8
0
 10
173.276
 20
46.9441
 30
0.0
 40
0.0499999
 41
0.0499999
  0
VERTEX
  8
0
 10
173.293
 20
46.9498
 30
0.0
 40
0.0499999
 41
0.0499999
  0
VERTEX
  8
0
 10
173.299
 20
46.9498
 30
0.0
 40
0.0499999
 41
0.0499999
  0
VERTEX
  8
0
 10
177.3
 20
46.9498
 30
0.0
 40
0.0499999
 41
0.0499999
  0
VERTEX
  8
0
 10
177.3
 20
62.95
 30
0.0
 40
0.0499999
 41
0.0499999
  0
VERTEX
  8
0
 10
173.299
 20
62.95
 30
0.0
 40
0.0499999
 41
0.0499999
  0
VERTEX
  8
0
 10
173.293
 20
62.95
 30
0.0
 40
0.0499999
 41
0.0499999
  0
VERTEX
  8
0
 10
173.276
 20
62.9557
 30
0.0
 40
0.0499999
 41
0.0499999
  0
VERTEX
  8
0
 10
173.275
 20
62.9571
 30
0.0
 40
0.0499999
 41
0.0499999
  0
VERTEX
  8
0
 10
173.272
 20
62.9585
 30
0.0
 40
0.0499999
 41
0.0499999
  0
VERTEX
  8
0
 10
173.257
 20
62.9737
 30
0.0
 40
0.0499999
 41
0.0499999
  0
VERTEX
  8
0
 10
173.257
 20
62.9751
 30
0.0
 40
0.0499999
 41
0.0499999
  0
VERTEX
  8
0
 10
173.255
 20
62.9779
 30
0.0
 40
0.0499999
 41
0.0499999
  0
VERTEX
  8
0
 10
173.25
 20
62.9941
 30
0.0
 40
0.0499999
 41
0.0499999
  0
VERTEX
  8
0
 10
173.25
 20
62.9998
 30
0.0
 40
0.0499999
 41
0.0499999
  0
VERTEX
  8
0
 10
173.25
 20
68.0007
 30
0.0
 40
0.0499999
 41
0.0499999
  0
VERTEX
  8
0
 10
173.25
 20
71.9998
 30
0.0
 40
0.0499999
 41
0.0499999
  0
VERTEX
  8
0
 10
157.249
 20
71.9998
 30
0.0
 40
0.0499999
 41
0.0499999
  0
VERTEX
  8
0
 10
157.249
 20
70.2497
 30
0.0
 40
0.0499999
 41
0.0499999
  0
VERTEX
  8
0
 10
157.249
 20
70.2441
 30
0.0
 40
0.0499999
 41
0.0499999
  0
VERTEX
  8
0
 10
157.244
 20
70.2275
 30
0.0
 40
0.0499999
 41
0.0499999
  0
VERTEX
  8
0
 10
157.244
 20
70.225
 30
0.0
 40
0.0499999
 41
0.0499999
  0
VERTEX
  8
0
 10
157.243
 20
70.2236
 30
0.0
 40
0.0499999
 41
0.0499999
  0
VERTEX
  8
0
 10
157.226
 20
70.2084
 30
0.0
 40
0.0499999
 41
0.0499999
  0
VERTEX
  8
0
 10
157.225
 20
70.207
 30
0.0
 40
0.0499999
 41
0.0499999
  0
VERTEX
  8
0
 10
157.222
 20
70.207
 30
0.0
 40
0.0499999
 41
0.0499999
  0
VERTEX
  8
0
 10
157.205
 20
70.2
 30
0.0
 40
0.0499999
 41
0.0499999
  0
VERTEX
  8
0
 10
157.2
 20
70.2
 30
0.0
 40
0.0499999
 41
0.0499999
  0
VERTEX
  8
0
 10
141.201
 20
70.2
 30
0.0
 40
0.0499999
 41
0.0499999
  0
VERTEX
  8
0
 10
141.194
 20
70.2
 30
0.0
 40
0.0499999
 41
0.0499999
  0
VERTEX
  8
0
 10
141.176
 20
70.207
 30
0.0
 40
0.0499999
 41
0.0499999
  0
VERTEX
  8
0
 10
141.175
 20
70.207
 30
0.0
 40
0.0499999
 41
0.0499999
  0
VERTEX
  8
0
 10
141.172
 20
70.2084
 30
0.0
 40
0.0499999
 41
0.0499999
  0
VERTEX
  8
0
 10
141.157
 20
70.2236
 30
0.0
 40
0.0499999
 41
0.0499999
  0
VERTEX
  8
0
 10
141.157
 20
70.225
 30
0.0
 40
0.0499999
 41
0.0499999
  0
VERTEX
  8
0
 10
141.155
 20
70.2275
 30
0.0
 40
0.0499999
 41
0.0499999
  0
VERTEX
  8
0
 10
141.15
 20
70.2441
 30
0.0
 40
0.0499999
 41
0.0499999
  0
VERTEX
  8
0
 10
141.15
 20
70.2497
 30
0.0
 40
0.0499999
 41
0.0499999
  0
VERTEX
  8
0
 10
141.15
 20
71.9998
 30
0.0
 40
0.0499999
 41
0.0499999
  0
VERTEX
  8
0
 10
125.151
 20
71.9998
 30
0.0
 40
0.0499999
 41
0.0499999
  0
VERTEX
  8
0
 10
125.151
 20
70.2497
 30
0.0
 40
0.0499999
 41
0.0499999
  0
VERTEX
  8
0
 10
125.151
 20
70.2441
 30
0.0
 40
0.0499999
 41
0.0499999
  0
VERTEX
  8
0
 10
125.144
 20
70.2275
 30
0.0
 40
0.0499999
 41
0.0499999
  0
VERTEX
  8
0
 10
125.144
 20
70.225
 30
0.0
 40
0.0499999
 41
0.0499999
  0
VERTEX
  8
0
 10
125.142
 20
70.2236
 30
0.0
 40
0.0499999
 41
0.0499999
  0
VERTEX
  8
0
 10
125.126
 20
70.2084
 30
0.0
 40
0.0499999
 41
0.0499999
  0
VERTEX
  8
0
 10
125.125
 20
70.207
 30
0.0
 40
0.0499999
 41
0.0499999
  0
VERTEX
  8
0
 10
125.122
 20
70.207
 30
0.0
 40
0.0499999
 41
0.0499999
  0
VERTEX
  8
0
 10
125.105
 20
70.2
 30
0.0
 40
0.0499999
 41
0.0499999
  0
VERTEX
  8
0
 10
125.1
 20
70.2
 30
0.0
 40
0.0499999
 41
0.0499999
  0
VERTEX
  8
0
 10
109.101
 20
70.2
 30
0.0
 40
0.0499999
 41
0.0499999
  0
VERTEX
  8
0
 10
109.094
 20
70.2
 30
0.0
 40
0.0499999
 41
0.0499999
  0
VERTEX
  8
0
 10
109.076
 20
70.207
 30
0.0
 40
0.0499999
 41
0.0499999
  0
VERTEX
  8
0
 10
109.075
 20
70.207
 30
0.0
 40
0.0499999
 41
0.0499999
  0
VERTEX
  8
0
 10
109.072
 20
70.2084
 30
0.0
 40
0.0499999
 41
0.0499999
  0
VERTEX
  8
0
 10
109.057
 20
70.2236
 30
0.0
 40
0.0499999
 41
0.0499999
  0
VERTEX
  8
0
 10
109.057
 20
70.225
 30
0.0
 40
0.0499999
 41
0.0499999
  0
VERTEX
  8
0
 10
109.055
 20
70.2275
 30
0.0
 40
0.0499999
 41
0.0499999
  0
VERTEX
  8
0
 10
109.05
 20
70.2441
 30
0.0
 40
0.0499999
 41
0.0499999
  0
VERTEX
  8
0
 10
109.05
 20
70.2497
 30
0.0
 40
0.0499999
 41
0.0499999
  0
VERTEX
  8
0
 10
109.05
 20
71.9998
 30
0.0
 40
0.0499999
 41
0.0499999
  0
VERTEX
  8
0
 10
93.0508
 20
71.9998
 30
0.0
 40
0.0499999
 41
0.0499999
  0
VERTEX
  8
0
 10
93.0508
 20
70.2497
 30
0.0
 40
0.0499999
 41
0.0499999
  0
VERTEX
  8
0
 10
93.0508
 20
70.2441
 30
0.0
 40
0.0499999
 41
0.0499999
  0
VERTEX
  8
0
 10
93.0437
 20
70.2275
 30
0.0
 40
0.0499999
 41
0.0499999
  0
VERTEX
  8
0
 10
93.0437
 20
70.225
 30
0.0
 40
0.0499999
 41
0.0499999
  0
VERTEX
  8
0
 10
93.0423
 20
70.2236
 30
0.0
 40
0.0499999
 41
0.0499999
  0
VERTEX
  8
0
 10
93.0257
 20
70.2084
 30
0.0
 40
0.0499999
 41
0.0499999
  0
VERTEX
  8
0
 10
93.0243
 20
70.207
 30
0.0
 40
0.0499999
 41
0.0499999
  0
VERTEX
  8
0
 10
93.0219
 20
70.207
 30
0.0
 40
0.0499999
 41
0.0499999
  0
VERTEX
  8
0
 10
93.0053
 20
70.2
 30
0.0
 40
0.0499999
 41
0.0499999
  0
VERTEX
  8
0
 10
92.9996
 20
70.2
 30
0.0
 40
0.0499999
 41
0.0499999
  0
VERTEX
  8
0
 10
77.0008
 20
70.2
 30
0.0
 40
0.0499999
 41
0.0499999
  0
VERTEX
  8
0
 10
76.9938
 20
70.2
 30
0.0
 40
0.0499999
 41
0.0499999
  0
VERTEX
  8
0
 10
76.9758
 20
70.207
 30
0.0
 40
0.0499999
 41
0.0499999
  0
VERTEX
  8
0
 10
76.9744
 20
70.207
 30
0.0
 40
0.0499999
 41
0.0499999
  0
VERTEX
  8
0
 10
76.9719
 20
70.2084
 30
0.0
 40
0.0499999
 41
0.0499999
  0
VERTEX
  8
0
 10
76.9567
 20
70.2236
 30
0.0
 40
0.0499999
 41
0.0499999
  0
VERTEX
  8
0
 10
76.9567
 20
70.225
 30
0.0
 40
0.0499999
 41
0.0499999
  0
VERTEX
  8
0
 10
76.9553
 20
70.2275
 30
0.0
 40
0.0499999
 41
0.0499999
  0
VERTEX
  8
0
 10
76.9497
 20
70.2441
 30
0.0
 40
0.0499999
 41
0.0499999
  0
VERTEX
  8
0
 10
76.9497
 20
70.2497
 30
0.0
 40
0.0499999
 41
0.0499999
  0
VERTEX
  8
0
 10
76.9497
 20
71.9998
 30
0.0
 40
0.0499999
 41
0.0499999
  0
VERTEX
  8
0
 10
60.9505
 20
71.9998
 30
0.0
 40
0.0499999
 41
0.0499999
  0
VERTEX
  8
0
 10
60.9505
 20
68.0007
 30
0.0
 40
0.0499999
 41
0.0499999
  0
VERTEX
  8
0
 10
60.9505
 20
62.9998
 30
0.0
 40
0.0499999
 41
0.0499999
  0
VERTEX
  8
0
 10
60.9505
 20
62.9941
 30
0.0
 40
0.0499999
 41
0.0499999
  0
VERTEX
  8
0
 10
60.9438
 20
62.9779
 30
0.0
 40
0.0499999
 41
0.0499999
  0
VERTEX
  8
0
 10
60.9438
 20
62.9751
 30
0.0
 40
0.0499999
 41
0.0499999
  0
VERTEX
  8
0
 10
60.9424
 20
62.9737
 30
0.0
 40
0.0499999
 41
0.0499999
  0
VERTEX
  8
0
 10
60.9258
 20
62.9585
 30
0.0
 40
0.0499999
 41
0.0499999
  0
VERTEX
  8
0
 10
60.9244
 20
62.9571
 30
0.0
 40
0.0499999
 41
0.0499999
  0
VERTEX
  8
0
 10
60.9215
 20
62.9557
 30
0.0
 40
0.0499999
 41
0.0499999
  0
VERTEX
  8
0
 10
60.9053
 20
62.95
 30
0.0
 40
0.0499999
 41
0.0499999
  0
VERTEX
  8
0
 10
60.8997
 20
62.95
 30
0.0
 40
0.0499999
 41
0.0499999
  0
VERTEX
  8
0
 10
56.8992
 20
62.95
 30
0.0
 40
0.0499999
 41
0.0499999
  0
VERTEX
  8
0
 10
56.8992
 20
46.9498
 30
0.0
 40
0.0499999
 41
0.0499999
  0
VERTEX
  8
0
 10
60.8997
 20
46.9498
 30
0.0
 40
0.0499999
 41
0.0499999
  0
VERTEX
  8
0
 10
60.9053
 20
46.9498
 30
0.0
 40
0.0499999
 41
0.0499999
  0
VERTEX
  8
0
 10
60.9215
 20
46.9441
 30
0.0
 40
0.0499999
 41
0.0499999
  0
VERTEX
  8
0
 10
60.9244
 20
46.9427
 30
0.0
 40
0.0499999
 41
0.0499999
  0
VERTEX
  8
0
 10
60.9258
 20
46.9427
 30
0.0
 40
0.0499999
 41
0.0499999
  0
VERTEX
  8
0
 10
60.9424
 20
46.9276
 30
0.0
 40
0.0499999
 41
0.0499999
  0
VERTEX
  8
0
 10
60.9438
 20
46.9251
 30
0.0
 40
0.0499999
 41
0.0499999
  0
VERTEX
  8
0
 10
60.9438
 20
46.9237
 30
0.0
 40
0.0499999
 41
0.0499999
  0
VERTEX
  8
0
 10
60.9505
 20
46.9071
 30
0.0
 40
0.0499999
 41
0.0499999
  0
VERTEX
  8
0
 10
60.9505
 20
46.9
 30
0.0
 40
0.0499999
 41
0.0499999
  0
VERTEX
  8
0
 10
60.9505
 20
41.9005
 30
0.0
 40
0.0499999
 41
0.0499999
  0
SEQEND
 8
0
  0
ENDSEC
  0
EOF
