<?xml version='1.0' encoding='utf-8'?>
<svg height="204.15mm" viewBox="0.0 0.0 187.30 204.15" width="187.30mm" xmlns="http://www.w3.org/2000/svg" xmlns:cc="http://creativecommons.org/ns#" xmlns:dc="http://purl.org/dc/elements/1.1/" xmlns:inkscape="http://www.inkscape.org/namespaces/inkscape" xmlns:rdf="http://www.w3.org/1999/02/22-rdf-syntax-ns#" xmlns:svg="http://www.w3.org/2000/svg" xmlns:xlink="http://www.w3.org/1999/xlink">
<!--
MyUniversalBox - Box with various options for different styles and lids

Created with Boxes.py (https://boxes.hackerspace-bamberg.de/)
Creation date: 2024-12-13 10:55:30
Command line (remove spaces between dashes): boxes MyUniversalBox - -reference=0 - -FingerJoint_finger=4 - -FingerJoint_space=4 - -thickness=4.0 - -top_edge=F - -bottom_edge=F - -x=45 - -y=120 - -h=30 - -Hinge_style=flush - -burn=-0.05
-->
<title>MyUniversalBox</title>
<metadata>
<rdf:RDF><cc:Work>
<dc:title>Box - MyUniversalBox</dc:title>
<dc:date>2024-12-13 10:55:30</dc:date>
<dc:source>boxes MyUniversalBox --reference=0 --FingerJoint_finger=4 --FingerJoint_surroundingspaces=2 --FingerJoint_space=4 --format=svg --debug=0 --thickness=4.0 --top_edge=F --bottom_edge=F --x=45 --y=120 --h=30 --outside=1 --Hinge_style=flush --burn=-0.05</dc:source>
<dc:description>Box with various options for different styles and lids

Created with Boxes.py (https://boxes.hackerspace-bamberg.de/)
Command line: boxes MyUniversalBox --reference=0 --FingerJoint_finger=4 --FingerJoint_surroundingspaces=2 --FingerJoint_space=4 --format=svg --debug=0 --thickness=4.0 --top_edge=F --bottom_edge=F --x=45 --y=120 --h=30 --outside=1 --Hinge_style=flush --burn=-0.05
Command line short: boxes MyUniversalBox --reference=0 --FingerJoint_finger=4 --FingerJoint_space=4 --thickness=4.0 --top_edge=F --bottom_edge=F --x=45 --y=120 --h=30 --Hinge_style=flush --burn=-0.05
</dc:description>
</cc:Work></rdf:RDF></metadata>
<g id="p-0" style="fill:none;stroke-linecap:round;stroke-linejoin:round;">
  <text dominant-baseline="hanging" font-size="4px" style="font-family: sans-serif ; font-weight: normal; font-style: normal; fill: rgb(255,0,0)" text-anchor="middle" transform="matrix( 1.000 0.000 0.000 1.000 32.550 177.150 )">front</text><path d="M 14.050 194.150 H 24.550 V 190.150 C 24.550 190.141 24.552 190.133 24.557 190.125 C 24.561 190.117 24.567 190.111 24.575 190.107 C 24.583 190.102 24.591 190.100 24.600 190.100 H 40.600 C 40.609 190.100 40.617 190.102 40.625 190.107 C 40.633 190.111 40.639 190.117 40.643 190.125 C 40.648 190.133 40.650 190.141 40.650 190.150 V 194.150 H 51.150 H 55.150 V 189.150 H 51.150 C 51.141 189.150 51.133 189.148 51.125 189.143 C 51.117 189.139 51.111 189.133 51.107 189.125 C 51.102 189.117 51.100 189.109 51.100 189.100 V 173.100 C 51.100 173.091 51.102 173.083 51.107 173.075 C 51.111 173.067 51.117 173.061 51.125 173.057 C 51.133 173.052 51.141 173.050 51.150 173.050 H 55.150 V 168.050 V 164.050 H 51.150 H 40.650 V 165.800 C 40.650 165.809 40.648 165.817 40.643 165.825 C 40.639 165.833 40.633 165.839 40.625 165.843 C 40.617 165.848 40.609 165.850 40.600 165.850 H 24.600 C 24.591 165.850 24.583 165.848 24.575 165.843 C 24.567 165.839 24.561 165.833 24.557 165.825 C 24.552 165.817 24.550 165.809 24.550 165.800 V 164.050 H 14.050 H 10.050 V 168.050 V 173.050 H 14.050 C 14.059 173.050 14.067 173.052 14.075 173.057 C 14.083 173.061 14.089 173.067 14.093 173.075 C 14.098 173.083 14.100 173.091 14.100 173.100 V 189.100 C 14.100 189.109 14.098 189.117 14.093 189.125 C 14.089 189.133 14.083 189.139 14.075 189.143 C 14.067 189.148 14.059 189.150 14.050 189.150 H 10.050 V 194.150 H 14.050" stroke="rgb(0,0,0)" stroke-width="0.05" />
</g>
<g id="p-1" style="fill:none;stroke-linecap:round;stroke-linejoin:round;">
  <text dominant-baseline="hanging" font-size="4px" style="font-family: sans-serif ; font-weight: normal; font-style: normal; fill: rgb(255,0,0)" text-anchor="middle" transform="matrix( 1.000 0.000 0.000 1.000 32.550 145.250 )">back</text><path d="M 14.050 162.250 H 24.550 V 158.250 C 24.550 158.241 24.552 158.233 24.557 158.225 C 24.561 158.217 24.567 158.211 24.575 158.207 C 24.583 158.202 24.591 158.200 24.600 158.200 H 40.600 C 40.609 158.200 40.617 158.202 40.625 158.207 C 40.633 158.211 40.639 158.217 40.643 158.225 C 40.648 158.233 40.650 158.241 40.650 158.250 V 162.250 H 51.150 H 55.150 V 157.250 H 51.150 C 51.141 157.250 51.133 157.248 51.125 157.243 C 51.117 157.239 51.111 157.233 51.107 157.225 C 51.102 157.217 51.100 157.209 51.100 157.200 V 141.200 C 51.100 141.191 51.102 141.183 51.107 141.175 C 51.111 141.167 51.117 141.161 51.125 141.157 C 51.133 141.152 51.141 141.150 51.150 141.150 H 55.150 V 136.150 V 132.150 H 51.150 H 40.650 V 133.900 C 40.650 133.909 40.648 133.917 40.643 133.925 C 40.639 133.933 40.633 133.939 40.625 133.943 C 40.617 133.948 40.609 133.950 40.600 133.950 H 24.600 C 24.591 133.950 24.583 133.948 24.575 133.943 C 24.567 133.939 24.561 133.933 24.557 133.925 C 24.552 133.917 24.550 133.909 24.550 133.900 V 132.150 H 14.050 H 10.050 V 136.150 V 141.150 H 14.050 C 14.059 141.150 14.067 141.152 14.075 141.157 C 14.083 141.161 14.089 141.167 14.093 141.175 C 14.098 141.183 14.100 141.191 14.100 141.200 V 157.200 C 14.100 157.209 14.098 157.217 14.093 157.225 C 14.089 157.233 14.083 157.239 14.075 157.243 C 14.067 157.248 14.059 157.250 14.050 157.250 H 10.050 V 162.250 H 14.050" stroke="rgb(0,0,0)" stroke-width="0.05" />
</g>
<g id="p-2" style="fill:none;stroke-linecap:round;stroke-linejoin:round;">
  <path d="M 39.650 56.400 C 39.650 57.761 39.259 59.094 38.523 60.239 C 37.787 61.384 36.738 62.293 35.499 62.858 C 34.261 63.424 32.887 63.621 31.540 63.428 C 30.192 63.234 28.929 62.657 27.900 61.766 C 26.872 60.874 26.121 59.706 25.738 58.400 C 25.354 57.094 25.354 55.706 25.738 54.400 C 26.121 53.094 26.872 51.926 27.900 51.034 C 28.929 50.143 30.192 49.566 31.540 49.372 C 32.887 49.179 34.261 49.376 35.499 49.942 C 36.738 50.507 37.787 51.416 38.523 52.561 C 39.259 53.706 39.650 55.039 39.650 56.400 Z" stroke="rgb(0,0,255)" stroke-width="0.05" />
  <text dominant-baseline="hanging" font-size="4px" style="font-family: sans-serif ; font-weight: normal; font-style: normal; fill: rgb(255,0,0)" text-anchor="middle" transform="matrix( 1.000 0.000 0.000 1.000 32.550 68.350 )">Bottom</text><path d="M 14.050 126.350 H 24.550 C 24.559 126.350 24.567 126.352 24.575 126.357 C 24.583 126.361 24.589 126.367 24.593 126.375 C 24.598 126.383 24.600 126.391 24.600 126.400 V 130.400 H 40.600 V 126.400 C 40.600 126.391 40.602 126.383 40.607 126.375 C 40.611 126.367 40.617 126.361 40.625 126.357 C 40.633 126.352 40.641 126.350 40.650 126.350 H 51.150 V 110.350 C 51.150 110.341 51.152 110.333 51.157 110.325 C 51.161 110.317 51.167 110.311 51.175 110.307 C 51.183 110.302 51.191 110.300 51.200 110.300 H 55.200 V 94.300 H 51.200 C 51.191 94.300 51.183 94.298 51.175 94.293 C 51.167 94.289 51.161 94.283 51.157 94.275 C 51.152 94.267 51.150 94.259 51.150 94.250 V 78.250 C 51.150 78.241 51.152 78.233 51.157 78.225 C 51.161 78.217 51.167 78.211 51.175 78.207 C 51.183 78.202 51.191 78.200 51.200 78.200 H 55.200 V 62.200 H 51.200 C 51.191 62.200 51.183 62.198 51.175 62.193 C 51.167 62.189 51.161 62.183 51.157 62.175 C 51.152 62.167 51.150 62.159 51.150 62.150 V 46.150 C 51.150 46.141 51.152 46.133 51.157 46.125 C 51.161 46.117 51.167 46.111 51.175 46.107 C 51.183 46.102 51.191 46.100 51.200 46.100 H 55.200 V 30.100 H 51.200 C 51.191 30.100 51.183 30.098 51.175 30.093 C 51.167 30.089 51.161 30.083 51.157 30.075 C 51.152 30.067 51.150 30.059 51.150 30.050 V 14.050 H 40.650 C 40.641 14.050 40.633 14.048 40.625 14.043 C 40.617 14.039 40.611 14.033 40.607 14.025 C 40.602 14.017 40.600 14.009 40.600 14.000 V 10.000 H 24.600 V 14.000 C 24.600 14.009 24.598 14.017 24.593 14.025 C 24.589 14.033 24.583 14.039 24.575 14.043 C 24.567 14.048 24.559 14.050 24.550 14.050 H 14.050 V 30.050 C 14.050 30.059 14.048 30.067 14.043 30.075 C 14.039 30.083 14.033 30.089 14.025 30.093 C 14.017 30.098 14.009 30.100 14.000 30.100 H 10.000 V 46.100 H 14.000 C 14.009 46.100 14.017 46.102 14.025 46.107 C 14.033 46.111 14.039 46.117 14.043 46.125 C 14.048 46.133 14.050 46.141 14.050 46.150 V 62.150 C 14.050 62.159 14.048 62.167 14.043 62.175 C 14.039 62.183 14.033 62.189 14.025 62.193 C 14.017 62.198 14.009 62.200 14.000 62.200 H 10.000 V 78.200 H 14.000 C 14.009 78.200 14.017 78.202 14.025 78.207 C 14.033 78.211 14.039 78.217 14.043 78.225 C 14.048 78.233 14.050 78.241 14.050 78.250 V 94.250 C 14.050 94.259 14.048 94.267 14.043 94.275 C 14.039 94.283 14.033 94.289 14.025 94.293 C 14.017 94.298 14.009 94.300 14.000 94.300 H 10.000 V 110.300 H 14.000 C 14.009 110.300 14.017 110.302 14.025 110.307 C 14.033 110.311 14.039 110.317 14.043 110.325 C 14.048 110.333 14.050 110.341 14.050 110.350 V 126.350" stroke="rgb(0,0,0)" stroke-width="0.05" />
</g>
<g id="p-3" style="fill:none;stroke-linecap:round;stroke-linejoin:round;">
  <path d="M 165.225 171.750 H 157.150 C 157.141 171.750 157.133 171.748 157.125 171.743 C 157.117 171.739 157.111 171.733 157.107 171.725 C 157.102 171.717 157.100 171.709 157.100 171.700 V 163.700 C 157.100 163.691 157.102 163.683 157.107 163.675 C 157.111 163.667 157.117 163.661 157.125 163.657 C 157.133 163.652 157.141 163.650 157.150 163.650 H 173.300 C 173.309 163.650 173.317 163.652 173.325 163.657 C 173.333 163.661 173.339 163.667 173.343 163.675 C 173.348 163.683 173.350 163.691 173.350 163.700 V 171.700 C 173.350 171.709 173.348 171.717 173.343 171.725 C 173.339 171.733 173.333 171.739 173.325 171.743 C 173.317 171.748 173.309 171.750 173.300 171.750 H 165.225 Z" stroke="rgb(0,0,255)" stroke-width="0.05" />
  <path d="M 88.950 182.000 H 88.200 C 88.191 182.000 88.183 181.998 88.175 181.993 C 88.167 181.989 88.161 181.983 88.157 181.975 C 88.152 181.967 88.150 181.959 88.150 181.950 V 176.450 C 88.150 176.441 88.152 176.433 88.157 176.425 C 88.161 176.417 88.167 176.411 88.175 176.407 C 88.183 176.402 88.191 176.400 88.200 176.400 H 89.700 C 89.709 176.400 89.717 176.402 89.725 176.407 C 89.733 176.411 89.739 176.417 89.743 176.425 C 89.748 176.433 89.750 176.441 89.750 176.450 V 181.950 C 89.750 181.959 89.748 181.967 89.743 181.975 C 89.739 181.983 89.733 181.989 89.725 181.993 C 89.717 181.998 89.709 182.000 89.700 182.000 H 88.950 Z" stroke="rgb(0,0,255)" stroke-width="0.05" />
  <path d="M 92.950 182.000 H 92.200 C 92.191 182.000 92.183 181.998 92.175 181.993 C 92.167 181.989 92.161 181.983 92.157 181.975 C 92.152 181.967 92.150 181.959 92.150 181.950 V 176.450 C 92.150 176.441 92.152 176.433 92.157 176.425 C 92.161 176.417 92.167 176.411 92.175 176.407 C 92.183 176.402 92.191 176.400 92.200 176.400 H 93.700 C 93.709 176.400 93.717 176.402 93.725 176.407 C 93.733 176.411 93.739 176.417 93.743 176.425 C 93.748 176.433 93.750 176.441 93.750 176.450 V 181.950 C 93.750 181.959 93.748 181.967 93.743 181.975 C 93.739 181.983 93.733 181.989 93.725 181.993 C 93.717 181.998 93.709 182.000 93.700 182.000 H 92.950 Z" stroke="rgb(0,0,255)" stroke-width="0.05" />
  <path d="M 96.950 182.000 H 96.200 C 96.191 182.000 96.183 181.998 96.175 181.993 C 96.167 181.989 96.161 181.983 96.157 181.975 C 96.152 181.967 96.150 181.959 96.150 181.950 V 176.450 C 96.150 176.441 96.152 176.433 96.157 176.425 C 96.161 176.417 96.167 176.411 96.175 176.407 C 96.183 176.402 96.191 176.400 96.200 176.400 H 97.700 C 97.709 176.400 97.717 176.402 97.725 176.407 C 97.733 176.411 97.739 176.417 97.743 176.425 C 97.748 176.433 97.750 176.441 97.750 176.450 V 181.950 C 97.750 181.959 97.748 181.967 97.743 181.975 C 97.739 181.983 97.733 181.989 97.725 181.993 C 97.717 181.998 97.709 182.000 97.700 182.000 H 96.950 Z" stroke="rgb(0,0,255)" stroke-width="0.05" />
  <path d="M 100.950 182.000 H 100.200 C 100.191 182.000 100.183 181.998 100.175 181.993 C 100.167 181.989 100.161 181.983 100.157 181.975 C 100.152 181.967 100.150 181.959 100.150 181.950 V 176.450 C 100.150 176.441 100.152 176.433 100.157 176.425 C 100.161 176.417 100.167 176.411 100.175 176.407 C 100.183 176.402 100.191 176.400 100.200 176.400 H 101.700 C 101.709 176.400 101.717 176.402 101.725 176.407 C 101.733 176.411 101.739 176.417 101.743 176.425 C 101.748 176.433 101.750 176.441 101.750 176.450 V 181.950 C 101.750 181.959 101.748 181.967 101.743 181.975 C 101.739 181.983 101.733 181.989 101.725 181.993 C 101.717 181.998 101.709 182.000 101.700 182.000 H 100.950 Z" stroke="rgb(0,0,255)" stroke-width="0.05" />
  <path d="M 104.950 182.000 H 104.200 C 104.191 182.000 104.183 181.998 104.175 181.993 C 104.167 181.989 104.161 181.983 104.157 181.975 C 104.152 181.967 104.150 181.959 104.150 181.950 V 176.450 C 104.150 176.441 104.152 176.433 104.157 176.425 C 104.161 176.417 104.167 176.411 104.175 176.407 C 104.183 176.402 104.191 176.400 104.200 176.400 H 105.700 C 105.709 176.400 105.717 176.402 105.725 176.407 C 105.733 176.411 105.739 176.417 105.743 176.425 C 105.748 176.433 105.750 176.441 105.750 176.450 V 181.950 C 105.750 181.959 105.748 181.967 105.743 181.975 C 105.739 181.983 105.733 181.989 105.725 181.993 C 105.717 181.998 105.709 182.000 105.700 182.000 H 104.950 Z" stroke="rgb(0,0,255)" stroke-width="0.05" />
  <path d="M 108.950 182.000 H 108.200 C 108.191 182.000 108.183 181.998 108.175 181.993 C 108.167 181.989 108.161 181.983 108.157 181.975 C 108.152 181.967 108.150 181.959 108.150 181.950 V 176.450 C 108.150 176.441 108.152 176.433 108.157 176.425 C 108.161 176.417 108.167 176.411 108.175 176.407 C 108.183 176.402 108.191 176.400 108.200 176.400 H 109.700 C 109.709 176.400 109.717 176.402 109.725 176.407 C 109.733 176.411 109.739 176.417 109.743 176.425 C 109.748 176.433 109.750 176.441 109.750 176.450 V 181.950 C 109.750 181.959 109.748 181.967 109.743 181.975 C 109.739 181.983 109.733 181.989 109.725 181.993 C 109.717 181.998 109.709 182.000 109.700 182.000 H 108.950 Z" stroke="rgb(0,0,255)" stroke-width="0.05" />
  <path d="M 112.950 182.000 H 112.200 C 112.191 182.000 112.183 181.998 112.175 181.993 C 112.167 181.989 112.161 181.983 112.157 181.975 C 112.152 181.967 112.150 181.959 112.150 181.950 V 176.450 C 112.150 176.441 112.152 176.433 112.157 176.425 C 112.161 176.417 112.167 176.411 112.175 176.407 C 112.183 176.402 112.191 176.400 112.200 176.400 H 113.700 C 113.709 176.400 113.717 176.402 113.725 176.407 C 113.733 176.411 113.739 176.417 113.743 176.425 C 113.748 176.433 113.750 176.441 113.750 176.450 V 181.950 C 113.750 181.959 113.748 181.967 113.743 181.975 C 113.739 181.983 113.733 181.989 113.725 181.993 C 113.717 181.998 113.709 182.000 113.700 182.000 H 112.950 Z" stroke="rgb(0,0,255)" stroke-width="0.05" />
  <path d="M 116.950 182.000 H 116.200 C 116.191 182.000 116.183 181.998 116.175 181.993 C 116.167 181.989 116.161 181.983 116.157 181.975 C 116.152 181.967 116.150 181.959 116.150 181.950 V 176.450 C 116.150 176.441 116.152 176.433 116.157 176.425 C 116.161 176.417 116.167 176.411 116.175 176.407 C 116.183 176.402 116.191 176.400 116.200 176.400 H 117.700 C 117.709 176.400 117.717 176.402 117.725 176.407 C 117.733 176.411 117.739 176.417 117.743 176.425 C 117.748 176.433 117.750 176.441 117.750 176.450 V 181.950 C 117.750 181.959 117.748 181.967 117.743 181.975 C 117.739 181.983 117.733 181.989 117.725 181.993 C 117.717 181.998 117.709 182.000 117.700 182.000 H 116.950 Z" stroke="rgb(0,0,255)" stroke-width="0.05" />
  <path d="M 120.950 182.000 H 120.200 C 120.191 182.000 120.183 181.998 120.175 181.993 C 120.167 181.989 120.161 181.983 120.157 181.975 C 120.152 181.967 120.150 181.959 120.150 181.950 V 176.450 C 120.150 176.441 120.152 176.433 120.157 176.425 C 120.161 176.417 120.167 176.411 120.175 176.407 C 120.183 176.402 120.191 176.400 120.200 176.400 H 121.700 C 121.709 176.400 121.717 176.402 121.725 176.407 C 121.733 176.411 121.739 176.417 121.743 176.425 C 121.748 176.433 121.750 176.441 121.750 176.450 V 181.950 C 121.750 181.959 121.748 181.967 121.743 181.975 C 121.739 181.983 121.733 181.989 121.725 181.993 C 121.717 181.998 121.709 182.000 121.700 182.000 H 120.950 Z" stroke="rgb(0,0,255)" stroke-width="0.05" />
  <path d="M 124.950 182.000 H 124.200 C 124.191 182.000 124.183 181.998 124.175 181.993 C 124.167 181.989 124.161 181.983 124.157 181.975 C 124.152 181.967 124.150 181.959 124.150 181.950 V 176.450 C 124.150 176.441 124.152 176.433 124.157 176.425 C 124.161 176.417 124.167 176.411 124.175 176.407 C 124.183 176.402 124.191 176.400 124.200 176.400 H 125.700 C 125.709 176.400 125.717 176.402 125.725 176.407 C 125.733 176.411 125.739 176.417 125.743 176.425 C 125.748 176.433 125.750 176.441 125.750 176.450 V 181.950 C 125.750 181.959 125.748 181.967 125.743 181.975 C 125.739 181.983 125.733 181.989 125.725 181.993 C 125.717 181.998 125.709 182.000 125.700 182.000 H 124.950 Z" stroke="rgb(0,0,255)" stroke-width="0.05" />
  <path d="M 128.950 182.000 H 128.200 C 128.191 182.000 128.183 181.998 128.175 181.993 C 128.167 181.989 128.161 181.983 128.157 181.975 C 128.152 181.967 128.150 181.959 128.150 181.950 V 176.450 C 128.150 176.441 128.152 176.433 128.157 176.425 C 128.161 176.417 128.167 176.411 128.175 176.407 C 128.183 176.402 128.191 176.400 128.200 176.400 H 129.700 C 129.709 176.400 129.717 176.402 129.725 176.407 C 129.733 176.411 129.739 176.417 129.743 176.425 C 129.748 176.433 129.750 176.441 129.750 176.450 V 181.950 C 129.750 181.959 129.748 181.967 129.743 181.975 C 129.739 181.983 129.733 181.989 129.725 181.993 C 129.717 181.998 129.709 182.000 129.700 182.000 H 128.950 Z" stroke="rgb(0,0,255)" stroke-width="0.05" />
  <path d="M 132.950 182.000 H 132.200 C 132.191 182.000 132.183 181.998 132.175 181.993 C 132.167 181.989 132.161 181.983 132.157 181.975 C 132.152 181.967 132.150 181.959 132.150 181.950 V 176.450 C 132.150 176.441 132.152 176.433 132.157 176.425 C 132.161 176.417 132.167 176.411 132.175 176.407 C 132.183 176.402 132.191 176.400 132.200 176.400 H 133.700 C 133.709 176.400 133.717 176.402 133.725 176.407 C 133.733 176.411 133.739 176.417 133.743 176.425 C 133.748 176.433 133.750 176.441 133.750 176.450 V 181.950 C 133.750 181.959 133.748 181.967 133.743 181.975 C 133.739 181.983 133.733 181.989 133.725 181.993 C 133.717 181.998 133.709 182.000 133.700 182.000 H 132.950 Z" stroke="rgb(0,0,255)" stroke-width="0.05" />
  <path d="M 136.950 182.000 H 136.200 C 136.191 182.000 136.183 181.998 136.175 181.993 C 136.167 181.989 136.161 181.983 136.157 181.975 C 136.152 181.967 136.150 181.959 136.150 181.950 V 176.450 C 136.150 176.441 136.152 176.433 136.157 176.425 C 136.161 176.417 136.167 176.411 136.175 176.407 C 136.183 176.402 136.191 176.400 136.200 176.400 H 137.700 C 137.709 176.400 137.717 176.402 137.725 176.407 C 137.733 176.411 137.739 176.417 137.743 176.425 C 137.748 176.433 137.750 176.441 137.750 176.450 V 181.950 C 137.750 181.959 137.748 181.967 137.743 181.975 C 137.739 181.983 137.733 181.989 137.725 181.993 C 137.717 181.998 137.709 182.000 137.700 182.000 H 136.950 Z" stroke="rgb(0,0,255)" stroke-width="0.05" />
  <path d="M 140.950 182.000 H 140.200 C 140.191 182.000 140.183 181.998 140.175 181.993 C 140.167 181.989 140.161 181.983 140.157 181.975 C 140.152 181.967 140.150 181.959 140.150 181.950 V 176.450 C 140.150 176.441 140.152 176.433 140.157 176.425 C 140.161 176.417 140.167 176.411 140.175 176.407 C 140.183 176.402 140.191 176.400 140.200 176.400 H 141.700 C 141.709 176.400 141.717 176.402 141.725 176.407 C 141.733 176.411 141.739 176.417 141.743 176.425 C 141.748 176.433 141.750 176.441 141.750 176.450 V 181.950 C 141.750 181.959 141.748 181.967 141.743 181.975 C 141.739 181.983 141.733 181.989 141.725 181.993 C 141.717 181.998 141.709 182.000 141.700 182.000 H 140.950 Z" stroke="rgb(0,0,255)" stroke-width="0.05" />
  <text dominant-baseline="hanging" font-size="4px" style="font-family: sans-serif ; font-weight: normal; font-style: normal; fill: rgb(255,0,0)" text-anchor="middle" transform="matrix( 1.000 0.000 0.000 1.000 116.950 177.150 )">left</text><path d="M 60.950 194.150 H 76.950 V 190.150 C 76.950 190.141 76.952 190.133 76.957 190.125 C 76.961 190.117 76.967 190.111 76.975 190.107 C 76.983 190.102 76.991 190.100 77.000 190.100 H 93.000 C 93.009 190.100 93.017 190.102 93.025 190.107 C 93.033 190.111 93.039 190.117 93.043 190.125 C 93.048 190.133 93.050 190.141 93.050 190.150 V 194.150 H 109.050 V 190.150 C 109.050 190.141 109.052 190.133 109.057 190.125 C 109.061 190.117 109.067 190.111 109.075 190.107 C 109.083 190.102 109.091 190.100 109.100 190.100 H 125.100 C 125.109 190.100 125.117 190.102 125.125 190.107 C 125.133 190.111 125.139 190.117 125.143 190.125 C 125.148 190.133 125.150 190.141 125.150 190.150 V 194.150 H 141.150 V 190.150 C 141.150 190.141 141.152 190.133 141.157 190.125 C 141.161 190.117 141.167 190.111 141.175 190.107 C 141.183 190.102 141.191 190.100 141.200 190.100 H 157.200 C 157.209 190.100 157.217 190.102 157.225 190.107 C 157.233 190.111 157.239 190.117 157.243 190.125 C 157.248 190.133 157.250 190.141 157.250 190.150 V 194.150 H 173.250 V 189.150 C 173.250 189.141 173.252 189.133 173.257 189.125 C 173.261 189.117 173.267 189.111 173.275 189.107 C 173.283 189.102 173.291 189.100 173.300 189.100 H 177.300 V 173.100 H 173.300 C 173.291 173.100 173.283 173.098 173.275 173.093 C 173.267 173.089 173.261 173.083 173.257 173.075 C 173.252 173.067 173.250 173.059 173.250 173.050 V 168.050 V 164.050 H 157.250 V 165.800 C 157.250 165.809 157.248 165.817 157.243 165.825 C 157.239 165.833 157.233 165.839 157.225 165.843 C 157.217 165.848 157.209 165.850 157.200 165.850 H 141.200 C 141.191 165.850 141.183 165.848 141.175 165.843 C 141.167 165.839 141.161 165.833 141.157 165.825 C 141.152 165.817 141.150 165.809 141.150 165.800 V 164.050 H 125.150 V 165.800 C 125.150 165.809 125.148 165.817 125.143 165.825 C 125.139 165.833 125.133 165.839 125.125 165.843 C 125.117 165.848 125.109 165.850 125.100 165.850 H 109.100 C 109.091 165.850 109.083 165.848 109.075 165.843 C 109.067 165.839 109.061 165.833 109.057 165.825 C 109.052 165.817 109.050 165.809 109.050 165.800 V 164.050 H 93.050 V 165.800 C 93.050 165.809 93.048 165.817 93.043 165.825 C 93.039 165.833 93.033 165.839 93.025 165.843 C 93.017 165.848 93.009 165.850 93.000 165.850 H 77.000 C 76.991 165.850 76.983 165.848 76.975 165.843 C 76.967 165.839 76.961 165.833 76.957 165.825 C 76.952 165.817 76.950 165.809 76.950 165.800 V 164.050 H 60.950 V 168.050 V 173.050 C 60.950 173.059 60.948 173.067 60.943 173.075 C 60.939 173.083 60.933 173.089 60.925 173.093 C 60.917 173.098 60.909 173.100 60.900 173.100 H 56.900 V 189.100 H 60.900 C 60.909 189.100 60.917 189.102 60.925 189.107 C 60.933 189.111 60.939 189.117 60.943 189.125 C 60.948 189.133 60.950 189.141 60.950 189.150 V 194.150" stroke="rgb(0,0,0)" stroke-width="0.05" />
</g>
<g id="p-4" style="fill:none;stroke-linecap:round;stroke-linejoin:round;">
  <text dominant-baseline="hanging" font-size="4px" style="font-family: sans-serif ; font-weight: normal; font-style: normal; fill: rgb(255,0,0)" text-anchor="middle" transform="matrix( 1.000 0.000 0.000 1.000 116.950 145.250 )">right</text><path d="M 60.950 162.250 H 76.950 V 158.250 C 76.950 158.241 76.952 158.233 76.957 158.225 C 76.961 158.217 76.967 158.211 76.975 158.207 C 76.983 158.202 76.991 158.200 77.000 158.200 H 93.000 C 93.009 158.200 93.017 158.202 93.025 158.207 C 93.033 158.211 93.039 158.217 93.043 158.225 C 93.048 158.233 93.050 158.241 93.050 158.250 V 162.250 H 109.050 V 158.250 C 109.050 158.241 109.052 158.233 109.057 158.225 C 109.061 158.217 109.067 158.211 109.075 158.207 C 109.083 158.202 109.091 158.200 109.100 158.200 H 125.100 C 125.109 158.200 125.117 158.202 125.125 158.207 C 125.133 158.211 125.139 158.217 125.143 158.225 C 125.148 158.233 125.150 158.241 125.150 158.250 V 162.250 H 141.150 V 158.250 C 141.150 158.241 141.152 158.233 141.157 158.225 C 141.161 158.217 141.167 158.211 141.175 158.207 C 141.183 158.202 141.191 158.200 141.200 158.200 H 157.200 C 157.209 158.200 157.217 158.202 157.225 158.207 C 157.233 158.211 157.239 158.217 157.243 158.225 C 157.248 158.233 157.250 158.241 157.250 158.250 V 162.250 H 173.250 V 157.250 C 173.250 157.241 173.252 157.233 173.257 157.225 C 173.261 157.217 173.267 157.211 173.275 157.207 C 173.283 157.202 173.291 157.200 173.300 157.200 H 177.300 V 141.200 H 173.300 C 173.291 141.200 173.283 141.198 173.275 141.193 C 173.267 141.189 173.261 141.183 173.257 141.175 C 173.252 141.167 173.250 141.159 173.250 141.150 V 136.150 V 132.150 H 157.250 V 133.900 C 157.250 133.909 157.248 133.917 157.243 133.925 C 157.239 133.933 157.233 133.939 157.225 133.943 C 157.217 133.948 157.209 133.950 157.200 133.950 H 141.200 C 141.191 133.950 141.183 133.948 141.175 133.943 C 141.167 133.939 141.161 133.933 141.157 133.925 C 141.152 133.917 141.150 133.909 141.150 133.900 V 132.150 H 125.150 V 133.900 C 125.150 133.909 125.148 133.917 125.143 133.925 C 125.139 133.933 125.133 133.939 125.125 133.943 C 125.117 133.948 125.109 133.950 125.100 133.950 H 109.100 C 109.091 133.950 109.083 133.948 109.075 133.943 C 109.067 133.939 109.061 133.933 109.057 133.925 C 109.052 133.917 109.050 133.909 109.050 133.900 V 132.150 H 93.050 V 133.900 C 93.050 133.909 93.048 133.917 93.043 133.925 C 93.039 133.933 93.033 133.939 93.025 133.943 C 93.017 133.948 93.009 133.950 93.000 133.950 H 77.000 C 76.991 133.950 76.983 133.948 76.975 133.943 C 76.967 133.939 76.961 133.933 76.957 133.925 C 76.952 133.917 76.950 133.909 76.950 133.900 V 132.150 H 60.950 V 136.150 V 141.150 C 60.950 141.159 60.948 141.167 60.943 141.175 C 60.939 141.183 60.933 141.189 60.925 141.193 C 60.917 141.198 60.909 141.200 60.900 141.200 H 56.900 V 157.200 H 60.900 C 60.909 157.200 60.917 157.202 60.925 157.207 C 60.933 157.211 60.939 157.217 60.943 157.225 C 60.948 157.233 60.950 157.241 60.950 157.250 V 162.250" stroke="rgb(0,0,0)" stroke-width="0.05" />
</g>
</svg>