<?xml version='1.0' encoding='utf-8'?>
<svg height="204.60mm" viewBox="0.0 0.0 187.40 204.60" width="187.40mm" xmlns="http://www.w3.org/2000/svg" xmlns:cc="http://creativecommons.org/ns#" xmlns:dc="http://purl.org/dc/elements/1.1/" xmlns:inkscape="http://www.inkscape.org/namespaces/inkscape" xmlns:rdf="http://www.w3.org/1999/02/22-rdf-syntax-ns#" xmlns:svg="http://www.w3.org/2000/svg" xmlns:xlink="http://www.w3.org/1999/xlink">
<!--
MyUniversalBox - Box with various options for different styles and lids

Created with Boxes.py (https://boxes.hackerspace-bamberg.de/)
Creation date: 2024-12-06 12:55:29
Command line (remove spaces between dashes): boxes MyUniversalBox - -reference=0 - -FingerJoint_finger=4 - -FingerJoint_space=4 - -thickness=4.0 - -top_edge=F - -bottom_edge=F - -x=45 - -y=120 - -h=30 - -Hinge_style=flush
-->
<title>MyUniversalBox</title>
<metadata>
<rdf:RDF><cc:Work>
<dc:title>Box - MyUniversalBox</dc:title>
<dc:date>2024-12-06 12:55:29</dc:date>
<dc:source>boxes MyUniversalBox --reference=0 --FingerJoint_finger=4 --FingerJoint_surroundingspaces=2 --FingerJoint_space=4 --format=svg --debug=0 --thickness=4.0 --top_edge=F --bottom_edge=F --x=45 --y=120 --h=30 --outside=1 --Hinge_style=flush</dc:source>
<dc:description>Box with various options for different styles and lids

Created with Boxes.py (https://boxes.hackerspace-bamberg.de/)
Command line: boxes MyUniversalBox --reference=0 --FingerJoint_finger=4 --FingerJoint_surroundingspaces=2 --FingerJoint_space=4 --format=svg --debug=0 --thickness=4.0 --top_edge=F --bottom_edge=F --x=45 --y=120 --h=30 --outside=1 --Hinge_style=flush
Command line short: boxes MyUniversalBox --reference=0 --FingerJoint_finger=4 --FingerJoint_space=4 --thickness=4.0 --top_edge=F --bottom_edge=F --x=45 --y=120 --h=30 --Hinge_style=flush
</dc:description>
</cc:Work></rdf:RDF></metadata>
<g id="p-0" style="fill:none;stroke-linecap:round;stroke-linejoin:round;">
  <text dominant-baseline="hanging" font-size="4px" style="font-family: sans-serif ; font-weight: normal; font-style: normal; fill: rgb(255,0,0)" text-anchor="middle" transform="matrix( 1.000 0.000 0.000 1.000 32.600 177.600 )">front</text><path d="M 14.100 194.600 H 24.600 C 24.655 194.600 24.700 194.555 24.700 194.500 V 190.600 C 24.700 190.500 24.600 190.600 24.700 190.600 H 40.500 C 40.600 190.600 40.500 190.500 40.500 190.600 V 194.500 C 40.500 194.555 40.545 194.600 40.600 194.600 H 51.100 H 55.100 C 55.155 194.600 55.200 194.555 55.200 194.500 V 189.500 C 55.200 189.445 55.155 189.400 55.100 189.400 H 51.200 C 51.100 189.400 51.200 189.500 51.200 189.400 V 173.600 C 51.200 173.500 51.100 173.600 51.200 173.600 H 55.100 C 55.155 173.600 55.200 173.555 55.200 173.500 V 168.500 V 164.500 C 55.200 164.445 55.155 164.400 55.100 164.400 H 51.100 H 40.600 C 40.545 164.400 40.500 164.445 40.500 164.500 V 166.000 C 40.500 166.100 40.600 166.000 40.500 166.000 H 24.700 C 24.600 166.000 24.700 166.100 24.700 166.000 V 164.500 C 24.700 164.445 24.655 164.400 24.600 164.400 H 14.100 H 10.100 C 10.045 164.400 10.000 164.445 10.000 164.500 V 168.500 V 173.500 C 10.000 173.555 10.045 173.600 10.100 173.600 H 14.000 C 14.100 173.600 14.000 173.500 14.000 173.600 V 189.400 C 14.000 189.500 14.100 189.400 14.000 189.400 H 10.100 C 10.045 189.400 10.000 189.445 10.000 189.500 V 194.500 C 10.000 194.555 10.045 194.600 10.100 194.600 H 14.100" stroke="rgb(0,0,0)" stroke-width="0.20" />
</g>
<g id="p-1" style="fill:none;stroke-linecap:round;stroke-linejoin:round;">
  <text dominant-baseline="hanging" font-size="4px" style="font-family: sans-serif ; font-weight: normal; font-style: normal; fill: rgb(255,0,0)" text-anchor="middle" transform="matrix( 1.000 0.000 0.000 1.000 32.600 145.400 )">back</text><path d="M 14.100 162.400 H 24.600 C 24.655 162.400 24.700 162.355 24.700 162.300 V 158.400 C 24.700 158.300 24.600 158.400 24.700 158.400 H 40.500 C 40.600 158.400 40.500 158.300 40.500 158.400 V 162.300 C 40.500 162.355 40.545 162.400 40.600 162.400 H 51.100 H 55.100 C 55.155 162.400 55.200 162.355 55.200 162.300 V 157.300 C 55.200 157.245 55.155 157.200 55.100 157.200 H 51.200 C 51.100 157.200 51.200 157.300 51.200 157.200 V 141.400 C 51.200 141.300 51.100 141.400 51.200 141.400 H 55.100 C 55.155 141.400 55.200 141.355 55.200 141.300 V 136.300 V 132.300 C 55.200 132.245 55.155 132.200 55.100 132.200 H 51.100 H 40.600 C 40.545 132.200 40.500 132.245 40.500 132.300 V 133.800 C 40.500 133.900 40.600 133.800 40.500 133.800 H 24.700 C 24.600 133.800 24.700 133.900 24.700 133.800 V 132.300 C 24.700 132.245 24.655 132.200 24.600 132.200 H 14.100 H 10.100 C 10.045 132.200 10.000 132.245 10.000 132.300 V 136.300 V 141.300 C 10.000 141.355 10.045 141.400 10.100 141.400 H 14.000 C 14.100 141.400 14.000 141.300 14.000 141.400 V 157.200 C 14.000 157.300 14.100 157.200 14.000 157.200 H 10.100 C 10.045 157.200 10.000 157.245 10.000 157.300 V 162.300 C 10.000 162.355 10.045 162.400 10.100 162.400 H 14.100" stroke="rgb(0,0,0)" stroke-width="0.20" />
</g>
<g id="p-2" style="fill:none;stroke-linecap:round;stroke-linejoin:round;">
  <path d="M 39.550 56.100 C 39.550 57.432 39.167 58.737 38.447 59.857 C 37.726 60.978 36.699 61.868 35.487 62.422 C 34.275 62.975 32.930 63.169 31.611 62.979 C 30.292 62.790 29.056 62.225 28.049 61.352 C 27.042 60.480 26.307 59.336 25.932 58.058 C 25.556 56.780 25.556 55.420 25.932 54.142 C 26.307 52.864 27.042 51.720 28.049 50.848 C 29.056 49.975 30.292 49.410 31.611 49.221 C 32.930 49.031 34.275 49.225 35.487 49.778 C 36.699 50.332 37.726 51.222 38.447 52.343 C 39.167 53.463 39.550 54.768 39.550 56.100 Z" stroke="rgb(0,0,255)" stroke-width="0.20" />
  <text dominant-baseline="hanging" font-size="4px" style="font-family: sans-serif ; font-weight: normal; font-style: normal; fill: rgb(255,0,0)" text-anchor="middle" transform="matrix( 1.000 0.000 0.000 1.000 32.600 68.200 )">Bottom</text><path d="M 14.100 126.200 H 24.500 C 24.600 126.200 24.500 126.100 24.500 126.200 V 130.100 C 24.500 130.155 24.545 130.200 24.600 130.200 H 40.600 C 40.655 130.200 40.700 130.155 40.700 130.100 V 126.200 C 40.700 126.100 40.600 126.200 40.700 126.200 H 51.100 C 51.155 126.200 51.200 126.155 51.200 126.100 V 110.200 C 51.200 110.100 51.100 110.200 51.200 110.200 H 55.100 C 55.155 110.200 55.200 110.155 55.200 110.100 V 94.100 C 55.200 94.045 55.155 94.000 55.100 94.000 H 51.200 C 51.100 94.000 51.200 94.100 51.200 94.000 V 78.200 C 51.200 78.100 51.100 78.200 51.200 78.200 H 55.100 C 55.155 78.200 55.200 78.155 55.200 78.100 V 62.100 C 55.200 62.045 55.155 62.000 55.100 62.000 H 51.200 C 51.100 62.000 51.200 62.100 51.200 62.000 V 46.200 C 51.200 46.100 51.100 46.200 51.200 46.200 H 55.100 C 55.155 46.200 55.200 46.155 55.200 46.100 V 30.100 C 55.200 30.045 55.155 30.000 55.100 30.000 H 51.200 C 51.100 30.000 51.200 30.100 51.200 30.000 V 14.100 C 51.200 14.045 51.155 14.000 51.100 14.000 H 40.700 C 40.600 14.000 40.700 14.100 40.700 14.000 V 10.100 C 40.700 10.045 40.655 10.000 40.600 10.000 H 24.600 C 24.545 10.000 24.500 10.045 24.500 10.100 V 14.000 C 24.500 14.100 24.600 14.000 24.500 14.000 H 14.100 C 14.045 14.000 14.000 14.045 14.000 14.100 V 30.000 C 14.000 30.100 14.100 30.000 14.000 30.000 H 10.100 C 10.045 30.000 10.000 30.045 10.000 30.100 V 46.100 C 10.000 46.155 10.045 46.200 10.100 46.200 H 14.000 C 14.100 46.200 14.000 46.100 14.000 46.200 V 62.000 C 14.000 62.100 14.100 62.000 14.000 62.000 H 10.100 C 10.045 62.000 10.000 62.045 10.000 62.100 V 78.100 C 10.000 78.155 10.045 78.200 10.100 78.200 H 14.000 C 14.100 78.200 14.000 78.100 14.000 78.200 V 94.000 C 14.000 94.100 14.100 94.000 14.000 94.000 H 10.100 C 10.045 94.000 10.000 94.045 10.000 94.100 V 110.100 C 10.000 110.155 10.045 110.200 10.100 110.200 H 14.000 C 14.100 110.200 14.000 110.100 14.000 110.200 V 126.100 C 14.000 126.155 14.045 126.200 14.100 126.200" stroke="rgb(0,0,0)" stroke-width="0.20" />
</g>
<g id="p-3" style="fill:none;stroke-linecap:round;stroke-linejoin:round;">
  <path d="M 165.300 170.900 H 157.400 C 157.300 170.900 157.400 171.000 157.400 170.900 V 164.600 C 157.400 164.500 157.300 164.600 157.400 164.600 H 173.200 C 173.300 164.600 173.200 164.500 173.200 164.600 V 170.900 C 173.200 171.000 173.300 170.900 173.200 170.900 H 165.300 Z" stroke="rgb(0,0,255)" stroke-width="0.20" />
  <path d="M 89.300 182.150 H 88.650 C 88.550 182.150 88.650 182.250 88.650 182.150 V 176.850 C 88.650 176.750 88.550 176.850 88.650 176.850 H 89.950 C 90.050 176.850 89.950 176.750 89.950 176.850 V 182.150 C 89.950 182.250 90.050 182.150 89.950 182.150 H 89.300 Z" stroke="rgb(0,0,255)" stroke-width="0.20" />
  <path d="M 93.300 182.150 H 92.650 C 92.550 182.150 92.650 182.250 92.650 182.150 V 176.850 C 92.650 176.750 92.550 176.850 92.650 176.850 H 93.950 C 94.050 176.850 93.950 176.750 93.950 176.850 V 182.150 C 93.950 182.250 94.050 182.150 93.950 182.150 H 93.300 Z" stroke="rgb(0,0,255)" stroke-width="0.20" />
  <path d="M 97.300 182.150 H 96.650 C 96.550 182.150 96.650 182.250 96.650 182.150 V 176.850 C 96.650 176.750 96.550 176.850 96.650 176.850 H 97.950 C 98.050 176.850 97.950 176.750 97.950 176.850 V 182.150 C 97.950 182.250 98.050 182.150 97.950 182.150 H 97.300 Z" stroke="rgb(0,0,255)" stroke-width="0.20" />
  <path d="M 101.300 182.150 H 100.650 C 100.550 182.150 100.650 182.250 100.650 182.150 V 176.850 C 100.650 176.750 100.550 176.850 100.650 176.850 H 101.950 C 102.050 176.850 101.950 176.750 101.950 176.850 V 182.150 C 101.950 182.250 102.050 182.150 101.950 182.150 H 101.300 Z" stroke="rgb(0,0,255)" stroke-width="0.20" />
  <path d="M 105.300 182.150 H 104.650 C 104.550 182.150 104.650 182.250 104.650 182.150 V 176.850 C 104.650 176.750 104.550 176.850 104.650 176.850 H 105.950 C 106.050 176.850 105.950 176.750 105.950 176.850 V 182.150 C 105.950 182.250 106.050 182.150 105.950 182.150 H 105.300 Z" stroke="rgb(0,0,255)" stroke-width="0.20" />
  <path d="M 109.300 182.150 H 108.650 C 108.550 182.150 108.650 182.250 108.650 182.150 V 176.850 C 108.650 176.750 108.550 176.850 108.650 176.850 H 109.950 C 110.050 176.850 109.950 176.750 109.950 176.850 V 182.150 C 109.950 182.250 110.050 182.150 109.950 182.150 H 109.300 Z" stroke="rgb(0,0,255)" stroke-width="0.20" />
  <path d="M 113.300 182.150 H 112.650 C 112.550 182.150 112.650 182.250 112.650 182.150 V 176.850 C 112.650 176.750 112.550 176.850 112.650 176.850 H 113.950 C 114.050 176.850 113.950 176.750 113.950 176.850 V 182.150 C 113.950 182.250 114.050 182.150 113.950 182.150 H 113.300 Z" stroke="rgb(0,0,255)" stroke-width="0.20" />
  <path d="M 117.300 182.150 H 116.650 C 116.550 182.150 116.650 182.250 116.650 182.150 V 176.850 C 116.650 176.750 116.550 176.850 116.650 176.850 H 117.950 C 118.050 176.850 117.950 176.750 117.950 176.850 V 182.150 C 117.950 182.250 118.050 182.150 117.950 182.150 H 117.300 Z" stroke="rgb(0,0,255)" stroke-width="0.20" />
  <path d="M 121.300 182.150 H 120.650 C 120.550 182.150 120.650 182.250 120.650 182.150 V 176.850 C 120.650 176.750 120.550 176.850 120.650 176.850 H 121.950 C 122.050 176.850 121.950 176.750 121.950 176.850 V 182.150 C 121.950 182.250 122.050 182.150 121.950 182.150 H 121.300 Z" stroke="rgb(0,0,255)" stroke-width="0.20" />
  <path d="M 125.300 182.150 H 124.650 C 124.550 182.150 124.650 182.250 124.650 182.150 V 176.850 C 124.650 176.750 124.550 176.850 124.650 176.850 H 125.950 C 126.050 176.850 125.950 176.750 125.950 176.850 V 182.150 C 125.950 182.250 126.050 182.150 125.950 182.150 H 125.300 Z" stroke="rgb(0,0,255)" stroke-width="0.20" />
  <path d="M 129.300 182.150 H 128.650 C 128.550 182.150 128.650 182.250 128.650 182.150 V 176.850 C 128.650 176.750 128.550 176.850 128.650 176.850 H 129.950 C 130.050 176.850 129.950 176.750 129.950 176.850 V 182.150 C 129.950 182.250 130.050 182.150 129.950 182.150 H 129.300 Z" stroke="rgb(0,0,255)" stroke-width="0.20" />
  <path d="M 133.300 182.150 H 132.650 C 132.550 182.150 132.650 182.250 132.650 182.150 V 176.850 C 132.650 176.750 132.550 176.850 132.650 176.850 H 133.950 C 134.050 176.850 133.950 176.750 133.950 176.850 V 182.150 C 133.950 182.250 134.050 182.150 133.950 182.150 H 133.300 Z" stroke="rgb(0,0,255)" stroke-width="0.20" />
  <path d="M 137.300 182.150 H 136.650 C 136.550 182.150 136.650 182.250 136.650 182.150 V 176.850 C 136.650 176.750 136.550 176.850 136.650 176.850 H 137.950 C 138.050 176.850 137.950 176.750 137.950 176.850 V 182.150 C 137.950 182.250 138.050 182.150 137.950 182.150 H 137.300 Z" stroke="rgb(0,0,255)" stroke-width="0.20" />
  <path d="M 141.300 182.150 H 140.650 C 140.550 182.150 140.650 182.250 140.650 182.150 V 176.850 C 140.650 176.750 140.550 176.850 140.650 176.850 H 141.950 C 142.050 176.850 141.950 176.750 141.950 176.850 V 182.150 C 141.950 182.250 142.050 182.150 141.950 182.150 H 141.300 Z" stroke="rgb(0,0,255)" stroke-width="0.20" />
  <text dominant-baseline="hanging" font-size="4px" style="font-family: sans-serif ; font-weight: normal; font-style: normal; fill: rgb(255,0,0)" text-anchor="middle" transform="matrix( 1.000 0.000 0.000 1.000 117.300 177.600 )">left</text><path d="M 61.300 194.600 H 77.300 C 77.355 194.600 77.400 194.555 77.400 194.500 V 190.600 C 77.400 190.500 77.300 190.600 77.400 190.600 H 93.200 C 93.300 190.600 93.200 190.500 93.200 190.600 V 194.500 C 93.200 194.555 93.245 194.600 93.300 194.600 H 109.300 C 109.355 194.600 109.400 194.555 109.400 194.500 V 190.600 C 109.400 190.500 109.300 190.600 109.400 190.600 H 125.200 C 125.300 190.600 125.200 190.500 125.200 190.600 V 194.500 C 125.200 194.555 125.245 194.600 125.300 194.600 H 141.300 C 141.355 194.600 141.400 194.555 141.400 194.500 V 190.600 C 141.400 190.500 141.300 190.600 141.400 190.600 H 157.200 C 157.300 190.600 157.200 190.500 157.200 190.600 V 194.500 C 157.200 194.555 157.245 194.600 157.300 194.600 H 173.300 C 173.355 194.600 173.400 194.555 173.400 194.500 V 189.600 C 173.400 189.500 173.300 189.600 173.400 189.600 H 177.300 C 177.355 189.600 177.400 189.555 177.400 189.500 V 173.500 C 177.400 173.445 177.355 173.400 177.300 173.400 H 173.400 C 173.300 173.400 173.400 173.500 173.400 173.400 V 168.500 V 164.500 C 173.400 164.445 173.355 164.400 173.300 164.400 H 157.300 C 157.245 164.400 157.200 164.445 157.200 164.500 V 166.000 C 157.200 166.100 157.300 166.000 157.200 166.000 H 141.400 C 141.300 166.000 141.400 166.100 141.400 166.000 V 164.500 C 141.400 164.445 141.355 164.400 141.300 164.400 H 125.300 C 125.245 164.400 125.200 164.445 125.200 164.500 V 166.000 C 125.200 166.100 125.300 166.000 125.200 166.000 H 109.400 C 109.300 166.000 109.400 166.100 109.400 166.000 V 164.500 C 109.400 164.445 109.355 164.400 109.300 164.400 H 93.300 C 93.245 164.400 93.200 164.445 93.200 164.500 V 166.000 C 93.200 166.100 93.300 166.000 93.200 166.000 H 77.400 C 77.300 166.000 77.400 166.100 77.400 166.000 V 164.500 C 77.400 164.445 77.355 164.400 77.300 164.400 H 61.300 C 61.245 164.400 61.200 164.445 61.200 164.500 V 168.500 V 173.400 C 61.200 173.500 61.300 173.400 61.200 173.400 H 57.300 C 57.245 173.400 57.200 173.445 57.200 173.500 V 189.500 C 57.200 189.555 57.245 189.600 57.300 189.600 H 61.200 C 61.300 189.600 61.200 189.500 61.200 189.600 V 194.500 C 61.200 194.555 61.245 194.600 61.300 194.600" stroke="rgb(0,0,0)" stroke-width="0.20" />
</g>
<g id="p-4" style="fill:none;stroke-linecap:round;stroke-linejoin:round;">
  <text dominant-baseline="hanging" font-size="4px" style="font-family: sans-serif ; font-weight: normal; font-style: normal; fill: rgb(255,0,0)" text-anchor="middle" transform="matrix( 1.000 0.000 0.000 1.000 117.300 145.400 )">right</text><path d="M 61.300 162.400 H 77.300 C 77.355 162.400 77.400 162.355 77.400 162.300 V 158.400 C 77.400 158.300 77.300 158.400 77.400 158.400 H 93.200 C 93.300 158.400 93.200 158.300 93.200 158.400 V 162.300 C 93.200 162.355 93.245 162.400 93.300 162.400 H 109.300 C 109.355 162.400 109.400 162.355 109.400 162.300 V 158.400 C 109.400 158.300 109.300 158.400 109.400 158.400 H 125.200 C 125.300 158.400 125.200 158.300 125.200 158.400 V 162.300 C 125.200 162.355 125.245 162.400 125.300 162.400 H 141.300 C 141.355 162.400 141.400 162.355 141.400 162.300 V 158.400 C 141.400 158.300 141.300 158.400 141.400 158.400 H 157.200 C 157.300 158.400 157.200 158.300 157.200 158.400 V 162.300 C 157.200 162.355 157.245 162.400 157.300 162.400 H 173.300 C 173.355 162.400 173.400 162.355 173.400 162.300 V 157.400 C 173.400 157.300 173.300 157.400 173.400 157.400 H 177.300 C 177.355 157.400 177.400 157.355 177.400 157.300 V 141.300 C 177.400 141.245 177.355 141.200 177.300 141.200 H 173.400 C 173.300 141.200 173.400 141.300 173.400 141.200 V 136.300 V 132.300 C 173.400 132.245 173.355 132.200 173.300 132.200 H 157.300 C 157.245 132.200 157.200 132.245 157.200 132.300 V 133.800 C 157.200 133.900 157.300 133.800 157.200 133.800 H 141.400 C 141.300 133.800 141.400 133.900 141.400 133.800 V 132.300 C 141.400 132.245 141.355 132.200 141.300 132.200 H 125.300 C 125.245 132.200 125.200 132.245 125.200 132.300 V 133.800 C 125.200 133.900 125.300 133.800 125.200 133.800 H 109.400 C 109.300 133.800 109.400 133.900 109.400 133.800 V 132.300 C 109.400 132.245 109.355 132.200 109.300 132.200 H 93.300 C 93.245 132.200 93.200 132.245 93.200 132.300 V 133.800 C 93.200 133.900 93.300 133.800 93.200 133.800 H 77.400 C 77.300 133.800 77.400 133.900 77.400 133.800 V 132.300 C 77.400 132.245 77.355 132.200 77.300 132.200 H 61.300 C 61.245 132.200 61.200 132.245 61.200 132.300 V 136.300 V 141.200 C 61.200 141.300 61.300 141.200 61.200 141.200 H 57.300 C 57.245 141.200 57.200 141.245 57.200 141.300 V 157.300 C 57.200 157.355 57.245 157.400 57.300 157.400 H 61.200 C 61.300 157.400 61.200 157.300 61.200 157.400 V 162.300 C 61.200 162.355 61.245 162.400 61.300 162.400" stroke="rgb(0,0,0)" stroke-width="0.20" />
</g>
</svg>